<svg width="197" height="48" viewBox="0 0 197 48" fill="none" xmlns="http://www.w3.org/2000/svg">
<g clip-path="url(#clip0_1713_15172)">
<path fill-rule="evenodd" clip-rule="evenodd" d="M142.864 14.7788C139.401 11.6146 134.861 10.0091 129.369 10.0091C123.583 10.0091 118.871 11.7279 115.361 15.1129C111.842 18.5087 110.056 23.1711 110.056 28.9698C110.056 34.8628 111.842 39.561 115.364 42.931C118.872 46.2941 123.702 48 129.722 48C134.409 48 138.446 46.8886 141.726 44.6966C145.072 42.4568 147.053 39.4944 147.613 35.8927C147.655 35.6144 147.575 35.334 147.392 35.1193C147.209 34.9066 146.943 34.7833 146.662 34.7833H136.074C135.692 34.7833 135.348 35.006 135.194 35.3539C134.415 37.1075 132.626 37.9575 129.722 37.9575C127.569 37.9575 125.858 37.4207 124.634 36.36C123.749 35.5945 123.043 33.8757 122.793 31.9809H146.872C147.366 31.9809 147.777 31.6111 147.829 31.123L147.896 30.5047L147.898 30.4924C148.039 29.2008 148.118 28.4836 148.118 27.2052C148.118 22.1472 146.35 17.966 142.864 14.7788ZM179.373 13.0481C176.958 11.0887 172.747 10.0091 167.51 10.0091C162.892 10.0091 159.134 11.0847 156.343 13.2062C153.466 15.3872 152.01 18.2682 152.01 21.7704C152.01 24.4396 152.823 26.741 154.43 28.6079C156.012 30.447 158.315 31.7592 161.274 32.5128L169.624 34.6352C170.834 34.9125 171.348 35.4991 171.348 36.5906C171.348 37.2805 171.12 37.7796 170.628 38.1623C170.073 38.5898 169.312 38.8075 168.356 38.8075C166.926 38.8075 165.762 38.4884 164.9 37.8631C164.111 37.2885 163.743 36.6155 163.743 35.7446C163.743 35.2138 163.312 34.7833 162.782 34.7833H152.054C151.521 34.7833 151.092 35.2138 151.092 35.7446C151.092 39.3503 152.698 42.3415 155.863 44.6399C158.936 46.8697 163.067 48 168.147 48C172.96 48 176.833 46.8468 179.653 44.5763C182.538 42.2531 184 39.1395 184 35.3221C184 32.7285 183.141 30.4997 181.444 28.6984C179.796 26.9477 177.517 25.6822 174.681 24.9367L166.629 22.7476C164.696 22.2287 164.449 21.3479 164.449 20.6401C164.449 20.0993 164.655 19.7066 165.114 19.3686C165.647 18.978 166.408 18.7781 167.369 18.7781C168.597 18.7781 169.546 19.0406 170.189 19.5575C170.789 20.0347 171.066 20.6719 171.066 21.5577C171.066 22.0905 171.497 22.52 172.029 22.52H182.687C183.217 22.52 183.647 22.0905 183.647 21.5577C183.647 18.1628 182.248 15.3803 179.373 13.0481ZM62.5791 1.69048C62.5791 1.15864 62.1488 0.72918 61.6175 0.72918H50.8698C50.6626 0.72918 50.4822 0.807714 50.3246 0.920049C51.4319 1.98872 52.4103 3.20451 53.2122 4.57141C55.4803 8.4385 56.1306 12.9547 55.0452 17.2901C54.6506 18.8637 54.034 20.3708 53.2093 21.7715C52.3102 23.2985 51.188 24.6385 49.9092 25.7807V46.3171C49.9092 46.8479 50.2869 47.2784 50.8192 47.2784H61.6175C62.1488 47.2784 62.5791 46.8479 62.5791 46.3171V44.0306C63.3672 44.811 64.303 45.5059 65.3815 46.1113C67.4464 47.2714 69.8146 47.8589 72.4158 47.8589C77.3862 47.8589 81.5001 46.0765 84.6396 42.5613C87.7513 39.079 89.3294 34.5051 89.3294 28.9689C89.3294 23.3899 87.7889 18.8081 84.7496 15.3476C81.6775 11.8533 77.6241 10.0798 72.6993 10.0798C70.1021 10.0798 67.6942 10.6633 65.5401 11.8175C64.3912 12.4318 63.4009 13.1486 62.5791 13.9608V1.69048ZM18.0864 1.63461C18.0864 1.10575 17.6561 0.674305 17.1258 0.674305H6.3275C5.79517 0.674305 5.36494 1.10575 5.36494 1.63461V10.7675H0.961565C0.429235 10.7675 0 11.1999 0 11.7298V20.2702C0 20.802 0.429235 21.2305 0.961565 21.2305H5.36494V33.8229C5.36494 36.0845 5.65539 38.0876 6.22638 39.7766C6.8063 41.4905 7.52499 42.8375 8.35967 43.7769C9.20327 44.7263 10.2937 45.4868 11.5993 46.0355C12.8463 46.5594 13.9913 46.9034 15.0054 47.0535C15.9868 47.2016 17.1278 47.2772 18.3956 47.2772C21.1663 47.2772 23.6466 47.0803 25.768 46.6956C26.224 46.6121 26.5561 46.2135 26.5561 45.7492V37.1373C26.5561 36.8599 26.4361 36.5945 26.225 36.4116C26.0138 36.2286 25.7353 36.1441 25.4587 36.1849C24.5179 36.3211 23.3056 36.3907 21.8543 36.3907C20.5676 36.3907 19.605 36.0905 18.9954 35.499C18.581 35.0944 18.0864 34.0844 18.0864 31.5623V21.2305H23.6377C21.9049 18.0275 21.2506 14.3562 21.7621 10.7675H18.0864V1.63461ZM105.941 1.76136C105.941 1.31004 105.573 0.941223 105.123 0.941223H93.8577C93.4067 0.941223 93.0389 1.31004 93.0389 1.76136V46.4536C93.0389 46.9049 93.4067 47.2747 93.8577 47.2747H105.123C105.573 47.2747 105.941 46.9049 105.941 46.4536V1.76136ZM32.378 28.8964C32.0707 28.796 31.8199 28.9809 31.8199 29.304V46.687C31.8199 47.0101 32.0836 47.2745 32.4057 47.2745H44.1349C44.459 47.2745 44.7217 47.0101 44.7217 46.687V29.5614C44.7217 29.2384 44.4679 29.0465 44.1587 29.136C44.1587 29.136 40.7505 30.1221 38.5855 30.1221C36.1796 30.1221 32.378 28.8964 32.378 28.8964ZM64.0918 23.1941C65.4182 21.7427 67.1252 21.0379 69.312 21.0379C71.3997 21.0379 73.0611 21.7447 74.3895 23.1961C75.7386 24.6723 76.3959 26.5611 76.3959 28.9689C76.3959 31.3806 75.7377 33.2823 74.3855 34.7834C73.0572 36.2547 71.3977 36.9705 69.312 36.9705C67.1688 36.9705 65.4717 36.2646 64.1225 34.8083C62.7516 33.333 62.0854 31.4213 62.0854 28.9689C62.0854 26.5611 62.7407 24.6723 64.0918 23.1941ZM41.7603 0.39665C40.6917 0.12824 39.6201 0 38.5653 0C32.67 0 27.2912 3.99533 25.7963 9.96695C25.7289 10.2334 25.6744 10.5008 25.6248 10.7672C25.037 13.9285 25.6456 17.0709 27.1504 19.6973C28.8684 22.6975 31.7541 25.0247 35.3674 25.9294C41.1546 27.3808 47.0241 24.7315 49.9088 19.8305C50.4535 18.9032 50.8935 17.8984 51.2049 16.8238L51.3303 16.3601C52.2007 12.8837 51.592 9.37943 49.9088 6.50844C48.182 3.56587 45.324 1.28837 41.7603 0.39665ZM124.494 20.8031C125.662 19.6788 127.233 19.132 129.297 19.132C131.328 19.132 132.879 19.654 133.911 20.6848C134.783 21.5577 135.299 22.7357 135.472 24.2666H122.784C122.982 22.86 123.545 21.7207 124.494 20.8031ZM46.4888 11.9303C46.9498 11.3627 47.8548 11.642 47.9242 12.3697C48.1284 14.4832 47.605 16.6325 46.3946 18.4447C43.958 22.0911 39.0233 23.6787 35.0581 21.8247C32.2041 20.4906 30.7915 18.2837 30.1323 16.7398C29.8537 16.0907 30.4802 15.4246 31.1464 15.6622C32.9198 16.2964 36.091 17.0321 39.9214 16.1742C42.5613 15.5817 44.8006 14.011 46.4888 11.9303ZM32.8881 8.92512C35.7421 8.08211 36.9842 10.9491 36.1743 11.138C35.9011 11.2248 35.5423 11.1942 35.1603 11.1616C34.6494 11.118 34.0971 11.0708 33.6524 11.2961C33.1626 11.3717 32.7421 11.7308 32.3529 12.0633C32.0615 12.3122 31.7876 12.5462 31.5152 12.6351C30.7459 12.9513 30.0897 9.90531 32.8881 8.92512ZM41.6512 6.86234C44.5984 6.45476 45.4004 9.47586 44.5696 9.54147C44.2872 9.58606 43.9378 9.50221 43.5657 9.41291C43.0667 9.29316 42.5269 9.16361 42.0527 9.32077C41.5567 9.32305 41.0872 9.61532 40.6531 9.88561C40.3281 10.088 40.0228 10.278 39.741 10.3248C38.9321 10.5227 38.7368 7.41308 41.6512 6.86234ZM191.23 15.2099H192.26V14.3999H189.1V15.2099H190.13V17.6999H191.23V15.2099ZM197 17.6999V14.3999H195.41L194.98 15.7999L194.84 16.4399H194.81L194.66 15.7999L194.24 14.3999H192.61V17.6999H193.71V16.4999L193.66 15.4299H193.69L193.92 16.2699L194.36 17.6999H195.26L195.7 16.2799L195.93 15.4299H195.96L195.91 16.4999V17.6999H197Z" fill="black"/>
</g>
<defs>
<clipPath id="clip0_1713_15172">
<rect width="197" height="48" fill="white"/>
</clipPath>
</defs>
</svg>
