<svg width="40" height="40" viewBox="0 0 40 40" fill="none" xmlns="http://www.w3.org/2000/svg">
<path d="M32.1682 29.3714C35.7759 26.6603 38.7276 20.3706 38.2903 15.816C37.853 11.2614 34.792 6.1646 28.4512 6.70681C24.0782 7.03214 20.2518 11.5867 20.5798 15.4907C20.9078 19.1777 22.329 23.1901 27.1393 23.7323C26.702 25.7928 25.7181 27.8532 24.5155 29.046C23.6409 30.022 23.7502 31.2149 25.1714 31.6487C26.5926 31.7571 29.3258 31.4318 32.1682 29.3714ZM11.5059 29.9136C15.2229 27.6363 18.5027 21.9973 18.5027 17.5511C18.5027 13.2134 15.9882 8.11657 9.86606 8.11657C5.71174 8.11657 1.66675 12.0205 1.66675 15.816C1.66675 19.72 3.63458 23.6239 7.67957 24.2746C6.91431 26.2265 5.71174 27.8532 4.1812 29.046C3.41593 29.8051 3.30661 30.998 4.6185 31.5402C6.14904 31.7571 8.66349 31.6487 11.5059 29.9136Z" fill="black"/>
</svg>
