<svg width="278" height="96" viewBox="0 0 278 96" fill="none" xmlns="http://www.w3.org/2000/svg">
<path fill-rule="evenodd" clip-rule="evenodd" d="M152.45 47.9027H147.549V66.1779H140.71V47.9027H137.176V42.044H140.71V39.7644C140.71 33.8601 144.395 30.8281 149.996 30.8281C150.863 30.8354 151.726 30.9373 152.572 31.1321V37.971C151.834 37.6753 151.048 37.5207 150.254 37.5151C149.895 37.4866 149.534 37.5362 149.196 37.6604C148.859 37.7847 148.552 37.9806 148.297 38.2348C148.042 38.489 147.845 38.7954 147.72 39.1329C147.595 39.4704 147.544 39.831 147.571 40.1899V42.006H152.473L152.45 47.9027ZM162.746 66.1779H155.831V31.3448H162.746V66.1779ZM178.096 40.532C180.689 40.5275 183.225 41.2925 185.383 42.7303C187.54 44.1681 189.223 46.2138 190.217 48.6085C191.212 51.0033 191.473 53.6392 190.968 56.1826C190.464 58.7259 189.216 61.0623 187.382 62.8958C185.549 64.7293 183.212 65.9774 180.669 66.4822C178.125 66.9869 175.49 66.7256 173.095 65.7312C170.7 64.7368 168.654 63.0542 167.217 60.8964C165.779 58.7385 165.014 56.2025 165.018 53.6096C164.997 51.8863 165.32 50.1761 165.97 48.5798C166.62 46.9835 167.582 45.5333 168.801 44.3146C170.02 43.0959 171.47 42.1335 173.066 41.4838C174.662 40.8342 176.373 40.5106 178.096 40.532ZM178.096 60.023C181.629 60.023 184.175 57.0899 184.175 53.6096C184.213 52.7879 184.084 51.9671 183.795 51.1968C183.507 50.4265 183.065 49.7227 182.497 49.1281C181.929 48.5335 181.246 48.0604 180.489 47.7375C179.733 47.4145 178.918 47.2485 178.096 47.2494C176.44 47.3065 174.871 48.0044 173.72 49.1959C172.569 50.3874 171.926 51.9794 171.926 53.6362C171.926 55.2929 172.569 56.8849 173.72 58.0765C174.871 59.268 176.44 59.9659 178.096 60.023ZM202.838 57.7586L198.393 41.0411H191.242L198.666 66.1781H205.885L210.559 52.4014L215.559 66.1857H222.732L230.202 41.0487H223.104L218.765 57.7662L212.907 41.0487H206.068L207.283 44.4758L202.838 57.7586Z" fill="black"/>
<path fill-rule="evenodd" clip-rule="evenodd" d="M123.817 47.9942C123.817 68.9778 106.807 85.9884 85.8231 85.9884C64.8394 85.9884 47.8289 68.9778 47.8289 47.9942C47.8289 27.0106 64.8394 10 85.8231 10C106.807 10 123.817 27.0106 123.817 47.9942ZM95.7927 36.687H107.86V25.9575H95.7927C91.8822 25.9615 88.133 27.5167 85.3678 30.2819C82.6026 33.0471 81.0474 36.7963 81.0434 40.7068L81.0434 42.0518H77.016C74.0988 42.0518 71.2472 42.9168 68.8217 44.5375C66.3962 46.1582 64.5057 48.4617 63.3894 51.1568C62.273 53.8519 61.9809 56.8175 62.55 59.6786C63.1191 62.5397 64.5239 65.1678 66.5866 67.2305C68.6493 69.2933 71.2774 70.698 74.1385 71.2671C76.9996 71.8362 79.9652 71.5441 82.6603 70.4278C85.3554 69.3114 87.6589 67.421 89.2796 64.9955C90.9003 62.5699 91.7653 59.7183 91.7653 56.8012V52.7738H81.0434L81.0434 42.0518H91.7653V40.7068C91.7673 39.64 92.1926 38.6176 92.9476 37.864C93.7027 37.1103 94.7259 36.687 95.7927 36.687ZM81.0434 52.7738V56.8012C81.0434 57.5977 80.8072 58.3764 80.3646 59.0387C79.9221 59.701 79.2931 60.2172 78.5572 60.522C77.8213 60.8268 77.0115 60.9066 76.2303 60.7512C75.449 60.5958 74.7314 60.2122 74.1682 59.649C73.6049 59.0857 73.2214 58.3681 73.066 57.5869C72.9106 56.8056 72.9903 55.9959 73.2952 55.2599C73.6 54.524 74.1162 53.8951 74.7785 53.4525C75.4408 53.01 76.2194 52.7738 77.016 52.7738H81.0434ZM91.7656 42.0518H102.495V52.7814H91.7656V42.0518Z" fill="black"/>
</svg>
