<svg width="202" height="56" viewBox="0 0 202 56" fill="none" xmlns="http://www.w3.org/2000/svg">
<path d="M0 21.833V43.6661H8.71967C19.493 43.6661 20.7723 43.5988 23.937 42.825C28.7177 41.6476 32.6567 39.1245 35.35 35.5249C36.5283 33.9438 37.5383 32.0263 38.2453 30.0751C40.0633 24.928 39.895 17.8297 37.8413 12.6827C35.2827 6.25723 30.2327 2.15303 23.028 0.60554C20.4693 0.0672831 20.5367 0.067279 9.898 0.0336379L0 0V21.833ZM20.402 7.93928C23.937 8.67938 26.462 10.1932 28.3137 12.6154C31.4447 16.7532 32.017 24.1879 29.5593 29.0322C27.7413 32.5982 24.9133 34.6839 20.503 35.6595C19.594 35.8613 19.2573 35.895 14.0053 35.9286L8.45033 35.9623V21.7994V7.63651L13.9043 7.67016C19.089 7.7038 19.392 7.73743 20.402 7.93928ZM54.2707 13.5573C52.4863 13.7592 50.702 14.2974 49.2543 15.0039C46.763 16.215 44.743 18.3344 43.632 20.8911C43.228 21.7994 42.925 22.7077 43.026 22.775C43.0597 22.8086 44.5073 23.2123 46.2917 23.6833C48.076 24.1543 49.591 24.5579 49.692 24.5916C49.8267 24.6252 49.894 24.457 50.1297 23.8515C51.005 21.2275 53.1933 19.7473 56.257 19.7473C58.3107 19.7473 59.8593 20.2519 60.9367 21.362C61.9803 22.3713 62.2833 23.3132 62.3843 25.399C62.418 26.6773 62.418 26.8119 62.2833 26.8119C62.1823 26.8119 61.3743 26.6437 60.4653 26.4082C57.7047 25.769 57.065 25.6681 54.742 25.6681C51.8803 25.6681 50.0623 26.0045 48.177 26.8792C45.248 28.2585 43.6657 30.5124 43.2617 33.8429C42.925 36.8369 43.834 39.5955 45.8877 41.5467C48.2107 43.7333 51.3753 44.608 55.1123 44.1034C58.3107 43.6661 60.6337 42.2868 62.2497 39.8646L62.721 39.1582L62.7547 41.4121L62.7883 43.6661H66.4243H70.0603L70.0267 33.3719L69.993 23.0777L69.7237 22.0349C68.5453 17.3251 65.5827 14.7348 60.1623 13.7255C59.2197 13.591 55.146 13.4564 54.2707 13.5573ZM58.5463 31.3871C59.0177 31.488 60.0613 31.7908 60.903 32.0599C62.5863 32.5645 62.4853 32.4299 62.317 33.641C62.014 35.6595 60.4653 37.3079 58.277 37.9134C57.5027 38.1153 55.4827 38.2162 54.5737 38.048C53.227 37.8125 52.0823 37.0724 51.5773 36.0632C51.2743 35.4576 51.207 34.2802 51.4427 33.5401C51.7793 32.43 52.8567 31.5889 54.2707 31.2525C55.2133 31.017 57.4353 31.0843 58.5463 31.3871ZM90.3277 13.6583C87.5333 14.1629 84.8737 15.6767 83.224 17.6952C82.921 18.0316 82.6517 18.3344 82.618 18.3344C82.5843 18.368 82.517 17.4261 82.517 16.215V14.062H78.679H74.841V35.054V55.9787H78.8137H82.82L82.8537 47.9385L82.8873 39.8983L83.2577 40.4365C85.0083 42.9596 88.5433 44.4062 92.516 44.2379C97.263 44.0361 101.202 41.9504 103.66 38.3171C107.195 33.0691 107.127 24.5243 103.458 19.1754C102.784 18.1998 101.471 16.8205 100.495 16.1141C99.1147 15.0712 97.162 14.1965 95.243 13.7592C94.2667 13.5237 91.3377 13.49 90.3277 13.6583ZM92.516 20.622C94.5697 21.1938 96.354 22.6741 97.3303 24.6252C98.071 26.1054 98.4077 28.1912 98.2393 30.0751C97.9027 33.4728 95.9163 36.1305 92.9537 37.1061C92.2467 37.3415 91.91 37.4088 90.799 37.4425C89.1493 37.4761 88.2403 37.3079 86.8263 36.6014C86.0183 36.1977 85.749 35.9959 84.9747 35.2222C84.1667 34.4148 83.9983 34.1793 83.5607 33.271C82.719 31.5553 82.4497 29.8732 82.6517 27.9557C83.0557 23.9861 85.3113 21.2948 88.8463 20.4874C89.587 20.3192 91.6743 20.3865 92.516 20.622ZM125.543 13.6583C123.86 13.961 122.075 14.7011 120.628 15.6767C119.887 16.1813 118.641 17.3588 118.136 17.9979L117.833 18.4016V16.2486V14.0956H113.962H110.09V35.054V55.9787H114.13H118.17V47.9721V39.9655L118.54 40.4365C119.921 42.2531 122.008 43.4979 124.6 44.0025C125.812 44.238 128.674 44.238 129.987 44.0025C132.882 43.4642 135.306 42.2195 137.293 40.2347C140.222 37.3079 141.669 33.2037 141.501 28.2248C141.333 23.6496 139.851 19.8818 137.091 17.2242C134.566 14.7684 131.334 13.4901 127.698 13.5237C126.89 13.5237 125.981 13.591 125.543 13.6583ZM127.698 20.622C130.627 21.4293 132.68 23.7842 133.32 27.0474C133.488 27.9221 133.455 30.2769 133.286 31.1516C132.613 34.1793 130.761 36.265 128.001 37.1397C127.058 37.4425 125.038 37.5434 123.994 37.3079C120.897 36.6351 118.641 34.3138 117.968 31.0507C117.766 30.0751 117.766 27.9893 117.934 26.9801C118.305 25.1298 118.978 23.8178 120.257 22.5395C121.368 21.463 122.614 20.7902 124.163 20.4537C124.836 20.3192 126.991 20.4201 127.698 20.622ZM157.728 13.5573C154.16 14.0956 151.5 15.374 149.278 17.6279C146.888 20.0164 145.474 23.0441 145.036 26.6437C144.868 28.0566 144.969 30.8488 145.238 32.1945C146.181 36.9378 148.84 40.5374 152.948 42.5559C157.358 44.7426 163.418 44.8098 167.694 42.7241C169.478 41.8494 171.128 40.5038 172.306 38.9227C172.946 38.0816 174.225 35.6931 174.259 35.2558C174.292 35.054 174.09 34.953 171.06 33.742C167.155 32.1945 167.492 32.2954 167.492 32.5309C167.492 32.8336 166.953 33.9438 166.583 34.5493C165.808 35.7268 164.731 36.5342 163.452 36.9715C161.263 37.7116 158.806 37.5097 156.685 36.4669C155.944 36.0968 155.607 35.8613 154.934 35.1885C154.227 34.5157 154.025 34.2466 153.655 33.4392C153.183 32.43 153.049 31.959 152.914 30.9834L152.847 30.3442L162.913 30.3106L173.047 30.3442L173.181 29.6377C173.249 29.2004 173.316 28.1575 173.316 26.8119C173.316 24.9616 173.282 24.558 173.114 23.6833C171.936 18.3344 168.535 15.0039 163.115 13.8265C162.307 13.6583 161.701 13.6246 160.085 13.591C158.94 13.5573 157.897 13.5573 157.728 13.5573ZM161.735 20.1846C163.216 20.5547 164.563 21.5639 165.135 22.6404C165.404 23.145 165.64 24.0533 165.64 24.5916V25.0289H159.277C155.776 25.0289 152.914 24.9953 152.914 24.9953C152.914 24.9616 152.981 24.7262 153.116 24.4234C154.261 20.992 157.897 19.209 161.735 20.1846ZM191.664 13.6583C189.678 14.0619 187.995 15.2394 186.917 16.9887L186.412 17.7961V15.9459V14.0956H182.44H178.467V28.8976V43.6997H182.44H186.412L186.446 33.5401C186.48 23.4814 186.48 23.4142 186.682 22.775C186.985 21.9003 187.456 21.1938 188.062 20.7565C188.735 20.2519 189.341 20.0501 190.217 19.9828C192.102 19.8482 193.684 20.8574 194.156 22.5059C194.29 22.9432 194.29 23.3132 194.257 24.1879C194.223 24.8271 194.156 25.4663 194.122 25.6008L194.055 25.87H197.825H201.596L201.697 25.3653C202.101 23.5824 202.101 20.992 201.697 19.5118C200.855 16.2823 198.465 14.062 195.233 13.5573C194.391 13.4564 192.472 13.49 191.664 13.6583Z" fill="black"/>
</svg>
