<svg width="316" height="96" viewBox="0 0 316 96" fill="none" xmlns="http://www.w3.org/2000/svg">
<path d="M47.793 47.7775V71.5599H57.2912C69.0264 71.5599 70.42 71.4866 73.8672 70.6438C79.0747 69.3612 83.3654 66.6129 86.2992 62.6919C87.5828 60.9696 88.6829 58.8809 89.4531 56.7555C91.4334 51.1488 91.25 43.4168 89.013 37.8102C86.2259 30.811 80.725 26.3404 72.877 24.6547C70.0899 24.0684 70.1633 24.0684 58.5747 24.0318L47.793 23.9951V47.7775ZM70.0166 32.6433C73.8672 33.4494 76.6176 35.0985 78.6346 37.7369C82.0452 42.2442 82.6686 50.3426 79.9915 55.6195C78.0112 59.5038 74.9307 61.7758 70.1266 62.8385C69.1364 63.0583 68.7697 63.095 63.0488 63.1316L56.9978 63.1683V47.7409V32.3135L62.9388 32.3501C68.5863 32.3868 68.9164 32.4234 70.0166 32.6433ZM106.909 38.7629C104.966 38.9828 103.022 39.5691 101.445 40.3386C98.7312 41.6579 96.5309 43.9665 95.3207 46.7515C94.8806 47.7409 94.5506 48.7303 94.6606 48.8036C94.6972 48.8402 96.2742 49.28 98.2178 49.793C100.161 50.306 101.812 50.7457 101.922 50.7824C102.068 50.819 102.142 50.6358 102.398 49.9762C103.352 47.1179 105.736 45.5055 109.073 45.5055C111.31 45.5055 112.997 46.0552 114.17 47.2645C115.307 48.3638 115.637 49.3899 115.747 51.6618C115.784 53.0543 115.784 53.2009 115.637 53.2009C115.527 53.2009 114.647 53.0177 113.657 52.7612C110.65 52.0649 109.953 51.955 107.423 51.955C104.305 51.955 102.325 52.3215 100.271 53.2742C97.081 54.7767 95.3574 57.2318 94.9173 60.8597C94.5506 64.121 95.5407 67.1259 97.7777 69.2513C100.308 71.6332 103.755 72.586 107.826 72.0363C111.31 71.5599 113.84 70.0575 115.601 67.4191L116.114 66.6495L116.151 69.1047L116.187 71.5599H120.148H124.109L124.072 60.3466L124.035 49.1334L123.742 47.9974C122.458 42.8671 119.231 40.0455 113.327 38.9461C112.3 38.7996 107.863 38.653 106.909 38.7629ZM111.567 58.1846C112.08 58.2945 113.217 58.6243 114.134 58.9175C115.967 59.4672 115.857 59.3206 115.674 60.6398C115.344 62.8385 113.657 64.6341 111.273 65.2937C110.43 65.5135 108.229 65.6235 107.239 65.4403C105.772 65.1837 104.526 64.3776 103.975 63.2782C103.645 62.6186 103.572 61.3361 103.829 60.5299C104.195 59.3206 105.369 58.4045 106.909 58.038C107.936 57.7815 110.356 57.8548 111.567 58.1846ZM146.186 38.8729C143.142 39.4225 140.245 41.0715 138.448 43.2702C138.118 43.6367 137.824 43.9665 137.788 43.9665C137.751 44.0031 137.678 42.9771 137.678 41.6579V39.3126H133.497H129.316V62.1789V84.9719H133.644H138.008L138.044 76.2138L138.081 67.4557L138.484 68.042C140.391 70.7904 144.242 72.3661 148.569 72.1829C153.74 71.963 158.031 69.691 160.708 65.7334C164.559 60.0168 164.485 50.7091 160.488 44.8826C159.754 43.8199 158.324 42.3175 157.261 41.5479C155.757 40.4119 153.63 39.4592 151.54 38.9828C150.476 38.7263 147.286 38.6896 146.186 38.8729ZM148.569 46.4583C150.806 47.0813 152.75 48.6936 153.814 50.819C154.62 52.4314 154.987 54.7034 154.804 56.7555C154.437 60.4566 152.273 63.3515 149.046 64.4142C148.276 64.6707 147.909 64.744 146.699 64.7807C144.902 64.8173 143.912 64.6341 142.372 63.8645C141.492 63.4248 141.198 63.2049 140.355 62.3621C139.475 61.4826 139.291 61.2261 138.814 60.2367C137.898 58.3678 137.604 56.5356 137.824 54.4468C138.264 50.1228 140.721 47.1912 144.572 46.3117C145.379 46.1285 147.652 46.2018 148.569 46.4583ZM184.545 38.8729C182.712 39.2027 180.768 40.0088 179.191 41.0715C178.384 41.6212 177.027 42.9038 176.477 43.6L176.147 44.0398V41.6945V39.3492H171.93H167.712V62.1789V84.9719H172.113H176.514V76.2504V67.529L176.917 68.042C178.421 70.0208 180.695 71.3767 183.518 71.9264C184.839 72.1829 187.956 72.1829 189.386 71.9264C192.54 71.3401 195.18 69.9842 197.344 67.8222C200.534 64.6341 202.111 60.1634 201.928 54.74C201.745 49.7563 200.131 45.6521 197.124 42.7572C194.373 40.0821 190.853 38.6896 186.892 38.7263C186.012 38.7263 185.022 38.7996 184.545 38.8729ZM186.892 46.4583C190.083 47.3378 192.32 49.9029 193.017 53.4574C193.2 54.4102 193.163 56.9753 192.98 57.9281C192.246 61.2261 190.229 63.4981 187.222 64.4509C186.195 64.7807 183.995 64.8906 182.858 64.6341C179.484 63.9012 177.027 61.3727 176.294 57.8182C176.074 56.7555 176.074 54.4835 176.257 53.3842C176.661 51.3687 177.394 49.9395 178.788 48.5471C179.998 47.3744 181.355 46.6415 183.042 46.2751C183.775 46.1285 186.122 46.2384 186.892 46.4583ZM219.604 38.7629C215.717 39.3492 212.82 40.7417 210.399 43.1969C207.796 45.7987 206.255 49.0967 205.779 53.0177C205.595 54.5568 205.705 57.5983 205.999 59.0641C207.025 64.231 209.923 68.152 214.397 70.3506C219.201 72.7325 225.802 72.8058 230.459 70.5339C232.403 69.5811 234.2 68.1153 235.483 66.393C236.18 65.4769 237.574 62.8751 237.61 62.3988C237.647 62.1789 237.427 62.0689 234.127 60.7497C229.872 59.0641 230.239 59.174 230.239 59.4305C230.239 59.7603 229.652 60.9696 229.249 61.6292C228.406 62.9118 227.232 63.7912 225.839 64.2676C223.455 65.0738 220.778 64.8539 218.467 63.718C217.661 63.3149 217.294 63.0583 216.56 62.3255C215.79 61.5926 215.57 61.2994 215.167 60.4199C214.653 59.3206 214.507 58.8076 214.36 57.7449L214.287 57.0486L225.252 57.012L236.29 57.0486L236.437 56.2791C236.51 55.8027 236.584 54.6667 236.584 53.2009C236.584 51.1855 236.547 50.7457 236.364 49.793C235.08 43.9665 231.376 40.3386 225.472 39.0561C224.592 38.8729 223.932 38.8362 222.171 38.7996C220.924 38.7629 219.788 38.7629 219.604 38.7629ZM223.968 45.9819C225.582 46.385 227.049 47.4844 227.672 48.657C227.966 49.2067 228.222 50.1961 228.222 50.7824V51.2588H221.291C217.477 51.2588 214.36 51.2221 214.36 51.2221C214.36 51.1855 214.433 50.929 214.58 50.5992C215.827 46.8614 219.788 44.9192 223.968 45.9819ZM256.57 38.8729C254.406 39.3126 252.573 40.5952 251.399 42.5007L250.849 43.3802V41.3647V39.3492H246.522H242.195V55.4729V71.5966H246.522H250.849L250.886 60.5299C250.923 49.5731 250.923 49.4998 251.143 48.8036C251.473 47.8508 251.986 47.0813 252.646 46.6049C253.38 46.0552 254.04 45.8354 254.993 45.7621C257.047 45.6155 258.771 46.7148 259.284 48.5104C259.431 48.9868 259.431 49.3899 259.394 50.3426C259.357 51.0389 259.284 51.7351 259.247 51.8817L259.174 52.1749H263.281H267.389L267.499 51.6252C267.939 49.683 267.939 46.8614 267.499 45.249C266.582 41.7311 263.978 39.3126 260.457 38.7629C259.541 38.653 257.45 38.6896 256.57 38.8729Z" fill="black"/>
</svg>
