<svg width="257" height="57" viewBox="0 0 257 57" fill="none" xmlns="http://www.w3.org/2000/svg">
<g clip-path="url(#clip0_750_4504)">
<path fill-rule="evenodd" clip-rule="evenodd" d="M244.47 6.20013C241.16 17.0701 237.93 28.9401 235.93 38.8001C235.903 38.9332 235.849 39.0594 235.772 39.1711C235.695 39.2827 235.596 39.3774 235.48 39.4495C235.365 39.5215 235.237 39.5694 235.103 39.5901C234.968 39.6108 234.831 39.6041 234.7 39.5701C234.26 39.5701 233.82 39.4601 233.39 39.3901C232.86 39.2768 232.321 39.2099 231.78 39.1901H231.25C230.88 39.1901 230.41 39.1901 230.09 39.1901C229.951 39.2027 229.812 39.1861 229.68 39.1415C229.548 39.0969 229.427 39.0252 229.324 38.9311C229.221 38.8369 229.14 38.7224 229.084 38.5948C229.028 38.4672 228.999 38.3294 229 38.1901C229.86 30.5001 230.58 21.8501 231.24 14.0001C231.59 9.89013 231.91 6.00013 232.24 2.58013C232.55 1.97013 232.85 1.58013 233.62 1.89013L235.83 2.56013C238.15 3.27013 241.27 4.22013 243.78 4.90013C244.038 4.98944 244.253 5.1732 244.381 5.4144C244.509 5.6556 244.541 5.93635 244.47 6.20013V6.20013ZM237.47 48.6701C237.47 52.2201 233.93 54.1401 231.01 54.1401C228.39 54.1401 225.16 52.2201 225.16 48.8301C225.147 48.0149 225.301 47.2057 225.611 46.4517C225.921 45.6978 226.382 45.015 226.965 44.4451C227.548 43.8752 228.241 43.4301 229.002 43.1369C229.763 42.8438 230.575 42.7088 231.39 42.7401C232.182 42.7173 232.97 42.854 233.709 43.1421C234.447 43.4301 235.119 43.8636 235.687 44.4168C236.254 44.97 236.704 45.6316 237.01 46.3623C237.317 47.093 237.473 47.8778 237.47 48.6701V48.6701ZM175 32.6601C175.08 27.0601 175.21 21.4601 175.34 15.8601C175.42 12.1668 175.497 8.50013 175.57 4.86013C175.571 4.69367 175.531 4.52947 175.456 4.38108C175.381 4.23269 175.271 4.10436 175.136 4.00669C175.001 3.90901 174.845 3.84478 174.681 3.8193C174.516 3.79382 174.348 3.80781 174.19 3.86013C172.82 4.27013 170.89 4.65013 169.1 5.01013C167.86 5.25013 166.69 5.49013 165.81 5.71013C165.475 5.74314 165.166 5.90599 164.949 6.16387C164.732 6.42174 164.625 6.75419 164.65 7.09013C164.81 10.3901 165.08 20.5101 165.33 30.0101C165.33 31.4601 165.41 32.9001 165.45 34.2901C164.13 28.0801 159.01 22.4801 151.63 22.4801C149.916 22.4351 148.213 22.752 146.63 23.4101C146.55 17.0101 146.63 11.1501 146.86 5.06013C147.17 3.90013 145.86 3.83013 145.55 3.90013C143.14 4.59013 141.33 4.97013 139.03 5.45013L137.26 5.83013C137.055 5.93657 136.879 6.08992 136.745 6.27764C136.611 6.46536 136.524 6.6821 136.49 6.91013C136.49 22.1701 137.18 39.2101 138.57 54.7001L138.64 54.7801C138.756 54.9526 138.919 55.0881 139.11 55.1701C140.428 55.5206 141.763 55.801 143.11 56.0101L144.84 56.3201C144.99 56.3329 145.142 56.3137 145.284 56.2638C145.427 56.2138 145.557 56.1343 145.667 56.0304C145.776 55.9265 145.863 55.8006 145.92 55.6609C145.978 55.5213 146.005 55.3711 146 55.2201V52.1401C147.627 52.7486 149.343 53.0864 151.08 53.1401C159.53 53.1401 164.67 47.2301 165.66 40.0201C165.66 40.6101 165.66 41.1801 165.66 41.7301C165.72 42.9701 165.76 44.2201 165.8 45.4701C165.89 47.9101 165.97 50.3601 166.12 52.7501C166.153 52.9963 166.27 53.2233 166.453 53.3914C166.636 53.5596 166.872 53.6582 167.12 53.6701C168.62 53.7301 171.12 53.6701 172.67 53.6701H173.89C174.163 53.6709 174.426 53.5681 174.627 53.3826C174.827 53.197 174.95 52.9425 174.97 52.6701C174.91 48.4835 174.91 44.2935 174.97 40.1001C176.2 47.1701 181.12 53.5201 189.38 53.5201C192.709 53.4937 195.989 52.7215 198.98 51.2601L198.86 51.5901V51.5101C198.782 51.7182 198.762 51.9436 198.802 52.1622C198.843 52.3807 198.942 52.584 199.09 52.7501C201.63 54.6001 205.93 55.5201 208.78 55.5201C214.47 55.5201 222.78 52.7501 222.78 45.5801C222.78 39.9201 218.33 37.9101 214.04 35.9701C212.738 35.418 211.469 34.7902 210.24 34.0901C209.848 33.8356 209.533 33.4779 209.33 33.0564C209.127 32.6349 209.044 32.1657 209.09 31.7001C209.09 30.5501 210.7 29.3901 212.47 29.3901C214.019 29.5193 215.519 29.9943 216.86 30.7801C217.47 31.2401 218.16 30.7001 218.32 30.5501L221.47 24.3001C221.502 24.092 221.485 23.8793 221.419 23.6794C221.352 23.4794 221.24 23.2981 221.09 23.1501C218.519 21.4857 215.533 20.5746 212.47 20.5201C206.56 20.5201 200.64 24.3001 200.19 30.5201C198.34 24.8701 194.39 20.3301 186.61 21.2701C180 22.1001 176.18 26.9501 175 32.6601ZM201.14 45.3801L199.71 49.2501C199.44 48.5301 199.18 47.8101 198.92 47.1001C198.45 45.8201 197.99 44.5501 197.5 43.3101C197.443 43.176 197.359 43.0549 197.254 42.9543C197.148 42.8537 197.023 42.7758 196.886 42.7252C196.75 42.6747 196.604 42.6526 196.459 42.6603C196.313 42.668 196.171 42.7054 196.04 42.7701C194.702 43.7372 193.139 44.3465 191.5 44.5401C188.5 45.0001 185.27 43.3801 185.2 40.3801C190.58 39.9101 195.65 39.4501 200.58 38.9101C200.831 38.89 201.065 38.7758 201.236 38.5904C201.406 38.405 201.501 38.1621 201.5 37.9101C201.5 37.5501 201.5 37.1201 201.42 36.7101C202.392 38.5817 203.972 40.0666 205.9 40.9201C206.3 41.1001 206.9 41.2901 207.59 41.5101C209.83 42.2301 212.98 43.2501 212.98 45.0801C212.98 46.7001 211.06 47.4701 209.44 47.4701C207.26 47.4701 205.02 46.2401 203.12 45.2101L202.76 45.0101L202.6 44.9201C202.475 44.8514 202.337 44.8087 202.194 44.7947C202.052 44.7807 201.908 44.7956 201.772 44.8386C201.635 44.8816 201.509 44.9517 201.401 45.0448C201.292 45.1378 201.203 45.2519 201.14 45.3801V45.3801ZM156 38.6501C156 36.1801 153.92 32.5601 151.3 32.5601C147.69 32.5601 146.3 34.6401 146.53 39.1101C146.77 43.0401 147.53 44.9701 150.84 44.9701C154.15 44.9701 156 41.5801 156 38.6501ZM127.21 19.2201C128.86 19.2309 130.447 18.5898 131.627 17.4362C132.807 16.2826 133.484 14.7099 133.51 13.0601C133.405 11.509 132.738 10.0495 131.633 8.9557C130.528 7.86193 129.062 7.2092 127.51 7.12013C125.971 7.16079 124.506 7.79184 123.419 8.88266C122.331 9.97347 121.705 11.4405 121.67 12.9801C121.67 15.6801 124 19.2201 127.21 19.2201ZM133.28 53.4501C133.59 43.2001 133.9 33.7201 134.28 23.5401C134.284 23.387 134.253 23.235 134.189 23.0958C134.125 22.9566 134.03 22.8339 133.911 22.7373C133.792 22.6407 133.653 22.5726 133.504 22.5385C133.354 22.5043 133.199 22.5048 133.05 22.5401L131.72 22.6401C130.92 22.7001 130.13 22.7701 129.28 22.7701C128.43 22.7701 127.67 22.7701 126.86 22.7701C126.05 22.7701 125.25 22.7701 124.44 22.7701C124.155 22.7753 123.883 22.8907 123.682 23.0921C123.481 23.2936 123.365 23.5653 123.36 23.8501C123.55 33.1401 123.9 45.2301 124.01 49.3701C124.01 50.2701 124.01 50.7901 124.01 50.8201C124.01 51.7401 124.01 52.7401 124.09 53.8201C124.127 54.0942 124.269 54.3435 124.484 54.5165C124.7 54.6896 124.974 54.7732 125.25 54.7501L128.25 54.5901C129.73 54.5201 131.08 54.4601 132.25 54.3601C132.505 54.3688 132.755 54.2794 132.946 54.1101C133.138 53.9409 133.257 53.7047 133.28 53.4501V53.4501ZM8.38 54.6801C15.38 54.6801 26.29 52.1901 27.69 43.6801C29.69 49.2101 34.3 53.5801 41.15 53.5801C44.38 53.5801 48.84 52.5801 51.23 51.0301C51.4155 50.9224 51.5655 50.7627 51.6614 50.5708C51.7574 50.379 51.7951 50.1632 51.77 49.9501C51.41 49.0101 51.07 48.0601 50.72 47.1201C50.26 45.8401 49.79 44.5701 49.31 43.3301C49.253 43.196 49.1691 43.0749 49.0636 42.9743C48.9581 42.8737 48.8332 42.7958 48.6965 42.7452C48.5598 42.6947 48.4142 42.6726 48.2686 42.6803C48.123 42.688 47.9806 42.7254 47.85 42.7901C46.5113 43.7557 44.949 44.3648 43.31 44.5601C40.31 44.9701 37.08 43.3801 37 40.3801C42.38 39.9101 47.46 39.4501 52.38 38.9101C52.4328 38.9206 52.4872 38.9206 52.54 38.9101C53.32 47.3801 55.9 56.3801 64.93 56.3801C77 56.3801 78.31 44.1201 78.39 35.1001C78.39 34.8901 78.39 34.6701 78.39 34.4501C78.7379 35.8592 79.401 37.1709 80.3295 38.2865C81.2579 39.402 82.4275 40.2923 83.75 40.8901C84.15 41.0701 84.75 41.2601 85.44 41.4801C87.67 42.2001 90.83 43.2201 90.83 45.0501C90.83 46.6701 88.9 47.4401 87.29 47.4401C85.11 47.4401 82.87 46.2101 80.97 45.1801L80.44 44.8901C80.3137 44.8256 80.1757 44.7871 80.0342 44.7769C79.8928 44.7667 79.7507 44.7849 79.6164 44.8306C79.4821 44.8763 79.3584 44.9485 79.2525 45.0429C79.1466 45.1373 79.0608 45.252 79 45.3801L76.69 51.6201V51.5401C76.6142 51.7492 76.5964 51.9749 76.6387 52.1933C76.6809 52.4116 76.7816 52.6145 76.93 52.7801C79.46 54.6301 83.77 55.5501 86.62 55.5501C90.54 55.5501 95.7 54.2401 98.53 51.0701L98.33 51.6201V51.5401C98.2495 51.7478 98.2283 51.9738 98.269 52.1928C98.3096 52.4118 98.4104 52.6152 98.56 52.7801C101.1 54.6301 105.4 55.5501 108.25 55.5501C113.94 55.5501 122.25 52.7801 122.25 45.6101C122.25 39.9501 117.8 37.9401 113.51 36.0001C112.208 35.448 110.939 34.8202 109.71 34.1201C109.316 33.8672 109 33.5099 108.797 33.0879C108.594 32.6659 108.512 32.1959 108.56 31.7301C108.56 30.5801 110.17 29.4201 111.94 29.4201C113.486 29.5481 114.983 30.0232 116.32 30.8101C116.94 31.2701 117.63 30.7301 117.79 30.5801L120.94 24.3301C120.973 24.1212 120.954 23.9075 120.886 23.7072C120.818 23.5069 120.703 23.3261 120.55 23.1801C117.983 21.514 115 20.6027 111.94 20.5501C105.79 20.5501 99.63 24.6401 99.63 31.3501C99.5466 33.3342 100.049 35.2989 101.075 36.999C102.102 38.6991 103.606 40.0594 105.4 40.9101C105.8 41.0901 106.4 41.2801 107.09 41.5001C109.33 42.2201 112.48 43.2401 112.48 45.0701C112.48 46.6901 110.56 47.4601 108.94 47.4601C106.76 47.4601 104.52 46.2301 102.62 45.2001L102.1 44.9101C101.973 44.8415 101.834 44.7993 101.69 44.7858C101.547 44.7724 101.402 44.7881 101.265 44.832C101.128 44.8759 101.001 44.9471 100.891 45.0413C100.782 45.1355 100.693 45.2507 100.63 45.3801V45.4401C100.54 39.9101 96.14 37.9201 91.89 36.0001C90.592 35.446 89.3266 34.8183 88.1 34.1201C87.7049 33.8676 87.3874 33.5107 87.1826 33.0889C86.9779 32.667 86.8939 32.1968 86.94 31.7301C86.94 30.5801 88.56 29.4201 90.33 29.4201C91.876 29.5481 93.3732 30.0232 94.71 30.8101C94.9427 30.9456 95.2149 30.9968 95.4809 30.9549C95.7469 30.913 95.9903 30.7806 96.17 30.5801L99.33 24.3301C99.3626 24.1212 99.3442 23.9075 99.2763 23.7072C99.2084 23.5069 99.093 23.3261 98.94 23.1801C96.3724 21.5155 93.3895 20.6043 90.33 20.5501C85.13 20.5501 79.94 23.4701 78.45 28.4101C78.45 27.7401 78.45 27.0701 78.45 26.4101C78.45 24.9501 78.45 23.5001 78.45 22.0301C78.45 21.6401 77.99 20.7201 77.14 21.0301C75.76 21.3001 74.47 21.5701 73.14 21.8401C71.81 22.1101 70.56 22.3801 69.14 22.6501C68.8763 22.6706 68.6315 22.7946 68.4591 22.9952C68.2867 23.1957 68.2007 23.4564 68.22 23.7201C68.28 24.2901 68.35 24.8501 68.42 25.4101C68.8908 28.6301 69.158 31.8765 69.22 35.1301V35.8501C69.22 39.1101 69.36 47.2401 65.53 47.2401C61.91 47.2401 61.97 39.5501 61.99 36.6401V36.1501C61.9775 32.1773 62.2348 28.2081 62.76 24.2701C62.7773 24.1004 62.7538 23.9291 62.6914 23.7703C62.629 23.6115 62.5296 23.47 62.4014 23.3575C62.2732 23.2449 62.12 23.1647 61.9545 23.1234C61.789 23.0821 61.616 23.081 61.45 23.1201C58.88 23.7501 56.45 24.1201 53.89 24.5301L53.07 24.6601C52.8374 24.7088 52.6276 24.8334 52.4737 25.0145C52.3198 25.1956 52.2305 25.4227 52.22 25.6601C52.16 27.0601 52.15 29.1001 52.17 31.3301C50.42 25.3301 46.47 20.3301 38.37 21.3301C30.27 22.3301 26.37 29.5201 26.42 36.8801C24.49 33.8801 20.87 32.2101 17.55 30.6301C16.96 30.3501 16.38 30.0801 15.82 29.8001L15.54 29.6601C13.63 28.6601 10.98 27.2901 10.98 24.8701C10.98 21.1701 17.36 20.6301 20.21 20.6301C20.91 20.6301 22.66 20.7701 23.92 20.8701L24.92 20.9401C25.69 21.0201 26.23 20.4801 25.99 19.7801C25.9669 16.7954 26.0971 13.8115 26.38 10.8401C26.3911 10.7022 26.3734 10.5636 26.3281 10.4328C26.2829 10.3021 26.211 10.1822 26.117 10.0807C26.023 9.97921 25.909 9.89831 25.7821 9.84313C25.6553 9.78795 25.5183 9.75969 25.38 9.76013C24.73 9.76013 24.07 9.76013 23.38 9.68013C22.69 9.60013 22.07 9.61013 21.38 9.61013C14.07 9.61013 6.07 11.2301 1.77 18.1601C0.716346 19.935 0.108978 21.939 0 24.0001C0 32.5801 5.89 35.2601 10.5 37.3801C13.5 38.7301 15.92 39.8401 15.92 42.1401C15.92 44.7601 11.77 45.0701 9.84 45.0701C6.46 45.0701 4.92 44.9101 2.23 43.6001C1.31 42.8301 0.62 43.9901 0.62 44.5301C0.62 45.0701 0.71 45.5301 0.76 46.0701C0.81 46.6101 0.88 47.2401 0.92 47.8401L1.15 53.2401C1.17932 53.4838 1.28515 53.7118 1.45225 53.8915C1.61936 54.0712 1.83914 54.1932 2.08 54.2401C4.1707 54.4985 6.27368 54.6454 8.38 54.6801V54.6801ZM44.08 33.0201C41.31 33.3301 38.92 33.5601 36.31 33.7201C36.2968 32.6818 36.6415 31.6706 37.2862 30.8565C37.9309 30.0424 38.8363 29.4752 39.85 29.2501C42.54 28.8601 43.54 30.7901 44.08 33.0201V33.0201ZM184.5 33.7201C187.12 33.5601 189.5 33.3301 192.27 33.0201C191.73 30.7901 190.73 28.8601 188.04 29.2501C187.026 29.4752 186.121 30.0424 185.476 30.8565C184.832 31.6706 184.487 32.6818 184.5 33.7201V33.7201ZM248.73 9.72013L252.04 9.95013L251.98 10.7301L250.89 10.6601L250.67 13.8101L249.54 13.7301L249.76 10.5701L248.68 10.5001L248.73 9.72013ZM252.49 9.99013L254.14 10.1001L254.63 12.0301L255.38 10.1901L257 10.3801L256.71 14.3101L255.58 14.2301L255.78 11.4501L254.7 14.1601H254.02L253.3 11.3101L253.1 14.0901L252.23 14.0301L252.49 9.99013Z" fill="black"/>
<path d="M111.43 32.7097C111.038 32.4552 110.723 32.0975 110.52 31.676C110.317 31.2545 110.234 30.7853 110.28 30.3197C110.28 29.1697 111.9 28.0097 113.66 28.0097C115.207 28.1327 116.707 28.6009 118.05 29.3797C118.66 29.8397 119.35 29.2997 119.51 29.1497L122.66 22.8997C122.693 22.6901 122.676 22.4756 122.61 22.2739C122.544 22.0723 122.431 21.8892 122.28 21.7397C119.706 20.0822 116.721 19.1749 113.66 19.1197C107.51 19.1197 101.36 23.2097 101.36 29.9197C101.36 33.9197 103.28 37.7797 107.13 39.4697C108.82 40.2497 114.2 41.2497 114.2 43.6397C114.2 45.2597 112.28 46.0297 110.66 46.0297C108.28 46.0297 105.82 44.5597 103.82 43.4797C103.694 43.4113 103.555 43.3692 103.413 43.3559C103.27 43.3425 103.126 43.3583 102.989 43.4023C102.853 43.4462 102.727 43.5174 102.619 43.6115C102.51 43.7056 102.422 43.8206 102.36 43.9497V44.0297C102.25 36.7697 94.72 35.5997 89.83 32.6897C89.4376 32.4352 89.1227 32.0775 88.9199 31.656C88.717 31.2345 88.6341 30.7653 88.68 30.2997C88.68 29.1497 90.29 27.9897 92.06 27.9897C93.5986 28.1233 95.0881 28.5981 96.42 29.3797C97.03 29.8397 97.72 29.2997 97.88 29.1497L101 22.9197C101.031 22.7102 101.012 22.4963 100.946 22.2951C100.88 22.0938 100.769 21.9105 100.62 21.7597C98.0461 20.1022 95.061 19.1949 92 19.1397C86.79 19.1397 81.59 22.0797 80.12 27.0497C80.12 24.9097 80.12 22.7697 80.12 20.6097C80.12 20.2197 79.66 19.2997 78.82 19.6097C76.05 20.1497 73.66 20.6897 70.89 21.2297C70.6318 21.2576 70.3945 21.3848 70.2284 21.5845C70.0623 21.7842 69.9804 22.0407 70 22.2997C70.5609 26.0797 70.8948 29.8898 71 33.7097C71 36.2597 71.46 45.8197 67.31 45.8197C63.46 45.8197 63.7701 37.1097 63.7701 34.7197C63.7575 30.7469 64.0148 26.7777 64.5401 22.8397C64.5574 22.67 64.5338 22.4987 64.4715 22.3399C64.4091 22.1811 64.3097 22.0396 64.1815 21.9271C64.0533 21.8145 63.9001 21.7343 63.7346 21.693C63.569 21.6517 63.3961 21.6506 63.23 21.6897C60.39 22.3797 57.77 22.7697 54.85 23.2297C54.6174 23.2784 54.4076 23.403 54.2537 23.5841C54.0998 23.7652 54.0106 23.9923 54 24.2297C54 25.6397 53.93 27.6997 54 29.9297C52.25 23.9297 48.31 18.9297 40.19 19.9297C32.07 20.9297 28.19 28.1597 28.25 35.5297C25.99 32.0297 21.38 30.2597 17.65 28.4097C15.72 27.4097 12.8 26.0197 12.8 23.4797C12.8 19.7797 19.1901 19.2397 22.0301 19.2397C22.9501 19.2397 25.65 19.4697 26.72 19.5497C27.49 19.6297 28.03 19.0897 27.8 18.3897C27.8 15.4597 27.88 12.4597 28.18 9.44973C28.1911 9.31184 28.1735 9.17315 28.1282 9.04243C28.0829 8.91172 28.011 8.79182 27.917 8.69031C27.823 8.58881 27.709 8.50791 27.5822 8.45273C27.4553 8.39755 27.3184 8.36928 27.18 8.36973C25.88 8.36973 24.57 8.21973 23.26 8.21973C15.96 8.21973 7.96005 9.83973 3.65005 16.7697C2.56962 18.5452 1.93489 20.5557 1.80005 22.6297C1.80005 36.7397 17.72 34.8897 17.72 40.7497C17.72 43.3697 13.57 43.6797 11.65 43.6797C8.26005 43.6797 6.73005 43.5197 4.03005 42.2097C3.11005 41.4397 2.42005 42.5997 2.42005 43.1397C2.50005 44.2197 2.65005 45.2997 2.73005 46.4497L2.96005 51.8497C2.98576 52.0931 3.0891 52.3217 3.25478 52.5018C3.42045 52.6819 3.63968 52.8039 3.88005 52.8497C5.97378 53.1145 8.08006 53.268 10.19 53.3097C17.19 53.3097 28.11 50.8197 29.5 42.2397C31.55 47.7697 36.1 52.1597 42.96 52.1597C46.19 52.1597 50.65 51.1597 53.03 49.6097C53.2156 49.502 53.3655 49.3423 53.4615 49.1504C53.5574 48.9586 53.5952 48.7428 53.57 48.5297C52.73 46.2997 51.9601 44.0597 51.1101 41.8997C51.0496 41.76 50.9606 41.6345 50.8487 41.5313C50.7368 41.428 50.6045 41.3494 50.4604 41.3004C50.3162 41.2514 50.1634 41.2332 50.0118 41.2468C49.8602 41.2605 49.7131 41.3058 49.5801 41.3797C48.2296 42.3461 46.6515 42.9456 45 43.1197C42 43.5797 38.7701 41.9597 38.7001 38.9597C44.0801 38.4897 49.1501 38.0297 54.0801 37.4897H54.23C55.02 45.9897 57.59 55.0397 66.62 55.0397C78.7 55.0397 80.01 42.7797 80.08 33.7597C80.08 33.5297 80.08 33.2997 80.08 33.0697C80.4218 34.4851 81.0823 35.8038 82.0112 36.9251C82.9401 38.0464 84.1129 38.9407 85.44 39.5397C87.14 40.3197 92.52 41.3197 92.52 43.7097C92.52 45.3297 90.6 46.0997 88.98 46.0997C86.6 46.0997 84.14 44.6297 82.14 43.5497C82.014 43.4813 81.8755 43.4392 81.7327 43.4259C81.5899 43.4126 81.4459 43.4283 81.3095 43.4723C81.173 43.5162 81.0468 43.5874 80.9386 43.6815C80.8304 43.7756 80.7425 43.8906 80.68 44.0197L78.37 50.2597V50.1797C78.306 50.3866 78.2982 50.6068 78.3474 50.8177C78.3966 51.0286 78.5011 51.2226 78.65 51.3797C81.19 53.2297 85.49 54.1497 88.34 54.1497C92.26 54.1497 97.42 52.8297 100.26 49.6697L100.05 50.2197V50.1397C99.9718 50.3478 99.9519 50.5732 99.9924 50.7918C100.033 51.0103 100.132 51.2136 100.28 51.3797C102.82 53.2297 107.13 54.1497 109.97 54.1497C115.66 54.1497 123.97 51.3797 123.97 44.2097C124 36.7997 116.36 35.6397 111.43 32.7097ZM38 32.3797C37.9883 31.3406 38.3333 30.3289 38.9776 29.5136C39.6219 28.6982 40.5264 28.1286 41.5401 27.8997C44.2301 27.5197 45.2301 29.4497 45.7701 31.6797C43.0001 31.9397 40.66 32.1697 38 32.3797Z" fill="#FFEB68"/>
<path d="M134.79 21.1501C133.48 21.2301 132.33 21.3801 131.02 21.3801C129.4 21.4601 127.79 21.3801 126.17 21.4601C125.886 21.4653 125.616 21.5811 125.416 21.7828C125.216 21.9845 125.103 22.2562 125.1 22.5401C125.33 33.8701 125.79 49.3601 125.79 49.5401C125.79 50.4601 125.79 51.4601 125.86 52.5401C125.898 52.8142 126.039 53.0635 126.255 53.2365C126.47 53.4095 126.744 53.4932 127.02 53.4701C129.71 53.3101 132.1 53.2401 134.09 53.0801C134.343 53.0624 134.58 52.9492 134.752 52.7636C134.925 52.5779 135.021 52.3336 135.02 52.0801C135.33 41.8301 135.63 32.3501 136.02 22.1701C136.027 22.0153 135.999 21.861 135.936 21.7192C135.873 21.5775 135.779 21.4522 135.66 21.3533C135.54 21.2544 135.4 21.1845 135.249 21.1493C135.098 21.114 134.941 21.1143 134.79 21.1501Z" fill="#FFEB68"/>
<path d="M128.94 17.8295C130.592 17.8429 132.182 17.203 133.364 16.0491C134.546 14.8953 135.224 13.321 135.25 11.6695C135.143 10.1191 134.475 8.66077 133.371 7.56742C132.266 6.47408 130.802 5.82067 129.25 5.72949C127.709 5.76763 126.242 6.39756 125.152 7.48864C124.063 8.57972 123.436 10.0482 123.4 11.5895C123.4 14.2895 125.71 17.8295 128.94 17.8295Z" fill="#FFEB68"/>
<path d="M212 32.7094C211.605 32.4569 211.287 32.0999 211.083 31.6781C210.878 31.2563 210.794 30.786 210.84 30.3194C210.84 29.1694 212.46 28.0094 214.23 28.0094C215.757 28.1385 217.236 28.6065 218.56 29.3794C219.17 29.8394 219.87 29.2994 220.02 29.1494L223.17 22.8994C223.203 22.6897 223.186 22.4753 223.12 22.2736C223.054 22.0719 222.941 21.8888 222.79 21.7394C220.219 20.0836 217.238 19.1764 214.18 19.1194C208.24 19.1194 202.32 22.9294 201.91 29.2194C200.07 23.5394 196.12 18.9494 188.31 19.8894C181.69 20.6894 177.91 25.5594 176.76 31.2794C176.89 21.9894 177.15 12.6894 177.33 3.39936C177.329 3.23249 177.288 3.06824 177.212 2.91999C177.135 2.77174 177.025 2.64368 176.889 2.54622C176.754 2.44876 176.597 2.38466 176.432 2.35915C176.267 2.33363 176.099 2.34741 175.94 2.39936C173.64 3.08936 169.71 3.70936 167.56 4.24936C167.394 4.26444 167.232 4.3121 167.085 4.38961C166.937 4.46713 166.806 4.57298 166.699 4.70113C166.592 4.82929 166.512 4.97722 166.462 5.13649C166.413 5.29576 166.395 5.46324 166.41 5.62936C166.59 9.43936 166.92 22.3694 167.2 32.9294C165.91 26.6894 160.79 21.0494 153.39 21.0494C151.676 21.0026 149.972 21.3195 148.39 21.9794C148.31 15.5794 148.39 9.71937 148.62 3.62936C148.92 2.46936 147.62 2.39936 147.31 2.46936C144.31 3.37936 142.23 3.72936 139 4.37936C138.795 4.4858 138.619 4.63916 138.485 4.82688C138.351 5.01459 138.264 5.23134 138.23 5.45936C138.23 20.7194 138.93 37.7594 140.31 53.2494L140.39 53.3294C140.503 53.5008 140.662 53.6362 140.85 53.7194C142.39 54.1794 144.54 54.4894 146.54 54.8694C146.688 54.882 146.838 54.8633 146.978 54.8145C147.119 54.7657 147.247 54.6878 147.356 54.5859C147.464 54.484 147.55 54.3604 147.608 54.2232C147.665 54.086 147.693 53.9381 147.69 53.7894V50.7494C149.317 51.3578 151.033 51.6956 152.77 51.7494C161.26 51.7494 166.39 45.7494 167.36 38.5394C167.36 39.1594 167.36 39.7694 167.36 40.3394C167.51 43.9694 167.59 47.7394 167.82 51.3394C167.851 51.5863 167.968 51.8144 168.151 51.9829C168.334 52.1514 168.571 52.2494 168.82 52.2594C170.82 52.3394 174.59 52.2594 175.59 52.2594C175.862 52.2599 176.124 52.1569 176.323 51.9711C176.522 51.7853 176.642 51.5308 176.66 51.2594C176.6 47.0494 176.6 42.8494 176.66 38.6394C177.88 45.7294 182.8 52.1094 191.07 52.1094C194.408 52.078 197.696 51.2953 200.69 49.8194L200.55 50.1794V50.0994C200.475 50.3079 200.457 50.5326 200.497 50.7505C200.538 50.9684 200.635 51.1716 200.78 51.3394C203.32 53.1894 207.63 54.1094 210.47 54.1094C216.17 54.1094 224.47 51.3394 224.47 44.1694C224.48 36.7994 216.87 35.6394 212 32.7094ZM152.62 43.5794C149.31 43.5794 148.54 41.6494 148.31 37.7194C148.08 33.2494 149.46 31.1694 153.08 31.1694C155.69 31.1694 157.77 34.7894 157.77 37.2594C157.77 40.1894 155.85 43.5794 152.62 43.5794ZM189.77 27.8494C192.47 27.4694 193.47 29.3994 194 31.6294C191.24 31.9394 188.85 32.1694 186.24 32.3294C186.228 31.2916 186.571 30.281 187.214 29.4658C187.856 28.6507 188.758 28.0802 189.77 27.8494V27.8494ZM211.18 46.0494C208.79 46.0494 206.33 44.5794 204.33 43.4994C204.204 43.4309 204.065 43.3888 203.923 43.3755C203.78 43.3622 203.636 43.378 203.499 43.4219C203.363 43.4659 203.237 43.537 203.129 43.6311C203.02 43.7252 202.932 43.8403 202.87 43.9694L201.44 47.8294C200.7 45.8294 199.99 43.8294 199.23 41.8294C199.172 41.6962 199.087 41.5761 198.982 41.4763C198.876 41.3765 198.751 41.2991 198.615 41.2487C198.479 41.1982 198.333 41.1759 198.188 41.1829C198.043 41.1898 197.901 41.2261 197.77 41.2894C196.436 42.2652 194.872 42.8785 193.23 43.0694C190.23 43.5294 187.01 41.9094 186.93 38.9094C192.31 38.4394 197.39 37.9794 202.31 37.4394C202.561 37.4192 202.795 37.305 202.966 37.1196C203.136 36.9342 203.231 36.6913 203.23 36.4394C203.23 36.0594 203.23 35.6094 203.15 35.1794C204.108 37.0763 205.695 38.5819 207.64 39.4394C209.33 40.2194 214.72 41.2194 214.72 43.6094C214.72 45.2794 212.79 46.0494 211.18 46.0494Z" fill="#FFEB68"/>
<path d="M245.51 3.48974C242.05 2.56974 237.43 1.10974 235.36 0.489738C234.59 0.179738 234.28 0.569738 233.97 1.17974C233.05 11.1797 232.05 25.0797 230.74 36.7997C230.728 36.9446 230.748 37.0904 230.797 37.227C230.847 37.3635 230.927 37.4875 231.029 37.5903C231.132 37.6932 231.256 37.7723 231.393 37.8223C231.529 37.8723 231.675 37.8919 231.82 37.8797C232.36 37.8797 233.28 37.7997 233.51 37.7997C234.43 37.7997 235.43 38.1097 236.43 38.1797C236.562 38.2137 236.699 38.2205 236.833 38.1997C236.967 38.179 237.095 38.1311 237.211 38.0591C237.326 37.987 237.425 37.8923 237.502 37.7807C237.579 37.669 237.633 37.5428 237.66 37.4097C239.66 27.5497 242.9 15.6697 246.2 4.80974C246.276 4.5432 246.247 4.25749 246.119 4.01176C245.991 3.76604 245.773 3.57913 245.51 3.48974V3.48974Z" fill="#FFEB68"/>
<path d="M233.13 41.3794C232.315 41.3481 231.503 41.4831 230.742 41.7762C229.981 42.0694 229.288 42.5145 228.705 43.0844C228.122 43.6543 227.661 44.3371 227.351 45.091C227.041 45.845 226.887 46.6542 226.9 47.4694C226.9 50.8694 230.13 52.7894 232.74 52.7894C235.67 52.7894 239.2 50.8694 239.2 47.3194C239.203 46.5275 239.047 45.7431 238.741 45.0126C238.436 44.282 237.987 43.6203 237.421 43.0664C236.855 42.5125 236.183 42.0779 235.446 41.7881C234.709 41.4983 233.922 41.3594 233.13 41.3794V41.3794Z" fill="#FFEB68"/>
<path d="M23.17 8.32031C24.48 8.32031 25.79 8.47031 27.09 8.47031C27.2283 8.46987 27.3653 8.49813 27.4921 8.55331C27.619 8.60849 27.733 8.68939 27.827 8.7909C27.921 8.8924 27.9929 9.0123 28.0381 9.14302C28.0834 9.27373 28.1011 9.41242 28.09 9.55031C27.8104 12.5218 27.6835 15.5058 27.71 18.4903C27.7603 18.6312 27.7738 18.7826 27.7494 18.9302C27.7249 19.0777 27.6632 19.2166 27.5701 19.3337C27.477 19.4508 27.3556 19.5423 27.2174 19.5994C27.0791 19.6566 26.9286 19.6775 26.78 19.6603H26.63C25.55 19.5803 22.86 19.3503 21.94 19.3503C19.09 19.3503 12.71 19.8903 12.71 23.5903C12.71 26.1403 15.63 27.5203 17.56 28.5203C21.29 30.3703 25.9 32.1403 28.16 35.6403C28 28.2603 31.89 21.0203 40.1 20.0403C40.7631 19.9533 41.4312 19.9099 42.1 19.9103C48.89 19.9103 52.33 24.5703 53.93 30.0603C53.93 27.8203 53.93 25.7603 53.93 24.3503C53.9405 24.1129 54.0298 23.8858 54.1837 23.7047C54.3376 23.5236 54.5474 23.3989 54.78 23.3503C57.7 22.8903 60.32 22.5003 63.16 21.8103H63.42C63.5643 21.819 63.7053 21.8568 63.8346 21.9215C63.9639 21.9861 64.0787 22.0763 64.1722 22.1866C64.2656 22.2969 64.3358 22.425 64.3784 22.5631C64.421 22.7012 64.4351 22.8466 64.42 22.9903C63.8948 26.9283 63.6375 30.8975 63.65 34.8703C63.65 37.2603 63.34 45.9703 67.19 45.9703C71.41 45.9403 71 36.3803 71 33.8303C70.8964 29.9971 70.5624 26.1735 70 22.3803C69.9979 22.1362 70.0853 21.8997 70.2455 21.7155C70.4058 21.5313 70.6279 21.412 70.87 21.3803C73.64 20.8403 76.03 20.3003 78.79 19.7603C78.8942 19.7152 79.0064 19.6914 79.12 19.6903C79.76 19.6903 80.12 20.4303 80.12 20.7603C80.12 22.9203 80.12 25.0603 80.12 27.2103C81.59 22.2103 86.79 19.2903 92 19.2903C95.0597 19.3429 98.0431 20.2542 100.61 21.9203C100.763 22.0663 100.878 22.2471 100.946 22.4474C101.014 22.6477 101.033 22.8614 101 23.0703L97.85 29.3203C97.5976 29.5618 97.2685 29.7069 96.92 29.7303C96.7255 29.7289 96.5364 29.6659 96.38 29.5503C95.0457 28.7528 93.5484 28.2674 92 28.1303C90.23 28.1303 88.62 29.2903 88.62 30.4403C88.5717 30.9061 88.6537 31.3761 88.8567 31.7981C89.0597 32.2201 89.3759 32.5774 89.77 32.8303C94.66 35.7403 102.19 36.9103 102.3 44.1703V44.0903C102.379 43.9149 102.507 43.7659 102.668 43.6612C102.829 43.5566 103.018 43.5007 103.21 43.5003C103.4 43.5015 103.587 43.5424 103.76 43.6203C105.76 44.7003 108.22 46.1703 110.6 46.1703C112.22 46.1703 114.14 45.4003 114.14 43.7803C114.14 41.3903 108.76 40.3903 107.07 39.6203C103.22 37.9203 101.3 34.0703 101.3 30.0603C101.3 23.3503 107.45 19.2603 113.6 19.2603C116.663 19.3148 119.649 20.2259 122.22 21.8903C122.37 22.0382 122.482 22.2196 122.549 22.4195C122.615 22.6195 122.632 22.8322 122.6 23.0403L119.45 29.2903C119.199 29.5332 118.869 29.6786 118.52 29.7003C118.328 29.7003 118.142 29.6371 117.99 29.5203C116.649 28.7345 115.149 28.2595 113.6 28.1303C111.83 28.1303 110.22 29.2903 110.22 30.4403C110.174 30.9058 110.257 31.3751 110.46 31.7966C110.663 32.2181 110.978 32.5757 111.37 32.8303C116.33 35.7603 124 36.9203 124 44.3203C124 51.4903 115.69 54.2603 110 54.2603C107.16 54.2603 102.85 53.3403 100.31 51.4903C100.162 51.3242 100.063 51.1209 100.022 50.9023C99.9818 50.6838 100.002 50.4583 100.08 50.2503V50.3803L100.28 49.8303C97.45 52.9903 92.28 54.3103 88.37 54.3103C85.52 54.3103 81.22 53.3903 78.68 51.5403C78.5304 51.3753 78.4296 51.172 78.389 50.953C78.3483 50.734 78.3695 50.508 78.45 50.3003V50.3803L80.75 44.1403C80.8296 43.9633 80.9589 43.8133 81.1223 43.7085C81.2856 43.6037 81.4759 43.5488 81.67 43.5503C81.8597 43.5515 82.047 43.5924 82.22 43.6703C84.22 44.7503 86.68 46.2203 89.06 46.2203C90.68 46.2203 92.6 45.4503 92.6 43.8303C92.6 41.4403 87.22 40.4403 85.52 39.6703C84.1934 39.0678 83.0214 38.1712 82.0927 37.0484C81.164 35.9257 80.5031 34.6064 80.16 33.1903C80.16 33.4203 80.16 33.6503 80.16 33.8803C80.09 42.8803 78.78 55.1603 66.7 55.1603C57.7 55.1603 55.09 46.1603 54.31 37.6103H54.16C49.23 38.1503 44.16 38.6103 38.77 39.0803C38.84 41.7403 41.39 43.3203 44.06 43.3203C44.3948 43.3176 44.729 43.2909 45.06 43.2403C46.6994 43.0467 48.2621 42.4374 49.6 41.4703C49.7523 41.3942 49.9198 41.3532 50.09 41.3503C50.3024 41.3531 50.5094 41.4168 50.6867 41.5338C50.8639 41.6508 51.0039 41.8162 51.09 42.0103C51.94 44.1603 52.7 46.4003 53.55 48.6303C53.5751 48.8434 53.5374 49.0591 53.4414 49.251C53.3455 49.4429 53.1955 49.6026 53.01 49.7103C50.63 51.2603 46.17 52.2603 42.94 52.2603C36 52.2603 31.46 47.8703 29.4 42.3803C28 50.9203 17.07 53.3803 10.1 53.3803C7.99002 53.3386 5.88373 53.1851 3.79 52.9203C3.54963 52.8744 3.33041 52.7525 3.16473 52.5724C2.99905 52.3923 2.89571 52.1637 2.87 51.9203L2.64 46.5203C2.56 45.3703 2.41 44.2903 2.33 43.2103C2.33 42.8003 2.73 42.0303 3.33 42.0303C3.55575 42.0423 3.77077 42.1304 3.94 42.2803C6.64 43.5903 8.17 43.7503 11.56 43.7503C13.48 43.7503 17.63 43.4403 17.63 40.8203C17.63 34.9603 1.71 36.8203 1.71 22.7003C1.84484 20.6263 2.47957 18.6158 3.56 16.8403C7.87 9.91031 15.86 8.29031 23.17 8.29031V8.32031ZM38 32.4503C40.62 32.2903 43 32.0603 45.77 31.7503C45.28 29.7503 44.4 27.9303 42.2 27.9303C41.979 27.9278 41.7581 27.9445 41.54 27.9803C40.5263 28.2054 39.6209 28.7726 38.9762 29.5867C38.3315 30.4008 37.9868 31.412 38 32.4503V32.4503ZM23.17 7.82031C13.36 7.82031 6.81 10.6903 3.17 16.6103C2.04327 18.4645 1.38433 20.5648 1.25 22.7303C1.25 31.6303 7.49 34.4703 12.05 36.5403C14.91 37.8503 17.17 38.8703 17.17 40.8503C17.17 43.1003 12.91 43.2803 11.6 43.2803C8.36 43.2803 6.88 43.1603 4.25 41.8903C4.00346 41.6822 3.6926 41.5656 3.37 41.5603C3.14414 41.5686 2.92359 41.6311 2.72693 41.7425C2.53027 41.8539 2.36327 42.0109 2.24 42.2003C2.02424 42.4918 1.8959 42.8386 1.87 43.2003C1.87 43.7503 1.96 44.2703 2.02 44.8003C2.08 45.3303 2.14 45.9503 2.18 46.5503L2.41 51.9303C2.43812 52.2894 2.58515 52.629 2.82783 52.8952C3.07051 53.1614 3.395 53.3392 3.75 53.4003C5.86999 53.6719 8.00309 53.8288 10.14 53.8703C16.41 53.8703 27.14 51.7303 29.58 43.8703C30.686 46.4893 32.5415 48.7229 34.9132 50.2904C37.2849 51.8579 40.0671 52.6894 42.91 52.6803C45.91 52.6803 50.59 51.7603 53.23 50.0703C53.4789 49.9249 53.6825 49.7133 53.8185 49.4591C53.9544 49.2049 54.0172 48.918 54 48.6303C54.0103 48.5741 54.0103 48.5165 54 48.4603C53.64 47.5103 53.3 46.5703 53 45.6303C52.54 44.3703 52.07 43.0703 51.57 41.8203C51.453 41.5338 51.2558 41.2871 51.0022 41.1098C50.7486 40.9324 50.4493 40.8319 50.14 40.8203C49.8982 40.8255 49.66 40.88 49.44 40.9803L49.34 41.0403C48.0677 41.9783 46.5708 42.5646 45 42.7403C44.6694 42.794 44.3349 42.8207 44 42.8203C41.88 42.8203 39.6 41.6703 39.26 39.5303C43.67 39.1503 48.78 38.6903 53.8 38.1503C55 49.9003 59.2 55.6103 66.64 55.6103C78.19 55.6103 80.28 44.7303 80.57 35.6803C81.5938 37.6341 83.251 39.182 85.27 40.0703C85.69 40.2603 86.27 40.4603 87.01 40.6903C89.01 41.3403 92.01 42.3103 92.01 43.7803C92.01 45.2503 90.15 45.6703 89.01 45.6703C86.96 45.6703 84.82 44.5003 82.93 43.4703L82.4 43.1803C82.157 43.0619 81.8903 43.0003 81.62 43.0003C81.3345 42.9972 81.0542 43.0767 80.8129 43.2293C80.5716 43.3819 80.3796 43.6011 80.26 43.8603V43.9103L78.03 49.9103C77.9976 49.9499 77.9707 49.9936 77.95 50.0403C77.8374 50.3379 77.8096 50.6609 77.8696 50.9734C77.9296 51.2859 78.0752 51.5756 78.29 51.8103H78.35C80.94 53.7003 85.35 54.6803 88.35 54.6803C91.69 54.6803 96.35 53.6803 99.55 51.0803C99.6151 51.3385 99.75 51.5738 99.94 51.7603H100C102.58 53.6503 107 54.6303 110 54.6303C115.61 54.6303 124.5 51.8003 124.5 44.1903C124.5 38.1903 119.7 36.0403 115.5 34.1303C114.192 33.6193 112.913 33.0351 111.67 32.3803C111.348 32.1635 111.093 31.8618 110.933 31.5088C110.772 31.1558 110.712 30.7652 110.76 30.3803C110.76 29.5703 112.09 28.5703 113.64 28.5703C115.097 28.703 116.506 29.1536 117.77 29.8903C118.002 30.0515 118.277 30.1386 118.56 30.1403C119.04 30.1136 119.495 29.9148 119.84 29.5803C119.879 29.5438 119.909 29.4995 119.93 29.4503L123.09 23.2103C123.105 23.1344 123.105 23.0562 123.09 22.9803C123.124 22.6944 123.09 22.4044 122.989 22.1347C122.888 21.865 122.724 21.6234 122.51 21.4303C119.854 19.6955 116.762 18.7489 113.59 18.7003C107.3 18.7003 100.79 22.9303 100.79 30.0003C100.709 32.0775 101.241 34.1326 102.318 35.9104C103.395 37.6883 104.971 39.1104 106.85 40.0003C107.27 40.1903 107.85 40.3903 108.59 40.6203C110.59 41.2703 113.59 42.2403 113.59 43.7103C113.59 45.1803 111.73 45.6003 110.59 45.6003C108.59 45.6003 106.4 44.4303 104.51 43.4003L104 43.1803C103.754 43.0617 103.484 43.0002 103.21 43.0003C103.034 43.0009 102.858 43.0279 102.69 43.0803C102.08 38.0303 97.69 36.0303 93.69 34.2603C92.4269 33.701 91.195 33.0734 90 32.3803C89.6784 32.1635 89.4232 31.8618 89.2626 31.5088C89.1019 31.1558 89.0422 30.7652 89.09 30.3803C89.09 29.5703 90.42 28.5703 91.97 28.5703C93.4238 28.7015 94.8306 29.1523 96.09 29.8903C96.3257 30.0517 96.6043 30.1388 96.89 30.1403C97.3701 30.1136 97.8245 29.9148 98.17 29.5803C98.2088 29.5438 98.2394 29.4995 98.26 29.4503L101.42 23.2103C101.452 23.1378 101.469 23.0596 101.47 22.9803C101.505 22.6935 101.469 22.4025 101.367 22.1324C101.264 21.8623 101.097 21.6214 100.88 21.4303C98.2309 19.7209 95.1525 18.7953 92 18.7603C89.7407 18.6997 87.5042 19.225 85.5082 20.2852C83.5122 21.3454 81.8247 22.9044 80.61 24.8103C80.61 23.4503 80.61 22.0903 80.61 20.7303C80.597 20.3332 80.4395 19.9545 80.1669 19.6654C79.8944 19.3763 79.5257 19.1967 79.13 19.1603C78.9735 19.1634 78.8184 19.1904 78.67 19.2403C77.3 19.5103 76.02 19.7803 74.74 20.0503C73.46 20.3203 72.17 20.5903 70.74 20.8503C70.3788 20.9118 70.0511 21.0991 69.815 21.3792C69.5788 21.6593 69.4495 22.014 69.45 22.3803V22.4403L69.66 24.1303C70.1247 27.3307 70.3885 30.557 70.45 33.7903C70.45 33.9903 70.45 34.2403 70.45 34.5103C70.45 37.0103 70.54 42.8703 68.63 44.8003C68.4545 44.9909 68.241 45.1428 68.0034 45.2461C67.7657 45.3494 67.5091 45.402 67.25 45.4003C67.0173 45.4027 66.7865 45.3579 66.5717 45.2685C66.3568 45.1791 66.1623 45.047 66 44.8803C64.2 43.0703 64.23 37.4503 64.25 35.3403V34.8403C64.232 30.8912 64.4826 26.9454 65 23.0303V22.9603C65.015 22.7467 64.9862 22.5324 64.9153 22.3304C64.8444 22.1283 64.7329 21.943 64.5878 21.7856C64.4426 21.6283 64.2668 21.5023 64.0711 21.4154C63.8754 21.3285 63.6641 21.2825 63.45 21.2803C63.3305 21.2656 63.2095 21.2656 63.09 21.2803C60.52 21.9003 58.09 22.2803 55.56 22.6803L54.73 22.8203C54.3664 22.8866 54.0382 23.0798 53.8038 23.3655C53.5694 23.6512 53.444 24.0108 53.45 24.3803C53.45 25.1403 53.4 26.1103 53.4 27.2103C51.14 22.0803 47.27 19.3803 42.08 19.3803C41.4113 19.3818 40.7433 19.4252 40.08 19.5103C31.95 20.5103 28.08 27.3403 27.73 34.1503C25.61 31.7503 22.39 30.2203 19.5 28.8403C18.92 28.5703 18.36 28.3103 17.82 28.0403L17.55 27.9003C15.73 26.9603 13.25 25.6703 13.25 23.5503C13.25 19.9903 20.52 19.8103 21.98 19.8103C22.67 19.8103 24.4 19.9503 25.66 20.0403L26.66 20.1203H26.84C27.062 20.1202 27.2812 20.0708 27.4818 19.9757C27.6824 19.8806 27.8594 19.7421 28 19.5703C28.1243 19.4016 28.208 19.2063 28.2444 18.9999C28.2809 18.7935 28.2691 18.5814 28.21 18.3803C28.1852 15.4357 28.312 12.4918 28.59 9.56031V9.55031C28.598 9.34738 28.5653 9.14491 28.4938 8.95483C28.4223 8.76476 28.3134 8.59095 28.1735 8.44366C28.0337 8.29638 27.8658 8.17861 27.6797 8.09731C27.4936 8.01601 27.2931 7.97283 27.09 7.97031C26.45 7.97031 25.8 7.97031 25.16 7.90031C24.52 7.83031 23.84 7.82031 23.16 7.82031H23.17ZM38.57 31.9103C38.6596 31.0994 38.995 30.3353 39.5312 29.7204C40.0674 29.1055 40.7788 28.6693 41.57 28.4703C41.7698 28.4564 41.9702 28.4564 42.17 28.4703C43.62 28.4703 44.52 29.3403 45.11 31.3603C42.48 31.6503 40.5 31.8203 38.52 31.9503L38.57 31.9103Z" fill="black"/>
<path d="M135 21.2303C135.26 21.2468 135.505 21.3574 135.689 21.5415C135.873 21.7256 135.984 21.9705 136 22.2303C135.61 32.4103 135.3 41.8903 135 52.1403C135.001 52.3938 134.905 52.6381 134.732 52.8237C134.56 53.0094 134.323 53.1225 134.07 53.1403C132.07 53.3003 129.69 53.3703 127 53.5303C126.724 53.5533 126.45 53.4697 126.235 53.2967C126.019 53.1236 125.878 52.8744 125.84 52.6003C125.77 51.5203 125.77 50.5203 125.77 49.6003C125.77 49.4403 125.31 33.9503 125.07 22.6003C125.075 22.3155 125.191 22.0437 125.392 21.8423C125.594 21.6408 125.865 21.5254 126.15 21.5203C127.77 21.4403 129.38 21.5203 131 21.4403C132.3 21.4403 133.46 21.2903 134.77 21.2103C134.859 21.1957 134.951 21.1957 135.04 21.2103L135 21.2303ZM135.04 20.7103C134.921 20.6955 134.8 20.6955 134.68 20.7103L133.39 20.8103C132.59 20.8803 131.83 20.9403 131 20.9403C130.17 20.9403 129.36 20.9403 128.57 20.9403C127.78 20.9403 126.95 20.9403 126.13 20.9403C125.716 20.9506 125.322 21.121 125.031 21.4156C124.74 21.7103 124.575 22.1062 124.57 22.5203C124.76 31.8203 125.11 44.0403 125.23 48.0603C125.23 48.9303 125.23 49.4503 125.23 49.5003C125.23 50.4103 125.23 51.4403 125.31 52.5003C125.308 52.7174 125.351 52.9326 125.437 53.132C125.523 53.3315 125.649 53.5109 125.808 53.6586C125.967 53.8064 126.155 53.9194 126.361 53.9902C126.566 54.0611 126.784 54.0884 127 54.0703L130.06 53.9103C131.52 53.8403 132.89 53.7803 134.11 53.6803C134.493 53.6647 134.854 53.4981 135.115 53.217C135.375 52.936 135.514 52.5632 135.5 52.1803C135.85 40.3603 136.15 31.4103 136.5 22.2903C136.503 21.886 136.348 21.4966 136.067 21.2052C135.787 20.9137 135.404 20.7433 135 20.7303L135.04 20.7103Z" fill="black"/>
<path d="M129.23 5.84961C130.781 5.94079 132.246 6.5942 133.351 7.68754C134.455 8.78089 135.123 10.2392 135.23 11.7896C135.204 13.4412 134.526 15.0154 133.344 16.1692C132.162 17.3231 130.572 17.963 128.92 17.9496C125.69 17.9496 123.38 14.4096 123.38 11.7096C123.415 10.1683 124.043 8.69984 125.132 7.60876C126.221 6.51768 127.689 5.88774 129.23 5.84961V5.84961ZM129.23 5.34961C127.551 5.37294 125.948 6.05081 124.762 7.2388C123.576 8.42679 122.901 10.031 122.88 11.7096C122.88 14.8296 125.52 18.4496 128.88 18.4496C130.665 18.4656 132.384 17.7739 133.66 16.5257C134.936 15.2775 135.666 13.5746 135.69 11.7896C135.572 10.12 134.852 8.54991 133.664 7.37099C132.476 6.19206 130.9 5.48446 129.23 5.37961V5.34961Z" fill="black"/>
<path d="M176.22 2.50038C176.359 2.48784 176.498 2.50441 176.63 2.54903C176.762 2.59364 176.883 2.66531 176.986 2.75945C177.089 2.85358 177.17 2.96812 177.226 3.0957C177.282 3.22329 177.31 3.36113 177.31 3.50038C177.13 12.7904 176.87 22.0904 176.74 31.3804C177.89 25.6604 181.67 20.7904 188.29 20.0004C188.953 19.9134 189.621 19.8699 190.29 19.8704C196.8 19.8704 200.23 24.1404 201.91 29.3204C202.32 23.0304 208.24 19.2204 214.17 19.2204C217.232 19.2749 220.219 20.1859 222.79 21.8504C223.1 22.0804 223.17 22.4604 223.17 23.0004L220 29.2904C219.752 29.5318 219.426 29.6772 219.08 29.7004C218.885 29.7004 218.696 29.6372 218.54 29.5204C217.2 28.7333 215.699 28.2582 214.15 28.1304C212.39 28.1304 210.77 29.2904 210.77 30.4404C210.724 30.9059 210.807 31.3751 211.01 31.7967C211.213 32.2182 211.527 32.5758 211.92 32.8304C216.85 35.7604 224.46 36.9204 224.46 44.3204C224.46 51.4904 216.15 54.2604 210.46 54.2604C207.62 54.2604 203.31 53.3404 200.77 51.4904C200.625 51.3226 200.527 51.1194 200.487 50.9015C200.447 50.6836 200.465 50.4589 200.54 50.2504V50.3804L200.68 50.0204C197.686 51.4963 194.398 52.279 191.06 52.3104C182.78 52.3104 177.87 45.9304 176.65 38.8404C176.65 43.0504 176.65 47.2504 176.65 51.4604C176.63 51.7327 176.507 51.9873 176.307 52.1728C176.106 52.3584 175.843 52.4611 175.57 52.4604C174.91 52.4604 173.01 52.4604 171.23 52.4604C170.34 52.4604 169.47 52.4604 168.81 52.4604C168.558 52.4612 168.315 52.3669 168.13 52.1963C167.944 52.0258 167.83 51.7915 167.81 51.5404C167.58 47.9104 167.5 44.1404 167.35 40.5404C167.35 39.9704 167.35 39.3604 167.35 38.7404C166.35 45.9904 161.25 51.9504 152.76 51.9504C151.023 51.8967 149.307 51.5588 147.68 50.9504V54.0304C147.683 54.1792 147.655 54.327 147.598 54.4642C147.54 54.6015 147.454 54.725 147.346 54.8269C147.237 54.9288 147.109 55.0067 146.968 55.0555C146.827 55.1044 146.678 55.1231 146.53 55.1104C144.53 54.7304 142.38 54.4204 140.84 53.9604C140.65 53.8808 140.489 53.7446 140.38 53.5704L140.3 53.4904C138.91 38.0004 138.22 20.9604 138.22 5.70038C138.243 5.45722 138.326 5.22362 138.462 5.02096C138.598 4.81831 138.783 4.65307 139 4.54038C142.23 3.85038 144.31 3.46038 147.31 2.61038H147.53C148.01 2.61038 148.87 2.83038 148.62 3.79038C148.38 9.88038 148.31 15.7904 148.38 22.1404C149.963 21.4823 151.666 21.1654 153.38 21.2104C160.79 21.2104 165.91 26.8504 167.2 33.0904C166.92 22.5304 166.59 9.61038 166.41 5.79038C166.39 5.62343 166.404 5.45428 166.451 5.29274C166.497 5.1312 166.575 4.98049 166.68 4.84933C166.785 4.71818 166.916 4.60919 167.063 4.52869C167.211 4.44819 167.373 4.39778 167.54 4.38038C169.69 3.84038 173.61 3.22038 175.92 2.53038C176.019 2.51529 176.12 2.51529 176.22 2.53038V2.50038ZM186.22 32.5304C188.83 32.3704 191.22 32.1404 193.98 31.8304C193.49 29.8304 192.61 28.0104 190.41 28.0104C190.189 28.0088 189.968 28.0255 189.75 28.0604C188.738 28.2874 187.835 28.8555 187.192 29.6694C186.55 30.4833 186.206 31.4934 186.22 32.5304V32.5304ZM152.59 43.7004C155.82 43.7004 157.75 40.3104 157.75 37.3804C157.75 34.9104 155.67 31.2904 153.06 31.2904C149.44 31.2904 148.06 33.3704 148.29 37.8404C148.52 41.7704 149.29 43.7004 152.59 43.7004ZM192.19 43.3204C192.525 43.3177 192.859 43.2909 193.19 43.2404C194.829 43.0467 196.392 42.4375 197.73 41.4704C197.883 41.3952 198.05 41.3543 198.22 41.3504C198.432 41.3532 198.639 41.4169 198.817 41.5339C198.994 41.6508 199.134 41.8162 199.22 42.0104C199.98 43.9404 200.69 45.9404 201.43 47.9504L202.86 44.0904C202.939 43.9149 203.067 43.7659 203.228 43.6613C203.389 43.5567 203.578 43.5008 203.77 43.5004C203.96 43.5004 204.147 43.5413 204.32 43.6204C206.32 44.7004 208.78 46.1704 211.17 46.1704C212.78 46.1704 214.7 45.4004 214.7 43.7804C214.7 41.3904 209.32 40.3904 207.63 39.6204C205.689 38.7538 204.101 37.2511 203.13 35.3604C203.183 35.775 203.213 36.1924 203.22 36.6104C203.221 36.8623 203.126 37.1052 202.956 37.2906C202.785 37.476 202.551 37.5902 202.3 37.6104C197.38 38.1504 192.3 38.6104 186.92 39.0804C186.99 41.7404 189.53 43.3204 192.2 43.3204H192.19ZM176.2 2.00038C176.064 1.98633 175.926 1.98633 175.79 2.00038C174.42 2.41038 172.53 2.78038 170.71 3.15038C169.47 3.39038 168.29 3.63038 167.4 3.85038C166.946 3.90564 166.531 4.13648 166.246 4.49347C165.96 4.85046 165.825 5.30521 165.87 5.76038C166.03 9.03038 166.29 18.9904 166.55 28.6104V29.6104C164.43 24.8704 159.89 20.6104 153.32 20.6104C151.793 20.5864 150.272 20.8162 148.82 21.2904C148.75 15.2904 148.82 9.66038 149.05 3.76038C149.11 3.56328 149.124 3.3548 149.089 3.15163C149.054 2.94846 148.972 2.75624 148.85 2.59038C148.676 2.39929 148.462 2.24842 148.224 2.14826C147.986 2.0481 147.728 2.00105 147.47 2.01038C147.357 1.99732 147.243 1.99732 147.13 2.01038C144.72 2.69038 142.91 3.07038 140.62 3.55038L138.84 3.93038C138.777 3.9449 138.716 3.96847 138.66 4.00038C138.382 4.14805 138.145 4.36241 137.971 4.62422C137.796 4.88604 137.689 5.1871 137.66 5.50038C137.66 21.3504 138.4 38.3404 139.74 53.3404C139.75 53.4587 139.803 53.5692 139.89 53.6504C140.045 53.875 140.26 54.0517 140.51 54.1604H140.59C141.908 54.5126 143.243 54.7963 144.59 55.0104L146.3 55.3204H146.4C146.614 55.3313 146.827 55.2984 147.028 55.2238C147.228 55.1491 147.411 55.0343 147.566 54.8864C147.72 54.7384 147.843 54.5604 147.926 54.3634C148.009 54.1663 148.052 53.9543 148.05 53.7404V51.5604C149.528 52.0554 151.072 52.3284 152.63 52.3704C155.787 52.5029 158.902 51.5981 161.496 49.7941C164.091 47.9902 166.024 45.3863 167 42.3804C167 42.9804 167 43.5904 167.07 44.2004C167.15 46.6104 167.24 49.0904 167.39 51.4804C167.431 51.8539 167.605 52.2001 167.88 52.4555C168.156 52.7108 168.514 52.8581 168.89 52.8704C169.47 52.8704 170.27 52.8704 171.31 52.8704C172.35 52.8704 173.57 52.8704 174.44 52.8704H175.65C176.055 52.8685 176.444 52.7122 176.737 52.4335C177.031 52.1548 177.207 51.7746 177.23 51.3704C177.23 48.5504 177.17 45.6204 177.18 42.4604C179.18 47.7604 183.58 52.7204 191.1 52.7204C194.157 52.6857 197.179 52.0609 200 50.8804C200.024 51.2552 200.18 51.6095 200.44 51.8804H200.5C203.08 53.7704 207.5 54.7504 210.5 54.7504C216.11 54.7504 225 51.9204 225 44.3104C225 38.3104 220.2 36.1604 216 34.2504C214.693 33.6979 213.418 33.0736 212.18 32.3804C211.86 32.162 211.606 31.8601 211.446 31.5075C211.285 31.1549 211.224 30.7651 211.27 30.3804C211.27 29.5704 212.6 28.5704 214.15 28.5704C215.607 28.703 217.016 29.1536 218.28 29.8904C218.516 30.0517 218.794 30.1388 219.08 30.1404C219.558 30.1177 220.011 29.9181 220.35 29.5804C220.389 29.5415 220.422 29.4978 220.45 29.4504L223.6 23.2104C223.632 23.1378 223.649 23.0596 223.65 22.9804C223.684 22.6945 223.65 22.4045 223.549 22.1348C223.448 21.8651 223.284 21.6235 223.07 21.4304C220.415 19.6946 217.322 18.7479 214.15 18.7004C207.28 18.7004 202.9 22.8904 201.71 27.3804C199.46 22.1204 195.54 19.3804 190.27 19.3804C189.601 19.3821 188.933 19.4255 188.27 19.5104C185.858 19.7763 183.565 20.6954 181.637 22.1686C179.709 23.6418 178.22 25.6132 177.33 27.8704C177.41 23.3704 177.51 18.8704 177.61 14.4404C177.69 10.8004 177.78 7.16038 177.85 3.52038C177.854 3.31223 177.816 3.10541 177.737 2.91274C177.658 2.72008 177.54 2.54567 177.391 2.40034C177.242 2.25502 177.065 2.14186 176.87 2.0679C176.676 1.99394 176.468 1.96075 176.26 1.97038L176.2 2.00038ZM186.75 31.9104C186.839 31.0995 187.175 30.3353 187.711 29.7205C188.247 29.1056 188.959 28.6694 189.75 28.4704C189.946 28.4565 190.143 28.4565 190.34 28.4704C191.8 28.4704 192.69 29.3404 193.28 31.3604C190.66 31.6504 188.67 31.8204 186.7 31.9504L186.75 31.9104ZM152.59 43.2004C149.89 43.2004 149.03 41.9904 148.79 37.8104C148.66 35.4004 149.03 33.8104 149.91 32.8104C150.334 32.4262 150.832 32.1337 151.374 31.9513C151.916 31.7689 152.49 31.7005 153.06 31.7504C155.37 31.7504 157.25 35.1304 157.25 37.3404C157.25 40.1504 155.38 43.1604 152.59 43.1604V43.2004ZM187.45 39.5304C191.97 39.1404 197.21 38.6704 202.34 38.1104C202.629 38.0873 202.905 37.9804 203.134 37.8027C203.363 37.6251 203.535 37.3845 203.63 37.1104C204.615 38.4185 205.92 39.4515 207.42 40.1104C207.985 40.3473 208.563 40.5542 209.15 40.7304C211.15 41.3804 214.15 42.3504 214.15 43.8204C214.15 45.2904 212.29 45.7104 211.15 45.7104C209.09 45.7104 206.96 44.5404 205.07 43.5104L204.54 43.2204C204.294 43.1008 204.024 43.0392 203.75 43.0404C203.464 43.0373 203.184 43.1168 202.943 43.2694C202.702 43.422 202.509 43.6411 202.39 43.9004C202.39 43.9004 202.39 43.9004 202.39 43.9504L201.39 46.5504L201.1 45.7404C200.63 44.4604 200.15 43.1404 199.65 41.8604C199.529 41.5745 199.33 41.3288 199.075 41.1518C198.82 40.9748 198.52 40.8737 198.21 40.8604C197.971 40.8656 197.736 40.92 197.52 41.0204C197.482 41.0305 197.447 41.0513 197.42 41.0804C196.151 41.9995 194.667 42.5748 193.11 42.7504C192.796 42.8022 192.478 42.829 192.16 42.8304C190.04 42.8304 187.76 41.6804 187.42 39.5404L187.45 39.5304Z" fill="black"/>
<path d="M234.85 0.5C235.019 0.503141 235.186 0.540563 235.34 0.61C237.41 1.23 242.03 2.69 245.49 3.61C245.75 3.69936 245.967 3.88469 246.095 4.12815C246.223 4.37161 246.254 4.65484 246.18 4.92C242.87 15.79 239.64 27.66 237.64 37.52C237.595 37.7511 237.471 37.9591 237.288 38.1072C237.105 38.2554 236.875 38.3343 236.64 38.33C236.557 38.3436 236.473 38.3436 236.39 38.33C235.39 38.26 234.39 37.95 233.47 37.95C233.24 37.95 232.32 38.03 231.78 38.03C231.635 38.0421 231.489 38.0225 231.353 37.9726C231.216 37.9226 231.092 37.8434 230.989 37.7406C230.887 37.6378 230.807 37.5138 230.757 37.3772C230.708 37.2407 230.688 37.0949 230.7 36.95C232 25.2 233 11.25 234 1.3C234.24 0.84 234.47 0.5 234.9 0.5H234.85ZM234.9 0C234.587 0.0205191 234.287 0.134373 234.039 0.326876C233.792 0.519378 233.607 0.781699 233.51 1.08C233.481 1.13669 233.461 1.19735 233.45 1.26C233.14 4.68 232.81 8.57 232.45 12.69C231.8 20.42 231.06 29.18 230.21 36.86C230.205 36.8797 230.205 36.9003 230.21 36.92C230.206 37.1286 230.244 37.3359 230.322 37.5294C230.4 37.723 230.516 37.8988 230.664 38.0463C230.811 38.1939 230.987 38.3101 231.181 38.388C231.374 38.466 231.581 38.5041 231.79 38.5C232.13 38.5 232.6 38.5 232.98 38.5H233.48C233.991 38.5182 234.5 38.5818 235 38.69C235.43 38.76 235.88 38.84 236.33 38.88C236.436 38.8904 236.544 38.8904 236.65 38.88C236.999 38.8758 237.336 38.7526 237.605 38.5307C237.874 38.3088 238.059 38.0016 238.13 37.66C240.41 26.38 244 13.72 246.66 5.07C246.774 4.68277 246.734 4.26636 246.547 3.90831C246.361 3.55026 246.043 3.27845 245.66 3.15C243.12 2.46 239.99 1.5 237.66 0.8L235.44 0.13C235.24 0.0476618 235.026 0.00356635 234.81 0H234.9Z" fill="black"/>
<path d="M233.11 41.47C233.899 41.4486 234.685 41.5857 235.421 41.8731C236.156 42.1605 236.827 42.5925 237.393 43.1434C237.959 43.6944 238.408 44.3531 238.715 45.0808C239.022 45.8085 239.18 46.5903 239.18 47.38C239.18 50.93 235.64 52.85 232.72 52.85C230.11 52.85 226.88 50.93 226.88 47.54C226.867 46.7248 227.021 45.9155 227.331 45.1616C227.641 44.4077 228.102 43.7249 228.685 43.155C229.268 42.5851 229.961 42.14 230.722 41.8468C231.483 41.5537 232.295 41.4187 233.11 41.45V41.47ZM233.11 40.95C232.23 40.9202 231.353 41.0692 230.532 41.388C229.711 41.7068 228.964 42.1889 228.335 42.8049C227.706 43.4209 227.208 44.1582 226.872 44.9721C226.536 45.786 226.369 46.6596 226.38 47.54C226.412 48.34 226.602 49.1258 226.938 49.8524C227.274 50.579 227.75 51.2322 228.339 51.7746C228.928 52.3171 229.618 52.7381 230.37 53.0135C231.121 53.289 231.92 53.4135 232.72 53.38C236.07 53.38 239.72 51.1 239.72 47.38C239.72 46.5237 239.549 45.676 239.217 44.8866C238.886 44.0972 238.399 43.3821 237.787 42.7831C237.175 42.1842 236.45 41.7135 235.654 41.3987C234.857 41.0839 234.006 40.9314 233.15 40.95H233.11Z" fill="black"/>
</g>
<defs>
<clipPath id="clip0_750_4504">
<rect width="257" height="56.38" fill="white"/>
</clipPath>
</defs>
</svg>
