<svg width="289" height="96" viewBox="0 0 289 96" fill="none" xmlns="http://www.w3.org/2000/svg">
<path fill-rule="evenodd" clip-rule="evenodd" d="M63.5917 27.7973C67.6717 26.6457 74.541 24.9762 81.6088 29.8624C90.2797 35.8617 91.995 48.8959 88.8931 59.6591C88.8931 59.6591 85.9963 72.7914 71.9973 76.2494C63.4371 78.3644 56.104 76.4939 53.8452 75.9808C52.1527 75.5932 52.0697 75.5192 52.0306 73.2434C51.9915 70.9 51.282 65.2208 51.1632 64.4649C51.3194 64.2027 51.7995 64.021 53.0868 64.4697C55.3131 65.2433 55.9527 65.2803 57.0121 64.9763C58.3466 64.5952 57.886 61.869 57.886 61.869C57.886 61.869 57.7103 52.3716 57.3408 49.8786C56.9698 47.3808 56.5678 42.6892 55.995 42.4029C55.4238 42.1182 54.5629 42.3981 54.182 42.731C53.8029 43.0655 50.9663 45.1725 50.5773 45.3478C50.1884 45.5247 49.7815 45.3896 49.6302 43.9823C49.4756 42.5798 48.1183 36.3619 48.0142 35.8954C47.91 35.4306 48.3771 35.2489 49.539 34.5653C50.6945 33.8737 59.4077 28.9762 63.5917 27.7973ZM215.304 44.8637C217.729 40.2705 222.561 40.5009 224.594 40.8294C227.548 41.3103 229.798 43.599 230.628 44.5625L230.661 44.5994C231.1 45.1045 231.278 45.5596 231.188 45.9601C231.083 46.433 230.646 46.6324 230.672 46.6131C230.591 46.6855 228.653 48.4418 228.238 48.7603L228.161 48.8198C227.671 49.1929 227.248 49.5162 226.75 48.8777C226.116 48.0719 223.681 46.4314 222.368 46.9477C221.686 47.213 220.871 47.8033 220.618 48.6541C220.403 49.3715 220.612 50.174 221.235 51.0377C222.374 52.6091 223.99 53.5693 225.551 54.499C227.671 55.7615 229.673 56.9565 230.519 59.5122C231.079 61.2251 230.601 65.1946 228.225 68.1958C226.871 69.9055 224.404 71.8774 220.333 71.5846C217.298 71.3675 213.868 69.8798 212.844 68.9518C211.884 68.0832 211.858 67.4029 212.746 66.2449C213.367 65.4375 213.892 64.0639 214.239 63.1552L214.553 62.3655C214.696 62.0486 214.83 61.8412 215.048 61.7816C215.345 61.7044 215.664 61.936 216.245 62.3526C216.82 62.7676 219.796 64.762 221.782 63.279C222.716 62.5762 223.224 61.5709 223.181 60.5175C223.139 59.4608 222.537 57.8556 219.927 56.2215C217.136 54.4732 212.952 50.2545 214.974 45.5532L215.304 44.8637ZM143.075 24.335C145.156 26.3969 144.416 27.1271 143.706 27.9844C143.101 28.7226 140.096 31.8525 139.673 32.1195C138.793 32.6776 138.287 31.9136 137.078 30.487C134.352 27.259 130.973 27.3925 128.929 28.6341C126.883 29.8758 125.738 34.3487 129.562 36.713C136.511 41.0105 142.956 44.9945 143.078 55.0693C143.167 62.5434 138.451 68.1341 132.059 69.9129C125.372 71.7786 119.879 69.4288 115.623 66.4099C112.574 64.2466 113.939 63.3089 114.403 62.59C114.795 61.9837 119.654 53.5092 120.128 52.9671C120.6 52.4235 121.15 51.9587 121.7 52.7339C122.252 53.5108 125.202 56.0343 127.01 56.1903C128.822 56.3479 131.377 57.0637 132.633 54.7428C133.61 52.9334 133.976 51.0001 129.079 47.6032C122.231 42.8473 116.103 40.3688 116.501 31.5067C116.898 22.6446 126.701 18.9823 131.688 18.9952C135.069 19.0048 137.942 19.2236 143.075 24.335ZM99.4558 38.5081C100.086 38.6898 100.304 40.3111 100.392 40.845C100.483 41.3806 100.302 42.7156 101.471 42.3585C102.642 42.0047 106.877 40.3143 109.759 42.7188C112.641 45.1249 112.46 46.0143 112.46 46.0143C112.46 46.0143 112.098 47.4377 110.838 48.6842C109.577 49.9307 108.854 50.4631 108.494 50.4631C108.133 50.4631 107.324 47.7932 104.535 47.256C102.393 46.8491 100.929 47.1659 101.109 48.0586C101.109 48.0586 101.125 49.1071 101.128 50.5865L101.127 51.7672C101.125 52.3884 101.121 53.0484 101.112 53.7147L101.089 55.0462C101.059 56.3668 101.009 57.6258 100.927 58.5628C100.558 62.7204 100.151 66.2315 99.6804 67.1611C99.3956 67.7176 99.7569 67.8479 98.6779 67.9364C97.5957 68.0232 92.3847 68.1407 91.8444 68.1407C91.3041 68.1407 91.0291 67.4346 91.4864 66.2685C92.139 64.5942 93.2684 57.2263 93.2684 53.7538C93.2699 50.5848 92.8074 42.8113 92.7269 41.4834L92.72 41.4001C92.6739 41.2842 92.4534 39.9926 92.8941 39.7755C93.4377 39.5069 98.8244 38.3312 99.4558 38.5081ZM197.408 42.3897C199.799 37.8959 204.092 37.1448 207.314 37.9377C209.951 38.5907 210.995 40.0415 211.495 40.7379L211.762 41.0644C212.053 41.2671 212.205 41.5083 212.206 41.7817C212.209 42.3495 211.552 42.8175 211.544 42.8224C211.529 42.8384 210.058 44.2763 209.78 44.6897C209.633 44.9213 209.446 45.1657 209.158 45.1899C208.914 45.214 208.658 45.0773 208.352 44.7588C207.589 43.9788 205.749 43.5445 204.827 44.1557C204.598 44.3069 203.845 44.8811 203.744 45.8799C203.669 46.6728 204.033 47.4754 204.834 48.2699C205.667 49.0934 206.51 49.8091 207.322 50.5071C210.099 52.8779 212.499 54.9269 211.985 59.2856C211.728 61.4698 210.569 64.463 208.086 66.3303C206.025 67.8759 203.397 68.4179 200.276 67.9386C197.273 67.4803 194.659 65.7159 193.719 64.7106L193.455 64.4372C192.781 63.7488 192.627 63.506 193.519 62.5249C194.251 61.7175 195.133 60.0078 195.66 58.9865L195.989 58.3544C196.145 58.0713 196.295 57.8751 196.51 57.8381C196.795 57.7866 197.061 58.0134 197.59 58.4637L197.883 58.7179C198.775 59.4979 200.128 60.6769 202.159 59.9241C203.096 59.5799 203.762 58.7163 203.898 57.6724C204.11 56.0641 203.101 54.3576 201.127 52.9808C196.412 49.6821 195.263 46.4171 197.408 42.3897ZM155.716 33.7619C159.945 32.7831 164.228 34.3485 167.031 42.542C167.724 44.575 167.748 46.0611 167.104 46.9683C166.34 48.041 164.871 48.0668 163.899 48.0877C163.899 48.0877 157.326 48.3933 155.3 48.271C154.161 48.1987 151.957 47.9445 151.495 48.4013C151.243 48.6506 150.768 50.029 151.027 51.4604C151.193 52.382 151.728 53.6398 153.334 54.37C156.067 55.6181 159.027 55.8239 162.14 54.9876C163.087 54.7335 164.472 54.0692 164.939 53.5272C165.239 53.1814 165.504 53.0415 165.755 53.1058C166.103 53.191 166.209 53.6398 166.217 53.6687C166.217 53.6687 166.305 53.9389 166.311 53.9663C166.393 54.4874 166.79 55.7451 167.172 56.961C167.657 58.4954 168.113 59.9446 168.113 60.403L168.225 60.9771C168.383 61.5143 168.56 62.1223 167.398 62.7705L166.817 63.113C165.125 64.1408 161.623 65.9036 156.965 65.2795C152.605 64.6957 145.379 62.5984 144.634 52.4817C144.146 45.8826 146.867 40.2758 149.577 37.2296C151.412 35.1709 153.425 33.9807 155.246 33.881L155.716 33.7619ZM173.859 37.2796L173.942 37.3141L173.982 37.3341L173.998 37.3381L173.942 37.3141L173.894 37.2901L173.998 37.3381H173.994L174.044 37.3631L173.862 37.2746C174.673 37.7201 177.194 38.5227 177.825 38.7012C178.455 38.8765 178.997 38.7913 178.365 40.0362C177.734 41.2795 175.39 47.4218 176.199 50.4472C177.01 53.4789 178.007 55.6953 182.234 55.3495C185.474 55.0841 187.459 49.7395 186.47 45.9164C185.48 42.0836 184.852 39.4137 184.58 39.0583C184.307 38.7028 184.67 38.4342 185.842 38.2557C187.012 38.0788 190.345 37.4596 190.887 37.2827C191.429 37.1025 191.967 36.9224 192.418 38.9731C192.867 41.0221 195.385 50.9039 191.691 58.2011C188.208 65.0785 180.32 67.1742 173.852 61.6671C168.882 57.4323 168.768 50.5083 169.263 46.7978C169.716 43.4138 172.061 37.8954 172.331 37.273C172.541 36.7864 173.461 37.1112 173.859 37.2796ZM108.679 57.7937C109.866 57.7744 112.282 60.1097 110.932 62.244C109.576 64.3816 107.234 64.4716 106.155 63.5806C105.076 62.6896 103.815 57.8822 108.679 57.7937ZM69.9093 36.661C67.9337 36.534 63.2223 37.6663 63.1312 38.7776C63.1227 38.8791 63.1172 39.0595 63.1141 39.2923L63.1134 40.6023C63.1224 41.9203 63.1507 43.4339 63.1507 43.4339C63.1507 43.4339 64.1727 58.7584 64.4136 60.5196C64.6544 62.2807 64.5177 62.5091 65.6667 63.0447C66.8189 63.5755 68.9589 62.9498 71.6019 61.9253C74.2448 60.9056 80.4599 56.5984 80.4436 47.6526C80.4273 38.7101 73.1414 36.8637 69.9093 36.661ZM236.83 42.7148L238.279 42.8177L238.712 44.5049L238.718 44.5065L239.374 42.8933L240.793 42.9946L240.541 46.4381L239.547 46.3674L239.724 43.9339H239.714L238.759 46.3095L238.165 46.2693L237.533 43.7795L237.524 43.7779L237.348 46.2097L236.583 46.1535L236.83 42.7148ZM233.519 42.4777L236.43 42.6852L236.381 43.3687L235.421 43.2996L235.222 46.0579L234.228 45.9888L234.428 43.2288L233.471 43.1612L233.519 42.4777ZM157.121 38.6498C154.879 38.78 153.637 40.3836 153.554 41.1733C153.554 41.1733 152.62 43.5296 152.851 43.8496C153.36 44.5637 159.297 43.9317 160.106 43.8432C160.675 43.7772 161.063 43.6035 161.26 43.3156C161.453 43.0326 160.06 38.4809 157.121 38.6498Z" fill="black"/>
</svg>
