<svg width="289" height="96" viewBox="0 0 289 96" fill="none" xmlns="http://www.w3.org/2000/svg">
<path fill-rule="evenodd" clip-rule="evenodd" d="M63.5917 27.7971C67.6717 26.6455 74.541 24.976 81.6088 29.8622C90.2797 35.8614 91.995 48.8956 88.8931 59.6588C88.8931 59.6588 85.9963 72.7912 71.9973 76.2492C63.4371 78.3642 56.104 76.4936 53.8452 75.9806C52.1527 75.5929 52.0697 75.519 52.0306 73.2431C51.9915 70.8997 51.282 65.2206 51.1632 64.4646C51.3194 64.2025 51.7995 64.0207 53.0868 64.4695C55.3131 65.2431 55.9527 65.2801 57.0121 64.9761C58.3466 64.5949 57.886 61.8687 57.886 61.8687C57.886 61.8687 57.7103 52.3713 57.3408 49.8783C56.9698 47.3805 56.5678 42.6889 55.995 42.4027C55.4238 42.118 54.5629 42.3978 54.182 42.7308C53.8029 43.0653 50.9663 45.1723 50.5773 45.3476C50.1884 45.5245 49.7815 45.3894 49.6302 43.9821C49.4756 42.5796 48.1183 36.3616 48.0142 35.8952C47.91 35.4304 48.3771 35.2486 49.539 34.5651C50.6945 33.8735 59.4077 28.976 63.5917 27.7971ZM215.304 44.8635C217.729 40.2703 222.561 40.5006 224.594 40.8292C227.548 41.3101 229.798 43.5988 230.628 44.5622L230.661 44.5992C231.1 45.1042 231.278 45.5594 231.188 45.9599C231.083 46.4327 230.646 46.6322 230.672 46.6129C230.591 46.6853 228.653 48.4416 228.238 48.7601L228.161 48.8196C227.671 49.1927 227.248 49.516 226.75 48.8775C226.116 48.0717 223.681 46.4311 222.368 46.9474C221.686 47.2128 220.871 47.8031 220.618 48.6539C220.403 49.3712 220.612 50.1738 221.235 51.0375C222.374 52.6089 223.99 53.5691 225.551 54.4987C227.671 55.7613 229.673 56.9563 230.519 59.512C231.079 61.2249 230.601 65.1944 228.225 68.1956C226.871 69.9053 224.404 71.8771 220.333 71.5844C217.298 71.3673 213.868 69.8795 212.844 68.9515C211.884 68.083 211.858 67.4026 212.746 66.2446C213.367 65.4372 213.892 64.0637 214.239 63.1549L214.553 62.3652C214.696 62.0484 214.83 61.8409 215.048 61.7814C215.345 61.7042 215.664 61.9358 216.245 62.3524C216.82 62.7673 219.796 64.7617 221.782 63.2788C222.716 62.5759 223.224 61.5707 223.181 60.5172C223.139 59.4605 222.537 57.8554 219.927 56.2213C217.136 54.473 212.952 50.2542 214.974 45.553L215.304 44.8635ZM143.075 24.3347C145.156 26.3967 144.416 27.1269 143.706 27.9841C143.101 28.7224 140.096 31.8522 139.673 32.1192C138.793 32.6773 138.287 31.9134 137.078 30.4867C134.352 27.2587 130.973 27.3922 128.929 28.6339C126.883 29.8756 125.738 34.3484 129.562 36.7127C136.511 41.0103 142.956 44.9942 143.078 55.069C143.167 62.5431 138.451 68.1338 132.059 69.9127C125.372 71.7784 119.879 69.4285 115.623 66.4096C112.574 64.2464 113.939 63.3087 114.403 62.5898C114.795 61.9834 119.654 53.5089 120.128 52.9669C120.6 52.4233 121.15 51.9585 121.7 52.7337C122.252 53.5105 125.202 56.0341 127.01 56.1901C128.822 56.3477 131.377 57.0634 132.633 54.7425C133.61 52.9331 133.976 50.9999 129.079 47.603C122.231 42.847 116.103 40.3685 116.501 31.5064C116.898 22.6443 126.701 18.9821 131.688 18.9949C135.069 19.0046 137.942 19.2233 143.075 24.3347ZM99.4558 38.5078C100.086 38.6896 100.304 40.3108 100.392 40.8448C100.483 41.3804 100.302 42.7153 101.471 42.3583C102.642 42.0044 106.877 40.314 109.759 42.7185C112.641 45.1247 112.46 46.0141 112.46 46.0141C112.46 46.0141 112.098 47.4375 110.838 48.684C109.577 49.9305 108.854 50.4628 108.494 50.4628C108.133 50.4628 107.324 47.7929 104.535 47.2557C102.393 46.8488 100.929 47.1657 101.109 48.0583C101.109 48.0583 101.125 49.1068 101.128 50.5863L101.127 51.767C101.125 52.3881 101.121 53.0481 101.112 53.7145L101.089 55.0459C101.059 56.3665 101.009 57.6256 100.927 58.5626C100.558 62.7202 100.151 66.2313 99.6804 67.1609C99.3956 67.7174 99.7569 67.8477 98.6779 67.9361C97.5957 68.023 92.3847 68.1404 91.8444 68.1404C91.3041 68.1404 91.0291 67.4343 91.4864 66.2683C92.139 64.594 93.2684 57.226 93.2684 53.7536C93.2699 50.5845 92.8074 42.8111 92.7269 41.4832L92.72 41.3999C92.6739 41.284 92.4534 39.9923 92.8941 39.7752C93.4377 39.5066 98.8244 38.3309 99.4558 38.5078ZM197.408 42.3895C199.799 37.8957 204.092 37.1446 207.314 37.9375C209.951 38.5905 210.995 40.0412 211.495 40.7377L211.762 41.0642C212.053 41.2668 212.205 41.5081 212.206 41.7815C212.209 42.3493 211.552 42.8173 211.544 42.8221C211.529 42.8382 210.058 44.2761 209.78 44.6894C209.633 44.921 209.446 45.1655 209.158 45.1896C208.914 45.2138 208.658 45.077 208.352 44.7586C207.589 43.9785 205.749 43.5443 204.827 44.1555C204.598 44.3066 203.845 44.8808 203.744 45.8796C203.669 46.6726 204.033 47.4751 204.834 48.2697C205.667 49.0931 206.51 49.8089 207.322 50.5069C210.099 52.8776 212.499 54.9267 211.985 59.2854C211.728 61.4695 210.569 64.4627 208.086 66.33C206.025 67.8757 203.397 68.4177 200.276 67.9384C197.273 67.48 194.659 65.7156 193.719 64.7104L193.455 64.437C192.781 63.7486 192.627 63.5057 193.519 62.5246C194.251 61.7172 195.133 60.0075 195.66 58.9862L195.989 58.3541C196.145 58.0711 196.295 57.8748 196.51 57.8378C196.795 57.7864 197.061 58.0131 197.59 58.4635L197.883 58.7176C198.775 59.4977 200.128 60.6766 202.159 59.9239C203.096 59.5797 203.762 58.716 203.898 57.6722C204.11 56.0638 203.101 54.3573 201.127 52.9806C196.412 49.6818 195.263 46.4168 197.408 42.3895ZM155.716 33.7617C159.945 32.7829 164.228 34.3482 167.031 42.5418C167.724 44.5748 167.748 46.0609 167.104 46.968C166.34 48.0408 164.871 48.0665 163.899 48.0874C163.899 48.0874 157.326 48.393 155.3 48.2708C154.161 48.1984 151.957 47.9443 151.495 48.4011C151.243 48.6504 150.768 50.0287 151.027 51.4602C151.193 52.3818 151.728 53.6395 153.334 54.3697C156.067 55.6178 159.027 55.8237 162.14 54.9873C163.087 54.7332 164.472 54.069 164.939 53.5269C165.239 53.1811 165.504 53.0412 165.755 53.1055C166.103 53.1908 166.209 53.6395 166.217 53.6685C166.217 53.6685 166.305 53.9387 166.311 53.966C166.393 54.4871 166.79 55.7449 167.172 56.9608C167.657 58.4952 168.113 59.9443 168.113 60.4027L168.225 60.9769C168.383 61.5141 168.56 62.122 167.398 62.7702L166.817 63.1128C165.125 64.1406 161.623 65.9033 156.965 65.2793C152.605 64.6954 145.379 62.5981 144.634 52.4815C144.146 45.8824 146.867 40.2756 149.577 37.2293C151.412 35.1706 153.425 33.9804 155.246 33.8807L155.716 33.7617ZM173.859 37.2794L173.942 37.3139L173.982 37.3339L173.998 37.3379L173.942 37.3139L173.894 37.2898L173.998 37.3379H173.994L174.044 37.3628L173.862 37.2744C174.673 37.7199 177.194 38.5225 177.825 38.701C178.455 38.8763 178.997 38.7911 178.365 40.0359C177.734 41.2792 175.39 47.4216 176.199 50.4469C177.01 53.4787 178.007 55.695 182.234 55.3492C185.474 55.0838 187.459 49.7392 186.47 45.9161C185.48 42.0834 184.852 39.4135 184.58 39.0581C184.307 38.7026 184.67 38.434 185.842 38.2555C187.012 38.0786 190.345 37.4593 190.887 37.2824C191.429 37.1023 191.967 36.9221 192.418 38.9728C192.867 41.0219 195.385 50.9037 191.691 58.2009C188.208 65.0782 180.32 67.1739 173.852 61.6669C168.882 57.432 168.768 50.508 169.263 46.7975C169.716 43.4135 172.061 37.8952 172.331 37.2728C172.541 36.7861 173.461 37.111 173.859 37.2794ZM108.679 57.7935C109.866 57.7742 112.282 60.1095 110.932 62.2438C109.576 64.3813 107.234 64.4714 106.155 63.5804C105.076 62.6893 103.815 57.8819 108.679 57.7935ZM69.9093 36.6608C67.9337 36.5337 63.2223 37.666 63.1312 38.7774C63.1227 38.8788 63.1172 39.0593 63.1141 39.292L63.1134 40.6021C63.1224 41.92 63.1507 43.4336 63.1507 43.4336C63.1507 43.4336 64.1727 58.7582 64.4136 60.5193C64.6544 62.2805 64.5177 62.5089 65.6667 63.0445C66.8189 63.5752 68.9589 62.9496 71.6019 61.925C74.2448 60.9053 80.4599 56.5981 80.4436 47.6524C80.4273 38.7098 73.1414 36.8634 69.9093 36.6608ZM236.83 42.7145L238.279 42.8174L238.712 44.5046L238.718 44.5062L239.374 42.893L240.793 42.9944L240.541 46.4379L239.547 46.3671L239.724 43.9337H239.714L238.759 46.3092L238.165 46.269L237.533 43.7793L237.524 43.7776L237.348 46.2095L236.583 46.1532L236.83 42.7145ZM233.519 42.4774L236.43 42.6849L236.381 43.3685L235.421 43.2993L235.222 46.0577L234.228 45.9885L234.428 43.2285L233.471 43.161L233.519 42.4774ZM157.121 38.6495C154.879 38.7798 153.637 40.3833 153.554 41.1731C153.554 41.1731 152.62 43.5293 152.851 43.8494C153.36 44.5635 159.297 43.9314 160.106 43.8429C160.675 43.777 161.063 43.6033 161.26 43.3154C161.453 43.0323 160.06 38.4806 157.121 38.6495Z" fill="black"/>
</svg>
