<svg width="316" height="96" viewBox="0 0 316 96" fill="none" xmlns="http://www.w3.org/2000/svg">
<path d="M47.7932 47.7773V71.5597H57.2914C69.0267 71.5597 70.4202 71.4864 73.8674 70.6436C79.075 69.361 83.3657 66.6126 86.2995 62.6917C87.583 60.9694 88.6832 58.8806 89.4533 56.7552C91.4336 51.1486 91.2503 43.4166 89.0132 37.8099C86.2261 30.8108 80.7252 26.3401 72.8773 24.6545C70.0902 24.0682 70.1635 24.0682 58.575 24.0315L47.7932 23.9949V47.7773ZM70.0168 32.643C73.8674 33.4492 76.6179 35.0982 78.6349 37.7366C82.0454 42.2439 82.6689 50.3424 79.9918 55.6192C78.0114 59.5036 74.9309 61.7755 70.1268 62.8382C69.1367 63.0581 68.7699 63.0948 63.049 63.1314L56.998 63.168V47.7406V32.3132L62.939 32.3499C68.5866 32.3865 68.9166 32.4231 70.0168 32.643ZM106.909 38.7627C104.966 38.9826 103.022 39.5689 101.445 40.3384C98.7315 41.6576 96.5311 43.9662 95.3209 46.7512C94.8809 47.7406 94.5508 48.73 94.6608 48.8033C94.6975 48.84 96.2744 49.2797 98.2181 49.7927C100.162 50.3058 101.812 50.7455 101.922 50.7821C102.069 50.8188 102.142 50.6356 102.399 49.976C103.352 47.1177 105.736 45.5053 109.073 45.5053C111.31 45.5053 112.997 46.055 114.171 47.2642C115.307 48.3636 115.638 49.3896 115.748 51.6616C115.784 53.0541 115.784 53.2007 115.638 53.2007C115.528 53.2007 114.647 53.0175 113.657 52.7609C110.65 52.0647 109.953 51.9548 107.423 51.9548C104.306 51.9548 102.325 52.3212 100.272 53.274C97.0812 54.7764 95.3576 57.2316 94.9175 60.8594C94.5508 64.1208 95.541 67.1257 97.778 69.2511C100.308 71.633 103.756 72.5857 107.826 72.0361C111.31 71.5597 113.841 70.0572 115.601 67.4188L116.114 66.6493L116.151 69.1045L116.188 71.5597H120.148H124.109L124.072 60.3464L124.036 49.1331L123.742 47.9971C122.459 42.8669 119.231 40.0452 113.327 38.9459C112.3 38.7993 107.863 38.6527 106.909 38.7627ZM111.567 58.1844C112.08 58.2943 113.217 58.6241 114.134 58.9173C115.968 59.4669 115.858 59.3203 115.674 60.6396C115.344 62.8382 113.657 64.6338 111.274 65.2934C110.43 65.5133 108.23 65.6232 107.24 65.44C105.773 65.1835 104.526 64.3773 103.976 63.278C103.646 62.6184 103.572 61.3358 103.829 60.5296C104.196 59.3203 105.369 58.4042 106.909 58.0378C107.936 57.7813 110.357 57.8546 111.567 58.1844ZM146.186 38.8726C143.142 39.4223 140.245 41.0713 138.448 43.27C138.118 43.6364 137.824 43.9662 137.788 43.9662C137.751 44.0029 137.678 42.9768 137.678 41.6576V39.3124H133.497H129.316V62.1786V84.9716H133.644H138.008L138.045 76.2135L138.081 67.4555L138.485 68.0418C140.392 70.7901 144.242 72.3659 148.57 72.1826C153.74 71.9628 158.031 69.6908 160.708 65.7332C164.559 60.0166 164.485 50.7088 160.488 44.8823C159.755 43.8196 158.324 42.3172 157.261 41.5477C155.757 40.4117 153.63 39.4589 151.54 38.9826C150.477 38.726 147.286 38.6894 146.186 38.8726ZM148.57 46.4581C150.807 47.081 152.75 48.6934 153.814 50.8188C154.621 52.4311 154.987 54.7031 154.804 56.7552C154.437 60.4563 152.273 63.3513 149.046 64.414C148.276 64.6705 147.909 64.7438 146.699 64.7804C144.902 64.8171 143.912 64.6338 142.372 63.8643C141.492 63.4246 141.198 63.2047 140.355 62.3619C139.475 61.4824 139.291 61.2259 138.815 60.2365C137.898 58.3676 137.604 56.5354 137.824 54.4466C138.265 50.1225 140.722 47.191 144.572 46.3115C145.379 46.1283 147.653 46.2016 148.57 46.4581ZM184.545 38.8726C182.712 39.2024 180.768 40.0086 179.191 41.0713C178.384 41.621 177.028 42.9035 176.477 43.5998L176.147 44.0395V41.6943V39.349H171.93H167.713V62.1786V84.9716H172.113H176.514V76.2502V67.5288L176.917 68.0418C178.421 70.0206 180.695 71.3765 183.519 71.9261C184.839 72.1826 187.956 72.1826 189.386 71.9261C192.54 71.3398 195.18 69.9839 197.344 67.8219C200.535 64.6338 202.112 60.1632 201.928 54.7398C201.745 49.7561 200.131 45.6519 197.124 42.757C194.374 40.0819 190.853 38.6894 186.892 38.726C186.012 38.726 185.022 38.7993 184.545 38.8726ZM186.892 46.4581C190.083 47.3375 192.32 49.9027 193.017 53.4572C193.2 54.41 193.163 56.9751 192.98 57.9278C192.247 61.2259 190.23 63.4978 187.223 64.4506C186.196 64.7804 183.995 64.8903 182.858 64.6338C179.485 63.9009 177.028 61.3725 176.294 57.8179C176.074 56.7552 176.074 54.4833 176.257 53.3839C176.661 51.3685 177.394 49.9393 178.788 48.5468C179.998 47.3742 181.355 46.6413 183.042 46.2748C183.775 46.1283 186.122 46.2382 186.892 46.4581ZM219.604 38.7627C215.717 39.349 212.82 40.7415 210.4 43.1967C207.796 45.7985 206.256 49.0965 205.779 53.0175C205.595 54.5565 205.705 57.598 205.999 59.0638C207.026 64.2307 209.923 68.1517 214.397 70.3504C219.201 72.7323 225.802 72.8056 230.46 70.5336C232.403 69.5809 234.2 68.1151 235.484 66.3928C236.18 65.4767 237.574 62.8749 237.611 62.3985C237.647 62.1786 237.427 62.0687 234.127 60.7495C229.873 59.0638 230.239 59.1738 230.239 59.4303C230.239 59.7601 229.653 60.9694 229.249 61.629C228.406 62.9115 227.232 63.791 225.839 64.2674C223.455 65.0736 220.778 64.8537 218.468 63.7177C217.661 63.3146 217.294 63.0581 216.561 62.3252C215.79 61.5923 215.57 61.2992 215.167 60.4197C214.654 59.3204 214.507 58.8073 214.36 57.7446L214.287 57.0484L225.252 57.0117L236.29 57.0484L236.437 56.2788C236.511 55.8025 236.584 54.6665 236.584 53.2007C236.584 51.1852 236.547 50.7455 236.364 49.7927C235.08 43.9662 231.376 40.3384 225.472 39.0558C224.592 38.8726 223.932 38.836 222.172 38.7993C220.925 38.7627 219.788 38.7627 219.604 38.7627ZM223.968 45.9817C225.582 46.3848 227.049 47.4841 227.672 48.6567C227.966 49.2064 228.222 50.1958 228.222 50.7821V51.2585H221.291C217.477 51.2585 214.36 51.2219 214.36 51.2219C214.36 51.1852 214.434 50.9287 214.58 50.5989C215.827 46.8612 219.788 44.919 223.968 45.9817ZM256.57 38.8726C254.407 39.3123 252.573 40.5949 251.4 42.5004L250.849 43.3799V41.3645V39.349H246.522H242.195V55.4727V71.5963H246.522H250.849L250.886 60.5296C250.923 49.5729 250.923 49.4996 251.143 48.8033C251.473 47.8506 251.986 47.081 252.646 46.6046C253.38 46.055 254.04 45.8351 254.993 45.7618C257.047 45.6152 258.771 46.7146 259.284 48.5102C259.431 48.9866 259.431 49.3896 259.394 50.3424C259.358 51.0387 259.284 51.7349 259.248 51.8815L259.174 52.1746H263.281H267.389L267.499 51.625C267.939 49.6828 267.939 46.8612 267.499 45.2488C266.582 41.7309 263.978 39.3124 260.458 38.7627C259.541 38.6527 257.451 38.6894 256.57 38.8726Z" fill="black"/>
</svg>
