<svg width="278" height="96" viewBox="0 0 278 96" fill="none" xmlns="http://www.w3.org/2000/svg">
<path fill-rule="evenodd" clip-rule="evenodd" d="M152.45 47.9028H147.549V66.1781H140.71V47.9028H137.176V42.0441H140.71V39.7645C140.71 33.8602 144.395 30.8282 149.996 30.8282C150.863 30.8355 151.726 30.9374 152.572 31.1322V37.9712C151.834 37.6755 151.048 37.5208 150.254 37.5152C149.895 37.4867 149.534 37.5363 149.196 37.6606C148.859 37.7848 148.552 37.9807 148.297 38.2349C148.042 38.4891 147.845 38.7955 147.72 39.133C147.595 39.4705 147.544 39.8311 147.571 40.19V42.0061H152.473L152.45 47.9028ZM162.746 66.1781H155.831V31.345H162.746V66.1781ZM178.096 40.5321C180.689 40.5276 183.225 41.2927 185.383 42.7304C187.54 44.1682 189.223 46.214 190.217 48.6087C191.212 51.0034 191.473 53.6393 190.968 56.1827C190.464 58.726 189.216 61.0624 187.382 62.8959C185.549 64.7294 183.212 65.9775 180.669 66.4823C178.125 66.987 175.49 66.7257 173.095 65.7313C170.7 64.737 168.654 63.0543 167.217 60.8965C165.779 58.7386 165.014 56.2027 165.018 53.6097C164.997 51.8864 165.32 50.1762 165.97 48.5799C166.62 46.9836 167.582 45.5334 168.801 44.3147C170.02 43.0961 171.47 42.1336 173.066 41.4839C174.662 40.8343 176.373 40.5107 178.096 40.5321ZM178.096 60.0231C181.629 60.0231 184.175 57.09 184.175 53.6097C184.213 52.7881 184.084 51.9672 183.795 51.1969C183.507 50.4266 183.065 49.7229 182.497 49.1282C181.929 48.5336 181.246 48.0605 180.489 47.7376C179.733 47.4147 178.918 47.2486 178.096 47.2495C176.44 47.3066 174.871 48.0045 173.72 49.196C172.569 50.3876 171.926 51.9796 171.926 53.6363C171.926 55.2931 172.569 56.8851 173.72 58.0766C174.871 59.2681 176.44 59.966 178.096 60.0231ZM202.838 57.7587L198.393 41.0412H191.242L198.666 66.1782H205.885L210.559 52.4015L215.559 66.1858H222.732L230.202 41.0488H223.104L218.765 57.7663L212.907 41.0488H206.068L207.283 44.4759L202.838 57.7587Z" fill="black"/>
<path fill-rule="evenodd" clip-rule="evenodd" d="M123.817 47.9942C123.817 68.9778 106.807 85.9884 85.8231 85.9884C64.8394 85.9884 47.8289 68.9778 47.8289 47.9942C47.8289 27.0106 64.8394 10 85.8231 10C106.807 10 123.817 27.0106 123.817 47.9942ZM95.7927 36.687H107.86V25.9575H95.7927C91.8822 25.9615 88.133 27.5167 85.3678 30.2819C82.6026 33.0471 81.0474 36.7963 81.0434 40.7068L81.0434 42.0518H77.016C74.0988 42.0518 71.2472 42.9168 68.8217 44.5375C66.3962 46.1582 64.5057 48.4617 63.3894 51.1568C62.273 53.8519 61.9809 56.8175 62.55 59.6786C63.1191 62.5397 64.5239 65.1678 66.5866 67.2305C68.6493 69.2933 71.2774 70.698 74.1385 71.2671C76.9996 71.8362 79.9652 71.5441 82.6603 70.4278C85.3554 69.3114 87.6589 67.421 89.2796 64.9955C90.9003 62.5699 91.7653 59.7183 91.7653 56.8012V52.7738H81.0434L81.0434 42.0518H91.7653V40.7068C91.7673 39.64 92.1926 38.6176 92.9476 37.864C93.7027 37.1103 94.7259 36.687 95.7927 36.687ZM81.0434 52.7738V56.8012C81.0434 57.5977 80.8072 58.3764 80.3646 59.0387C79.9221 59.701 79.2931 60.2172 78.5572 60.522C77.8213 60.8268 77.0115 60.9066 76.2303 60.7512C75.449 60.5958 74.7314 60.2122 74.1682 59.649C73.6049 59.0857 73.2214 58.3681 73.066 57.5869C72.9106 56.8056 72.9903 55.9959 73.2952 55.2599C73.6 54.524 74.1162 53.8951 74.7785 53.4525C75.4408 53.01 76.2194 52.7738 77.016 52.7738H81.0434ZM91.7656 42.0518H102.495V52.7814H91.7656V42.0518Z" fill="black"/>
</svg>
