<svg width="662" height="147" viewBox="0 0 662 147" fill="none" xmlns="http://www.w3.org/2000/svg">
<path fill-rule="evenodd" clip-rule="evenodd" d="M629.613 16.0899C621.096 44.2905 612.777 75.0912 607.628 100.692C607.43 101.892 606.043 103.092 604.458 102.692C603.326 102.604 602.194 102.4 601.078 102.199C599.657 101.943 598.263 101.692 596.932 101.692C596.697 101.692 596.183 101.723 595.561 101.761C594.612 101.819 593.412 101.892 592.574 101.892C591.386 101.892 589.801 101.092 589.801 99.0918C592.011 79.1378 593.88 56.6851 595.576 36.3147C596.463 25.6498 597.303 15.5557 598.12 6.68965C598.912 5.08961 599.705 4.08958 601.685 4.8896C603.155 5.32918 605.117 5.93482 607.376 6.63187C613.339 8.47199 621.366 10.9491 627.831 12.6898C629.415 13.2898 630.01 14.8898 629.613 16.0899ZM611.589 126.292C611.589 135.493 602.478 140.493 594.951 140.493C588.217 140.493 579.898 135.493 579.898 126.692C579.898 117.092 587.226 110.892 595.941 110.892C604.458 110.892 611.589 117.292 611.589 126.292ZM451.62 41.1545L451.62 41.1521C451.834 31.598 452.049 22.0439 452.232 12.4898C452.232 10.4897 450.449 9.48971 448.667 9.88971C445.149 10.9553 440.174 11.9508 435.549 12.8762C432.361 13.514 429.34 14.1186 427.077 14.6898C426.284 14.8898 423.908 15.4898 424.106 18.2899C424.516 26.8506 425.209 53.1411 425.86 77.8144V77.8157L425.865 78.0116L425.885 78.7501C425.976 82.2004 426.066 85.6143 426.154 88.9384C422.765 72.8253 409.575 58.2908 390.568 58.2908C387.003 58.2908 381.853 58.6908 377.694 60.6909C377.496 44.0905 377.694 28.8902 378.288 13.0898C379.08 10.0897 375.713 9.88972 374.921 10.0897C368.706 11.8596 364.03 12.8529 358.108 14.1108C356.668 14.4166 355.155 14.7379 353.529 15.0898C352.34 15.8899 351.548 16.8899 351.548 17.8899C351.548 57.4908 353.331 101.692 356.896 141.893L357.094 142.093C357.49 142.693 357.886 142.893 358.283 143.093C361.12 143.952 364.77 144.607 368.505 145.276C369.985 145.541 371.479 145.809 372.94 146.093C374.326 146.093 375.911 145.293 375.911 143.293V135.293C380.467 136.893 385.022 137.893 388.984 137.893C410.765 137.893 423.998 122.545 426.557 103.856C426.599 105.385 426.64 106.867 426.681 108.292C426.816 111.494 426.928 114.742 427.04 118.005L427.04 118.009C427.258 124.324 427.477 130.695 427.869 136.893C428.067 138.493 429.454 139.293 430.444 139.293C434.29 139.442 440.677 139.368 444.737 139.321H444.738L444.741 139.321L444.743 139.321L444.765 139.321L444.774 139.321C446.133 139.305 447.228 139.293 447.874 139.293C449.063 139.293 450.647 138.293 450.647 136.693C450.491 125.821 450.472 114.95 450.542 104.078C453.707 122.423 466.384 138.893 487.654 138.893C495.454 138.893 506.041 136.607 512.393 133.024L512.074 133.893V133.693C511.678 134.693 511.876 136.093 512.668 136.893C519.205 141.693 530.297 144.093 537.625 144.093C552.283 144.093 573.674 136.893 573.674 118.292C573.674 103.621 562.224 98.4082 551.167 93.3746L551.167 93.3743C547.754 91.8207 544.378 90.2841 541.389 88.4915C539.21 87.2915 538.418 84.8914 538.418 82.2914C538.418 79.2913 542.577 76.2912 547.133 76.2912C550.896 76.2912 554.857 78.0913 558.423 79.8913C560.007 81.0914 561.79 79.6913 562.186 79.2913L570.307 63.0909C570.307 61.6909 570.109 60.6909 569.317 60.0909C562.582 55.8908 555.056 53.2907 547.133 53.2907C531.896 53.2907 516.659 63.0918 515.511 79.3155C510.736 64.6461 500.553 52.8577 480.524 55.2908C463.489 57.3457 453.74 69.9431 450.752 84.7617C450.967 70.226 451.294 55.6903 451.62 41.1545ZM518.016 117.692L514.333 127.734C513.646 125.874 512.975 124.017 512.307 122.168L512.301 122.15C511.099 118.823 509.907 115.524 508.65 112.292C508.056 111.092 506.669 110.092 504.886 110.892C501.519 113.492 497.36 114.892 493.2 115.492C485.475 116.692 477.156 112.492 476.958 104.692C490.823 103.492 503.896 102.292 516.573 100.892C518.355 100.692 518.95 99.0918 518.95 98.2917C518.95 97.3568 518.861 96.2435 518.743 95.19C521.211 99.8765 525.062 103.766 530.297 106.092C531.32 106.562 532.869 107.065 534.639 107.64C540.403 109.512 548.519 112.149 548.519 116.892C548.519 121.092 543.567 123.092 539.408 123.092C533.795 123.092 528.017 119.917 523.132 117.233C522.973 117.145 522.814 117.058 522.657 116.972L522.381 116.821C522.179 116.71 521.978 116.6 521.78 116.492C520.987 116.092 519.007 115.692 518.016 117.692ZM401.858 100.292C401.858 93.8917 396.51 84.4914 389.776 84.4914C380.467 84.4914 376.901 89.8916 377.495 101.492C378.09 111.692 380.07 116.692 388.587 116.692C396.906 116.692 401.858 107.892 401.858 100.292ZM327.615 49.8906C336.133 49.8906 343.857 43.0905 343.857 33.8903C343.857 25.8901 335.934 18.4899 328.408 18.4899C320.287 18.4899 313.354 25.4901 313.354 33.6903C313.354 40.6904 319.296 49.8906 327.615 49.8906ZM343.263 138.693C344.055 112.092 344.848 87.4915 345.838 61.0909C345.838 59.8909 344.65 57.8908 342.669 58.4908C341.491 58.5608 340.361 58.6553 339.246 58.7485C337.174 58.9218 335.152 59.0909 332.963 59.0909C330.884 59.1909 328.804 59.1909 326.724 59.1909C324.644 59.1909 322.565 59.1908 320.485 59.2909C319.098 59.2909 317.712 60.4909 317.712 62.0909C318.2 86.2212 319.088 117.627 319.39 128.332C319.456 130.67 319.495 132.021 319.495 132.093C319.495 134.493 319.495 137.093 319.693 139.893C319.891 141.693 321.475 142.293 322.664 142.293C325.397 142.135 328.008 142.008 330.483 141.888L330.485 141.888C334.286 141.704 337.768 141.535 340.886 141.293C342.075 141.293 343.263 140.293 343.263 138.693ZM21.5898 141.893C39.5427 141.893 67.6993 135.431 71.3152 113.207C76.6056 127.551 88.339 138.893 105.99 138.893C114.309 138.893 125.797 136.293 131.937 132.293C133.126 131.693 133.324 130.493 133.324 129.492C132.403 127.04 131.517 124.587 130.636 122.149C129.435 118.823 128.243 115.524 126.986 112.292C126.391 111.092 125.005 110.092 123.222 110.892C119.855 113.492 115.696 114.892 111.536 115.492C103.811 116.692 95.4923 112.492 95.2942 104.692C109.159 103.492 122.232 102.292 134.909 100.892C135.048 100.876 135.18 100.852 135.305 100.82C137.333 122.863 143.973 146.293 167.224 146.293C198.322 146.293 201.689 114.492 201.887 91.0916C201.897 90.5275 201.906 89.964 201.914 89.4008C203.846 96.6114 208.448 102.861 215.72 106.092C216.743 106.562 218.292 107.065 220.062 107.64C225.826 109.512 233.942 112.149 233.942 116.892C233.942 121.092 228.99 123.092 224.831 123.092C219.218 123.092 213.44 119.917 208.556 117.233C208.096 116.981 207.645 116.733 207.203 116.492C206.41 116.092 204.43 115.692 203.439 117.692L197.497 133.893V133.693C197.101 134.693 197.299 136.093 198.091 136.893C204.628 141.693 215.72 144.093 223.048 144.093C233.145 144.093 246.438 140.676 253.732 132.469L253.21 133.893V133.693C252.814 134.693 253.012 136.093 253.805 136.893C260.341 141.693 271.433 144.093 278.762 144.093C293.419 144.093 314.811 136.893 314.811 118.292C314.811 103.621 303.361 98.4082 292.304 93.3746C288.891 91.8209 285.515 90.2841 282.525 88.4915C280.346 87.2915 279.554 84.8914 279.554 82.2914C279.554 79.2913 283.713 76.2912 288.269 76.2912C292.032 76.2912 295.994 78.0913 299.559 79.8913C301.144 81.0914 302.926 79.6913 303.322 79.2913L311.443 63.0909C311.443 61.6909 311.245 60.6909 310.453 60.0909C303.719 55.8908 296.192 53.2907 288.269 53.2907C272.423 53.2907 256.578 63.891 256.578 81.2914C256.578 91.6916 261.529 101.692 271.433 106.092C272.457 106.562 274.005 107.065 275.775 107.64C281.54 109.512 289.655 112.149 289.655 116.892C289.655 121.092 284.704 123.092 280.544 123.092C274.932 123.092 269.153 119.917 264.269 117.233L264.267 117.232C263.809 116.98 263.358 116.733 262.916 116.492C262.124 116.092 260.143 115.692 259.152 117.692L259.094 117.852C258.867 103.516 247.536 98.3576 236.59 93.3746C233.177 91.8209 229.802 90.2841 226.812 88.4915C224.633 87.2915 223.841 84.8914 223.841 82.2914C223.841 79.2913 228 76.2912 232.556 76.2912C236.319 76.2912 240.281 78.0913 243.846 79.8913C245.43 81.0914 247.213 79.6913 247.609 79.2913L255.73 63.0909C255.73 61.6909 255.532 60.6909 254.74 60.0909C248.005 55.8908 240.479 53.2907 232.556 53.2907C219.18 53.2907 205.804 60.8439 201.959 73.6646C201.951 71.939 201.941 70.2132 201.931 68.4859L201.931 68.4638V68.4614V68.4601V68.4588V68.4575V68.4563V68.455V68.4537V68.4524V68.4512V68.45V68.4487C201.909 64.6751 201.887 60.8941 201.887 57.0908C201.887 56.0908 200.699 53.6907 198.52 54.4907C194.955 55.1907 191.637 55.8907 188.32 56.5906L188.319 56.5908C185.001 57.2908 181.684 57.9908 178.118 58.6908C176.336 58.8908 175.742 60.4909 175.742 61.4909C175.916 62.9588 176.095 64.4181 176.273 65.8713L176.273 65.8726C177.307 74.319 178.316 82.5597 178.316 91.0916C178.316 91.6051 178.324 92.2288 178.332 92.9424C178.429 101.401 178.673 122.492 168.809 122.492C159.508 122.492 159.641 102.556 159.692 94.9955C159.695 94.5061 159.698 94.0686 159.698 93.6917C159.698 83.4914 160.292 73.0912 161.678 62.8909C161.678 60.8909 160.292 59.4909 158.311 59.8909C151.682 61.5191 145.539 62.4928 138.856 63.552L138.855 63.5521L138.855 63.5521L138.855 63.5521L138.855 63.5522L138.853 63.5524L138.838 63.5548C138.139 63.6656 137.434 63.7774 136.721 63.891C135.533 64.091 134.543 65.291 134.543 66.491C134.399 70.1162 134.36 75.4235 134.424 81.1933C129.916 65.6697 119.737 52.7547 98.8595 55.2908C77.757 57.8365 67.835 76.5612 68.0976 95.645C63.128 87.972 53.8112 83.5269 45.2399 79.4374L45.2396 79.4372L45.2395 79.4372L45.2395 79.4372L45.2394 79.4372C43.728 78.716 42.2398 78.006 40.8027 77.2913C40.5687 77.1684 40.329 77.0433 40.0846 76.9158C35.1564 74.3443 28.3242 70.7793 28.3242 64.491C28.3242 54.8908 44.7641 53.4907 52.0928 53.4907C53.9145 53.4907 58.4122 53.8432 61.6623 54.0979L61.663 54.0979L61.6673 54.0983L61.6722 54.0986L61.6741 54.0988L61.6798 54.0992C62.6631 54.1763 63.5312 54.2443 64.1751 54.2907C66.1558 54.4907 67.5423 53.0907 66.9481 51.2907C66.9481 43.6905 67.1462 35.8903 67.9385 28.0901C67.9385 27.4901 67.5424 25.2901 65.3636 25.2901C63.68 25.2901 61.9964 25.1901 60.3127 25.0901C58.6291 24.9901 56.9455 24.8901 55.2619 24.8901C36.4451 24.8901 15.8457 29.0902 4.75371 47.0906C2.37686 50.6907 0 57.6908 0 62.2909C0 84.5483 15.162 91.4956 27.0457 96.9408C34.704 100.45 41.0008 103.335 41.0008 109.292C41.0008 116.092 30.3049 116.892 25.3531 116.892C16.638 116.892 12.6766 116.492 5.74407 113.092C3.36721 111.092 1.58457 114.092 1.58457 115.492C1.67865 116.822 1.81742 118.152 1.95842 119.504C2.11428 120.997 2.27287 122.517 2.37686 124.092L2.97107 138.093C2.97107 139.293 4.1595 140.493 5.34793 140.693C10.6959 141.293 16.4399 141.893 21.5898 141.893ZM113.517 85.6915C106.386 86.4915 100.246 87.0915 93.5116 87.4915C93.7097 81.4914 97.8692 76.4912 102.623 75.8912C109.555 74.8912 112.13 79.8913 113.517 85.6915ZM475.176 87.4915C481.91 87.0915 488.05 86.4915 495.181 85.6915C493.794 79.8913 491.22 74.8912 484.287 75.8912C479.533 76.4912 475.374 81.4914 475.176 87.4915ZM640.589 25.3532L649.114 25.9682L648.971 27.9946L646.159 27.7895L645.578 35.9663L642.667 35.7613L643.253 27.5798L640.451 27.3795L640.589 25.3532ZM650.286 26.056L654.527 26.3611L655.794 31.3625L655.813 31.3673L657.734 26.5852L661.889 26.8856L661.15 37.0934L658.239 36.8837L658.758 29.67H658.73L655.932 36.712L654.193 36.5928L652.344 29.2122L652.316 29.2075L651.801 36.4164L649.562 36.2495L650.286 26.056Z" fill="black"/>
<mask id="path-2-outside-1_1124:11589" maskUnits="userSpaceOnUse" x="3.46613" y="0" width="631" height="143" fill="black">
<rect fill="white" x="3.46613" width="631" height="143"/>
<path d="M26.0559 138.285C45.2688 138.285 76.168 130.885 76.168 104.684C76.168 86.4835 58.5396 80.2834 45.2688 73.6832C40.317 71.0832 32.7903 67.4831 32.7903 60.8829C32.7903 51.2827 49.2303 49.8827 56.5589 49.8827C58.9358 49.8827 65.8683 50.4827 68.6413 50.6827C70.622 50.8827 72.0085 49.4827 71.4143 47.6826C71.4143 40.0825 71.6123 32.2823 72.4046 24.4821C72.4046 23.8821 72.0085 21.682 69.8297 21.682C66.4625 21.682 63.0953 21.282 59.728 21.282C40.9113 21.282 20.3118 25.4821 9.21984 43.4825C6.84298 47.0826 4.46613 54.0828 4.46613 58.6829C4.46613 95.2838 45.4669 90.4836 45.4669 105.684C45.4669 112.484 34.771 113.284 29.8193 113.284C21.1041 113.284 17.1427 112.884 10.2102 109.484C7.83334 107.484 6.0507 110.484 6.0507 111.884C6.24877 114.684 6.64491 117.484 6.84298 120.484L7.4372 134.485C7.4372 135.685 8.62562 136.885 9.81405 137.085C15.162 137.685 20.9061 138.285 26.0559 138.285Z"/>
<path d="M99.7604 101.084C113.625 99.8839 126.698 98.6838 139.375 97.2838C141.157 97.0838 141.751 95.4837 141.751 94.6837C141.751 93.2837 141.553 91.4837 141.355 90.0836C138.979 69.8832 129.669 48.4827 103.326 51.6827C58.5615 57.0829 64.1075 135.285 110.456 135.285C118.775 135.285 130.263 132.685 136.404 128.685C137.592 128.085 137.79 126.884 137.79 125.884C135.611 120.084 133.631 114.284 131.452 108.684C130.858 107.484 129.471 106.484 127.688 107.284C124.321 109.884 120.162 111.284 116.002 111.884C108.277 113.084 99.9584 108.884 99.7604 101.084ZM117.983 82.0834C110.852 82.8835 104.712 83.4835 97.9777 83.8835C98.1758 77.8833 102.335 72.8832 107.089 72.2832C114.021 71.2832 116.596 76.2833 117.983 82.0834Z"/>
<path d="M171.691 142.685C202.788 142.685 206.155 110.884 206.353 87.4836C206.551 76.0833 206.353 64.883 206.353 53.4828C206.353 52.4828 205.165 50.0827 202.986 50.8827C195.855 52.2828 189.715 53.6828 182.584 55.0828C180.802 55.2828 180.208 56.8829 180.208 57.8829C181.396 67.8831 182.783 77.4833 182.783 87.4836C182.783 94.0837 183.971 118.884 173.275 118.884C163.372 118.884 164.164 96.2838 164.164 90.0836C164.164 79.8834 164.758 69.4832 166.145 59.2829C166.145 57.2829 164.758 55.8828 162.777 56.2828C155.449 58.0829 148.714 59.0829 141.188 60.2829C139.999 60.4829 139.009 61.683 139.009 62.883C138.811 67.8831 138.811 76.0833 139.009 84.2835C139.801 108.884 143.763 142.685 171.691 142.685Z"/>
<path d="M201.963 130.285V130.085C201.567 131.085 201.765 132.485 202.557 133.285C209.094 138.085 220.186 140.485 227.514 140.485C242.172 140.485 263.563 133.285 263.563 114.684C263.563 95.4838 243.954 92.4837 231.278 84.8835C229.099 83.6835 228.307 81.2834 228.307 78.6834C228.307 75.6833 232.466 72.6832 237.022 72.6832C240.785 72.6832 244.747 74.4833 248.312 76.2833C249.896 77.4833 251.679 76.0833 252.075 75.6833L260.196 59.4829C260.196 58.0829 259.998 57.0829 259.206 56.4829C252.471 52.2828 244.945 49.6827 237.022 49.6827C221.176 49.6827 205.33 60.2829 205.33 77.6833C205.33 88.0836 210.282 98.0838 220.186 102.484C224.543 104.484 238.408 107.084 238.408 113.284C238.408 117.484 233.457 119.484 229.297 119.484C223.157 119.484 216.819 115.684 211.669 112.884C210.876 112.484 208.896 112.084 207.905 114.084L201.963 130.285Z"/>
<path d="M257.676 130.285V130.085C257.28 131.085 257.478 132.485 258.271 133.285C264.807 138.085 275.899 140.485 283.228 140.485C297.885 140.485 319.277 133.285 319.277 114.684C319.277 95.4838 299.668 92.4837 286.991 84.8835C284.812 83.6835 284.02 81.2834 284.02 78.6834C284.02 75.6833 288.179 72.6832 292.735 72.6832C296.498 72.6832 300.46 74.4833 304.025 76.2833C305.61 77.4833 307.392 76.0833 307.788 75.6833L315.909 59.4829C315.909 58.0829 315.711 57.0829 314.919 56.4829C308.185 52.2828 300.658 49.6827 292.735 49.6827C276.889 49.6827 261.044 60.2829 261.044 77.6833C261.044 88.0836 265.995 98.0838 275.899 102.484C280.257 104.484 294.122 107.084 294.122 113.284C294.122 117.484 289.17 119.484 285.01 119.484C278.87 119.484 272.532 115.684 267.382 112.884C266.59 112.484 264.609 112.084 263.619 114.084L257.676 130.285Z"/>
<path d="M332.082 46.2826C340.599 46.2826 348.323 39.4824 348.323 30.2822C348.323 22.282 340.401 14.8819 332.874 14.8819C324.753 14.8819 317.82 21.882 317.82 30.0822C317.82 37.0824 323.763 46.2826 332.082 46.2826ZM347.729 135.085C348.521 108.484 349.314 83.8835 350.304 57.4829C350.304 56.2828 349.116 54.2828 347.135 54.8828C343.768 55.0828 340.797 55.4828 337.429 55.4828C333.27 55.6828 329.11 55.4828 324.951 55.6828C323.564 55.6828 322.178 56.8829 322.178 58.4829C322.772 87.8836 323.961 128.085 323.961 128.485C323.961 130.885 323.961 133.485 324.159 136.285C324.357 138.085 325.941 138.685 327.13 138.685C334.062 138.285 340.202 138.085 345.352 137.685C346.541 137.685 347.729 136.685 347.729 135.085Z"/>
<path d="M382.16 57.0829C381.962 40.4825 382.16 25.2821 382.754 9.48176C383.546 6.48168 380.179 6.28168 379.387 6.48169C371.662 8.68175 366.314 9.68177 357.995 11.4818C356.807 12.2818 356.014 13.2819 356.014 14.2819C356.014 53.8828 357.797 98.0838 361.362 138.285L361.56 138.485C361.956 139.085 362.352 139.285 362.749 139.485C366.71 140.685 372.256 141.485 377.406 142.485C378.792 142.485 380.377 141.685 380.377 139.685V131.685C384.933 133.285 389.488 134.285 393.45 134.285C417.812 134.285 431.479 115.084 431.479 93.4837C431.479 74.4833 417.218 54.6828 395.034 54.6828C391.469 54.6828 386.319 55.0828 382.16 57.0829ZM394.242 80.8834C400.976 80.8834 406.324 90.2836 406.324 96.6838C406.324 104.284 401.373 113.084 393.054 113.084C384.536 113.084 382.556 108.084 381.962 97.8838C381.367 86.2835 384.933 80.8834 394.242 80.8834Z"/>
<path d="M455.113 133.085C454.519 91.6837 455.906 50.2827 456.698 8.88175C456.698 6.8817 454.915 5.88168 453.133 6.28168C447.19 8.08173 437.089 9.68177 431.543 11.0818C430.751 11.2818 428.374 11.8818 428.572 14.6819C429.166 27.0822 430.354 76.6833 431.147 104.684C431.543 114.084 431.741 123.884 432.335 133.285C432.533 134.885 433.92 135.685 434.91 135.685C440.06 135.885 449.765 135.685 452.34 135.685C453.529 135.685 455.113 134.685 455.113 133.085Z"/>
<path d="M481.424 101.084C495.289 99.8839 508.362 98.6838 521.039 97.2838C522.821 97.0838 523.416 95.4837 523.416 94.6837C523.416 93.2837 523.218 91.4837 523.019 90.0836C520.643 69.8832 511.333 48.4827 484.99 51.6827C440.226 57.0829 445.772 135.285 492.12 135.285C500.439 135.285 511.927 132.685 518.068 128.685C519.256 128.085 519.454 126.884 519.454 125.884C517.275 120.084 515.295 114.284 513.116 108.684C512.522 107.484 511.135 106.484 509.353 107.284C505.985 109.884 501.826 111.284 497.666 111.884C489.942 113.084 481.623 108.884 481.424 101.084ZM499.647 82.0834C492.516 82.8835 486.376 83.4835 479.642 83.8835C479.84 77.8833 483.999 72.8832 488.753 72.2832C495.686 71.2832 498.26 76.2833 499.647 82.0834Z"/>
<path d="M516.54 130.285V130.085C516.144 131.085 516.342 132.485 517.134 133.285C523.671 138.085 534.763 140.485 542.091 140.485C556.749 140.485 578.14 133.285 578.14 114.684C578.14 95.4838 558.531 92.4837 545.855 84.8835C543.676 83.6835 542.884 81.2834 542.884 78.6834C542.884 75.6833 547.043 72.6832 551.599 72.6832C555.362 72.6832 559.324 74.4833 562.889 76.2833C564.473 77.4833 566.256 76.0833 566.652 75.6833L574.773 59.4829C574.773 58.0829 574.575 57.0829 573.783 56.4829C567.048 52.2828 559.522 49.6827 551.599 49.6827C535.753 49.6827 519.907 60.2829 519.907 77.6833C519.907 88.0836 524.859 98.0838 534.763 102.484C539.12 104.484 552.985 107.084 552.985 113.284C552.985 117.484 548.033 119.484 543.874 119.484C537.734 119.484 531.395 115.684 526.246 112.884C525.453 112.484 523.473 112.084 522.482 114.084L516.54 130.285Z"/>
<path d="M612.094 97.0838C617.244 71.4832 625.562 40.6825 634.08 12.4818C634.476 11.2818 633.882 9.68177 632.297 9.08175C623.384 6.68169 611.499 2.8816 606.151 1.28157C604.171 0.481548 603.379 1.48158 602.586 3.08162C600.209 28.8822 597.634 65.083 594.267 95.4837C594.267 97.4838 595.852 98.2838 597.04 98.2838C598.427 98.2838 600.804 98.0838 601.398 98.0838C603.775 98.0838 606.35 98.8838 608.925 99.0838C610.509 99.4839 611.896 98.2838 612.094 97.0838ZM599.417 136.885C606.944 136.885 616.055 131.885 616.055 122.684C616.055 113.684 608.925 107.284 600.407 107.284C591.692 107.284 584.364 113.484 584.364 123.084C584.364 131.885 592.683 136.885 599.417 136.885Z"/>
</mask>
<path d="M26.0559 138.285C45.2688 138.285 76.168 130.885 76.168 104.684C76.168 86.4835 58.5396 80.2834 45.2688 73.6832C40.317 71.0832 32.7903 67.4831 32.7903 60.8829C32.7903 51.2827 49.2303 49.8827 56.5589 49.8827C58.9358 49.8827 65.8683 50.4827 68.6413 50.6827C70.622 50.8827 72.0085 49.4827 71.4143 47.6826C71.4143 40.0825 71.6123 32.2823 72.4046 24.4821C72.4046 23.8821 72.0085 21.682 69.8297 21.682C66.4625 21.682 63.0953 21.282 59.728 21.282C40.9113 21.282 20.3118 25.4821 9.21984 43.4825C6.84298 47.0826 4.46613 54.0828 4.46613 58.6829C4.46613 95.2838 45.4669 90.4836 45.4669 105.684C45.4669 112.484 34.771 113.284 29.8193 113.284C21.1041 113.284 17.1427 112.884 10.2102 109.484C7.83334 107.484 6.0507 110.484 6.0507 111.884C6.24877 114.684 6.64491 117.484 6.84298 120.484L7.4372 134.485C7.4372 135.685 8.62562 136.885 9.81405 137.085C15.162 137.685 20.9061 138.285 26.0559 138.285Z" fill="#FFEB68"/>
<path d="M99.7604 101.084C113.625 99.8839 126.698 98.6838 139.375 97.2838C141.157 97.0838 141.751 95.4837 141.751 94.6837C141.751 93.2837 141.553 91.4837 141.355 90.0836C138.979 69.8832 129.669 48.4827 103.326 51.6827C58.5615 57.0829 64.1075 135.285 110.456 135.285C118.775 135.285 130.263 132.685 136.404 128.685C137.592 128.085 137.79 126.884 137.79 125.884C135.611 120.084 133.631 114.284 131.452 108.684C130.858 107.484 129.471 106.484 127.688 107.284C124.321 109.884 120.162 111.284 116.002 111.884C108.277 113.084 99.9584 108.884 99.7604 101.084ZM117.983 82.0834C110.852 82.8835 104.712 83.4835 97.9777 83.8835C98.1758 77.8833 102.335 72.8832 107.089 72.2832C114.021 71.2832 116.596 76.2833 117.983 82.0834Z" fill="#FFEB68"/>
<path d="M171.691 142.685C202.788 142.685 206.155 110.884 206.353 87.4836C206.551 76.0833 206.353 64.883 206.353 53.4828C206.353 52.4828 205.165 50.0827 202.986 50.8827C195.855 52.2828 189.715 53.6828 182.584 55.0828C180.802 55.2828 180.208 56.8829 180.208 57.8829C181.396 67.8831 182.783 77.4833 182.783 87.4836C182.783 94.0837 183.971 118.884 173.275 118.884C163.372 118.884 164.164 96.2838 164.164 90.0836C164.164 79.8834 164.758 69.4832 166.145 59.2829C166.145 57.2829 164.758 55.8828 162.777 56.2828C155.449 58.0829 148.714 59.0829 141.188 60.2829C139.999 60.4829 139.009 61.683 139.009 62.883C138.811 67.8831 138.811 76.0833 139.009 84.2835C139.801 108.884 143.763 142.685 171.691 142.685Z" fill="#FFEB68"/>
<path d="M201.963 130.285V130.085C201.567 131.085 201.765 132.485 202.557 133.285C209.094 138.085 220.186 140.485 227.514 140.485C242.172 140.485 263.563 133.285 263.563 114.684C263.563 95.4838 243.954 92.4837 231.278 84.8835C229.099 83.6835 228.307 81.2834 228.307 78.6834C228.307 75.6833 232.466 72.6832 237.022 72.6832C240.785 72.6832 244.747 74.4833 248.312 76.2833C249.896 77.4833 251.679 76.0833 252.075 75.6833L260.196 59.4829C260.196 58.0829 259.998 57.0829 259.206 56.4829C252.471 52.2828 244.945 49.6827 237.022 49.6827C221.176 49.6827 205.33 60.2829 205.33 77.6833C205.33 88.0836 210.282 98.0838 220.186 102.484C224.543 104.484 238.408 107.084 238.408 113.284C238.408 117.484 233.457 119.484 229.297 119.484C223.157 119.484 216.819 115.684 211.669 112.884C210.876 112.484 208.896 112.084 207.905 114.084L201.963 130.285Z" fill="#FFEB68"/>
<path d="M257.676 130.285V130.085C257.28 131.085 257.478 132.485 258.271 133.285C264.807 138.085 275.899 140.485 283.228 140.485C297.885 140.485 319.277 133.285 319.277 114.684C319.277 95.4838 299.668 92.4837 286.991 84.8835C284.812 83.6835 284.02 81.2834 284.02 78.6834C284.02 75.6833 288.179 72.6832 292.735 72.6832C296.498 72.6832 300.46 74.4833 304.025 76.2833C305.61 77.4833 307.392 76.0833 307.788 75.6833L315.909 59.4829C315.909 58.0829 315.711 57.0829 314.919 56.4829C308.185 52.2828 300.658 49.6827 292.735 49.6827C276.889 49.6827 261.044 60.2829 261.044 77.6833C261.044 88.0836 265.995 98.0838 275.899 102.484C280.257 104.484 294.122 107.084 294.122 113.284C294.122 117.484 289.17 119.484 285.01 119.484C278.87 119.484 272.532 115.684 267.382 112.884C266.59 112.484 264.609 112.084 263.619 114.084L257.676 130.285Z" fill="#FFEB68"/>
<path d="M332.082 46.2826C340.599 46.2826 348.323 39.4824 348.323 30.2822C348.323 22.282 340.401 14.8819 332.874 14.8819C324.753 14.8819 317.82 21.882 317.82 30.0822C317.82 37.0824 323.763 46.2826 332.082 46.2826ZM347.729 135.085C348.521 108.484 349.314 83.8835 350.304 57.4829C350.304 56.2828 349.116 54.2828 347.135 54.8828C343.768 55.0828 340.797 55.4828 337.429 55.4828C333.27 55.6828 329.11 55.4828 324.951 55.6828C323.564 55.6828 322.178 56.8829 322.178 58.4829C322.772 87.8836 323.961 128.085 323.961 128.485C323.961 130.885 323.961 133.485 324.159 136.285C324.357 138.085 325.941 138.685 327.13 138.685C334.062 138.285 340.202 138.085 345.352 137.685C346.541 137.685 347.729 136.685 347.729 135.085Z" fill="#FFEB68"/>
<path d="M382.16 57.0829C381.962 40.4825 382.16 25.2821 382.754 9.48176C383.546 6.48168 380.179 6.28168 379.387 6.48169C371.662 8.68175 366.314 9.68177 357.995 11.4818C356.807 12.2818 356.014 13.2819 356.014 14.2819C356.014 53.8828 357.797 98.0838 361.362 138.285L361.56 138.485C361.956 139.085 362.352 139.285 362.749 139.485C366.71 140.685 372.256 141.485 377.406 142.485C378.792 142.485 380.377 141.685 380.377 139.685V131.685C384.933 133.285 389.488 134.285 393.45 134.285C417.812 134.285 431.479 115.084 431.479 93.4837C431.479 74.4833 417.218 54.6828 395.034 54.6828C391.469 54.6828 386.319 55.0828 382.16 57.0829ZM394.242 80.8834C400.976 80.8834 406.324 90.2836 406.324 96.6838C406.324 104.284 401.373 113.084 393.054 113.084C384.536 113.084 382.556 108.084 381.962 97.8838C381.367 86.2835 384.933 80.8834 394.242 80.8834Z" fill="#FFEB68"/>
<path d="M455.113 133.085C454.519 91.6837 455.906 50.2827 456.698 8.88175C456.698 6.8817 454.915 5.88168 453.133 6.28168C447.19 8.08173 437.089 9.68177 431.543 11.0818C430.751 11.2818 428.374 11.8818 428.572 14.6819C429.166 27.0822 430.354 76.6833 431.147 104.684C431.543 114.084 431.741 123.884 432.335 133.285C432.533 134.885 433.92 135.685 434.91 135.685C440.06 135.885 449.765 135.685 452.34 135.685C453.529 135.685 455.113 134.685 455.113 133.085Z" fill="#FFEB68"/>
<path d="M481.424 101.084C495.289 99.8839 508.362 98.6838 521.039 97.2838C522.821 97.0838 523.416 95.4837 523.416 94.6837C523.416 93.2837 523.218 91.4837 523.019 90.0836C520.643 69.8832 511.333 48.4827 484.99 51.6827C440.226 57.0829 445.772 135.285 492.12 135.285C500.439 135.285 511.927 132.685 518.068 128.685C519.256 128.085 519.454 126.884 519.454 125.884C517.275 120.084 515.295 114.284 513.116 108.684C512.522 107.484 511.135 106.484 509.353 107.284C505.985 109.884 501.826 111.284 497.666 111.884C489.942 113.084 481.623 108.884 481.424 101.084ZM499.647 82.0834C492.516 82.8835 486.376 83.4835 479.642 83.8835C479.84 77.8833 483.999 72.8832 488.753 72.2832C495.686 71.2832 498.26 76.2833 499.647 82.0834Z" fill="#FFEB68"/>
<path d="M516.54 130.285V130.085C516.144 131.085 516.342 132.485 517.134 133.285C523.671 138.085 534.763 140.485 542.091 140.485C556.749 140.485 578.14 133.285 578.14 114.684C578.14 95.4838 558.531 92.4837 545.855 84.8835C543.676 83.6835 542.884 81.2834 542.884 78.6834C542.884 75.6833 547.043 72.6832 551.599 72.6832C555.362 72.6832 559.324 74.4833 562.889 76.2833C564.473 77.4833 566.256 76.0833 566.652 75.6833L574.773 59.4829C574.773 58.0829 574.575 57.0829 573.783 56.4829C567.048 52.2828 559.522 49.6827 551.599 49.6827C535.753 49.6827 519.907 60.2829 519.907 77.6833C519.907 88.0836 524.859 98.0838 534.763 102.484C539.12 104.484 552.985 107.084 552.985 113.284C552.985 117.484 548.033 119.484 543.874 119.484C537.734 119.484 531.395 115.684 526.246 112.884C525.453 112.484 523.473 112.084 522.482 114.084L516.54 130.285Z" fill="#FFEB68"/>
<path d="M612.094 97.0838C617.244 71.4832 625.562 40.6825 634.08 12.4818C634.476 11.2818 633.882 9.68177 632.297 9.08175C623.384 6.68169 611.499 2.8816 606.151 1.28157C604.171 0.481548 603.379 1.48158 602.586 3.08162C600.209 28.8822 597.634 65.083 594.267 95.4837C594.267 97.4838 595.852 98.2838 597.04 98.2838C598.427 98.2838 600.804 98.0838 601.398 98.0838C603.775 98.0838 606.35 98.8838 608.925 99.0838C610.509 99.4839 611.896 98.2838 612.094 97.0838ZM599.417 136.885C606.944 136.885 616.055 131.885 616.055 122.684C616.055 113.684 608.925 107.284 600.407 107.284C591.692 107.284 584.364 113.484 584.364 123.084C584.364 131.885 592.683 136.885 599.417 136.885Z" fill="#FFEB68"/>
<path d="M26.0559 138.285C45.2688 138.285 76.168 130.885 76.168 104.684C76.168 86.4835 58.5396 80.2834 45.2688 73.6832C40.317 71.0832 32.7903 67.4831 32.7903 60.8829C32.7903 51.2827 49.2303 49.8827 56.5589 49.8827C58.9358 49.8827 65.8683 50.4827 68.6413 50.6827C70.622 50.8827 72.0085 49.4827 71.4143 47.6826C71.4143 40.0825 71.6123 32.2823 72.4046 24.4821C72.4046 23.8821 72.0085 21.682 69.8297 21.682C66.4625 21.682 63.0953 21.282 59.728 21.282C40.9113 21.282 20.3118 25.4821 9.21984 43.4825C6.84298 47.0826 4.46613 54.0828 4.46613 58.6829C4.46613 95.2838 45.4669 90.4836 45.4669 105.684C45.4669 112.484 34.771 113.284 29.8193 113.284C21.1041 113.284 17.1427 112.884 10.2102 109.484C7.83334 107.484 6.0507 110.484 6.0507 111.884C6.24877 114.684 6.64491 117.484 6.84298 120.484L7.4372 134.485C7.4372 135.685 8.62562 136.885 9.81405 137.085C15.162 137.685 20.9061 138.285 26.0559 138.285Z" stroke="black" stroke-width="0.5" mask="url(#path-2-outside-1_1124:11589)"/>
<path d="M99.7604 101.084C113.625 99.8839 126.698 98.6838 139.375 97.2838C141.157 97.0838 141.751 95.4837 141.751 94.6837C141.751 93.2837 141.553 91.4837 141.355 90.0836C138.979 69.8832 129.669 48.4827 103.326 51.6827C58.5615 57.0829 64.1075 135.285 110.456 135.285C118.775 135.285 130.263 132.685 136.404 128.685C137.592 128.085 137.79 126.884 137.79 125.884C135.611 120.084 133.631 114.284 131.452 108.684C130.858 107.484 129.471 106.484 127.688 107.284C124.321 109.884 120.162 111.284 116.002 111.884C108.277 113.084 99.9584 108.884 99.7604 101.084ZM117.983 82.0834C110.852 82.8835 104.712 83.4835 97.9777 83.8835C98.1758 77.8833 102.335 72.8832 107.089 72.2832C114.021 71.2832 116.596 76.2833 117.983 82.0834Z" stroke="black" stroke-width="0.5" mask="url(#path-2-outside-1_1124:11589)"/>
<path d="M171.691 142.685C202.788 142.685 206.155 110.884 206.353 87.4836C206.551 76.0833 206.353 64.883 206.353 53.4828C206.353 52.4828 205.165 50.0827 202.986 50.8827C195.855 52.2828 189.715 53.6828 182.584 55.0828C180.802 55.2828 180.208 56.8829 180.208 57.8829C181.396 67.8831 182.783 77.4833 182.783 87.4836C182.783 94.0837 183.971 118.884 173.275 118.884C163.372 118.884 164.164 96.2838 164.164 90.0836C164.164 79.8834 164.758 69.4832 166.145 59.2829C166.145 57.2829 164.758 55.8828 162.777 56.2828C155.449 58.0829 148.714 59.0829 141.188 60.2829C139.999 60.4829 139.009 61.683 139.009 62.883C138.811 67.8831 138.811 76.0833 139.009 84.2835C139.801 108.884 143.763 142.685 171.691 142.685Z" stroke="black" stroke-width="0.5" mask="url(#path-2-outside-1_1124:11589)"/>
<path d="M201.963 130.285V130.085C201.567 131.085 201.765 132.485 202.557 133.285C209.094 138.085 220.186 140.485 227.514 140.485C242.172 140.485 263.563 133.285 263.563 114.684C263.563 95.4838 243.954 92.4837 231.278 84.8835C229.099 83.6835 228.307 81.2834 228.307 78.6834C228.307 75.6833 232.466 72.6832 237.022 72.6832C240.785 72.6832 244.747 74.4833 248.312 76.2833C249.896 77.4833 251.679 76.0833 252.075 75.6833L260.196 59.4829C260.196 58.0829 259.998 57.0829 259.206 56.4829C252.471 52.2828 244.945 49.6827 237.022 49.6827C221.176 49.6827 205.33 60.2829 205.33 77.6833C205.33 88.0836 210.282 98.0838 220.186 102.484C224.543 104.484 238.408 107.084 238.408 113.284C238.408 117.484 233.457 119.484 229.297 119.484C223.157 119.484 216.819 115.684 211.669 112.884C210.876 112.484 208.896 112.084 207.905 114.084L201.963 130.285Z" stroke="black" stroke-width="0.5" mask="url(#path-2-outside-1_1124:11589)"/>
<path d="M257.676 130.285V130.085C257.28 131.085 257.478 132.485 258.271 133.285C264.807 138.085 275.899 140.485 283.228 140.485C297.885 140.485 319.277 133.285 319.277 114.684C319.277 95.4838 299.668 92.4837 286.991 84.8835C284.812 83.6835 284.02 81.2834 284.02 78.6834C284.02 75.6833 288.179 72.6832 292.735 72.6832C296.498 72.6832 300.46 74.4833 304.025 76.2833C305.61 77.4833 307.392 76.0833 307.788 75.6833L315.909 59.4829C315.909 58.0829 315.711 57.0829 314.919 56.4829C308.185 52.2828 300.658 49.6827 292.735 49.6827C276.889 49.6827 261.044 60.2829 261.044 77.6833C261.044 88.0836 265.995 98.0838 275.899 102.484C280.257 104.484 294.122 107.084 294.122 113.284C294.122 117.484 289.17 119.484 285.01 119.484C278.87 119.484 272.532 115.684 267.382 112.884C266.59 112.484 264.609 112.084 263.619 114.084L257.676 130.285Z" stroke="black" stroke-width="0.5" mask="url(#path-2-outside-1_1124:11589)"/>
<path d="M332.082 46.2826C340.599 46.2826 348.323 39.4824 348.323 30.2822C348.323 22.282 340.401 14.8819 332.874 14.8819C324.753 14.8819 317.82 21.882 317.82 30.0822C317.82 37.0824 323.763 46.2826 332.082 46.2826ZM347.729 135.085C348.521 108.484 349.314 83.8835 350.304 57.4829C350.304 56.2828 349.116 54.2828 347.135 54.8828C343.768 55.0828 340.797 55.4828 337.429 55.4828C333.27 55.6828 329.11 55.4828 324.951 55.6828C323.564 55.6828 322.178 56.8829 322.178 58.4829C322.772 87.8836 323.961 128.085 323.961 128.485C323.961 130.885 323.961 133.485 324.159 136.285C324.357 138.085 325.941 138.685 327.13 138.685C334.062 138.285 340.202 138.085 345.352 137.685C346.541 137.685 347.729 136.685 347.729 135.085Z" stroke="black" stroke-width="0.5" mask="url(#path-2-outside-1_1124:11589)"/>
<path d="M382.16 57.0829C381.962 40.4825 382.16 25.2821 382.754 9.48176C383.546 6.48168 380.179 6.28168 379.387 6.48169C371.662 8.68175 366.314 9.68177 357.995 11.4818C356.807 12.2818 356.014 13.2819 356.014 14.2819C356.014 53.8828 357.797 98.0838 361.362 138.285L361.56 138.485C361.956 139.085 362.352 139.285 362.749 139.485C366.71 140.685 372.256 141.485 377.406 142.485C378.792 142.485 380.377 141.685 380.377 139.685V131.685C384.933 133.285 389.488 134.285 393.45 134.285C417.812 134.285 431.479 115.084 431.479 93.4837C431.479 74.4833 417.218 54.6828 395.034 54.6828C391.469 54.6828 386.319 55.0828 382.16 57.0829ZM394.242 80.8834C400.976 80.8834 406.324 90.2836 406.324 96.6838C406.324 104.284 401.373 113.084 393.054 113.084C384.536 113.084 382.556 108.084 381.962 97.8838C381.367 86.2835 384.933 80.8834 394.242 80.8834Z" stroke="black" stroke-width="0.5" mask="url(#path-2-outside-1_1124:11589)"/>
<path d="M455.113 133.085C454.519 91.6837 455.906 50.2827 456.698 8.88175C456.698 6.8817 454.915 5.88168 453.133 6.28168C447.19 8.08173 437.089 9.68177 431.543 11.0818C430.751 11.2818 428.374 11.8818 428.572 14.6819C429.166 27.0822 430.354 76.6833 431.147 104.684C431.543 114.084 431.741 123.884 432.335 133.285C432.533 134.885 433.92 135.685 434.91 135.685C440.06 135.885 449.765 135.685 452.34 135.685C453.529 135.685 455.113 134.685 455.113 133.085Z" stroke="black" stroke-width="0.5" mask="url(#path-2-outside-1_1124:11589)"/>
<path d="M481.424 101.084C495.289 99.8839 508.362 98.6838 521.039 97.2838C522.821 97.0838 523.416 95.4837 523.416 94.6837C523.416 93.2837 523.218 91.4837 523.019 90.0836C520.643 69.8832 511.333 48.4827 484.99 51.6827C440.226 57.0829 445.772 135.285 492.12 135.285C500.439 135.285 511.927 132.685 518.068 128.685C519.256 128.085 519.454 126.884 519.454 125.884C517.275 120.084 515.295 114.284 513.116 108.684C512.522 107.484 511.135 106.484 509.353 107.284C505.985 109.884 501.826 111.284 497.666 111.884C489.942 113.084 481.623 108.884 481.424 101.084ZM499.647 82.0834C492.516 82.8835 486.376 83.4835 479.642 83.8835C479.84 77.8833 483.999 72.8832 488.753 72.2832C495.686 71.2832 498.26 76.2833 499.647 82.0834Z" stroke="black" stroke-width="0.5" mask="url(#path-2-outside-1_1124:11589)"/>
<path d="M516.54 130.285V130.085C516.144 131.085 516.342 132.485 517.134 133.285C523.671 138.085 534.763 140.485 542.091 140.485C556.749 140.485 578.14 133.285 578.14 114.684C578.14 95.4838 558.531 92.4837 545.855 84.8835C543.676 83.6835 542.884 81.2834 542.884 78.6834C542.884 75.6833 547.043 72.6832 551.599 72.6832C555.362 72.6832 559.324 74.4833 562.889 76.2833C564.473 77.4833 566.256 76.0833 566.652 75.6833L574.773 59.4829C574.773 58.0829 574.575 57.0829 573.783 56.4829C567.048 52.2828 559.522 49.6827 551.599 49.6827C535.753 49.6827 519.907 60.2829 519.907 77.6833C519.907 88.0836 524.859 98.0838 534.763 102.484C539.12 104.484 552.985 107.084 552.985 113.284C552.985 117.484 548.033 119.484 543.874 119.484C537.734 119.484 531.395 115.684 526.246 112.884C525.453 112.484 523.473 112.084 522.482 114.084L516.54 130.285Z" stroke="black" stroke-width="0.5" mask="url(#path-2-outside-1_1124:11589)"/>
<path d="M612.094 97.0838C617.244 71.4832 625.562 40.6825 634.08 12.4818C634.476 11.2818 633.882 9.68177 632.297 9.08175C623.384 6.68169 611.499 2.8816 606.151 1.28157C604.171 0.481548 603.379 1.48158 602.586 3.08162C600.209 28.8822 597.634 65.083 594.267 95.4837C594.267 97.4838 595.852 98.2838 597.04 98.2838C598.427 98.2838 600.804 98.0838 601.398 98.0838C603.775 98.0838 606.35 98.8838 608.925 99.0838C610.509 99.4839 611.896 98.2838 612.094 97.0838ZM599.417 136.885C606.944 136.885 616.055 131.885 616.055 122.684C616.055 113.684 608.925 107.284 600.407 107.284C591.692 107.284 584.364 113.484 584.364 123.084C584.364 131.885 592.683 136.885 599.417 136.885Z" stroke="black" stroke-width="0.5" mask="url(#path-2-outside-1_1124:11589)"/>
</svg>
