<svg width="293" height="96" viewBox="0 0 293 96" fill="none" xmlns="http://www.w3.org/2000/svg">
<g clip-path="url(#clip0_1129:11959)">
<path fill-rule="evenodd" clip-rule="evenodd" d="M190.657 38.7737C187.194 35.6095 182.654 34.004 177.162 34.004C171.376 34.004 166.664 35.7228 163.154 39.1077C159.635 42.5036 157.849 47.166 157.849 52.9646C157.849 58.8577 159.635 63.5559 163.157 66.9259C166.665 70.289 171.495 71.9949 177.515 71.9949C182.201 71.9949 186.239 70.8835 189.519 68.6914C192.865 66.4517 194.846 63.4893 195.406 59.8876C195.448 59.6093 195.368 59.3289 195.185 59.1142C195.002 58.9015 194.736 58.7782 194.455 58.7782H183.867C183.485 58.7782 183.141 59.0009 182.987 59.3488C182.208 61.1024 180.419 61.9524 177.515 61.9524C175.362 61.9524 173.65 61.4156 172.427 60.3548C171.542 59.5894 170.836 57.8706 170.586 55.9758H194.665C195.159 55.9758 195.57 55.606 195.622 55.1179L195.689 54.4995L195.69 54.4873C195.832 53.1957 195.911 52.4784 195.911 51.2001C195.911 46.1421 194.143 41.9608 190.657 38.7737ZM227.166 37.043C224.751 35.0836 220.54 34.004 215.303 34.004C210.685 34.004 206.927 35.0796 204.136 37.201C201.259 39.3821 199.803 42.263 199.803 45.7653C199.803 48.4345 200.616 50.7358 202.223 52.6028C203.804 54.4419 206.108 55.7541 209.067 56.5076L217.417 58.6301C218.627 58.9074 219.141 59.4939 219.141 60.5855C219.141 61.2754 218.913 61.7744 218.421 62.1572C217.866 62.5846 217.105 62.8023 216.149 62.8023C214.719 62.8023 213.555 62.4832 212.693 61.8579C211.904 61.2833 211.536 60.6103 211.536 59.7395C211.536 59.2086 211.105 58.7782 210.575 58.7782H199.847C199.314 58.7782 198.885 59.2086 198.885 59.7395C198.885 63.3451 200.491 66.3364 203.656 68.6348C206.729 70.8646 210.86 71.9949 215.94 71.9949C220.753 71.9949 224.626 70.8417 227.446 68.5712C230.331 66.2479 231.793 63.1344 231.793 59.317C231.793 56.7234 230.934 54.4946 229.237 52.6932C227.589 50.9426 225.31 49.6771 222.474 48.9315L214.422 46.7425C212.489 46.2236 212.241 45.3428 212.241 44.635C212.241 44.0942 212.448 43.7015 212.907 43.3635C213.44 42.9728 214.201 42.773 215.162 42.773C216.39 42.773 217.339 43.0355 217.982 43.5524C218.582 44.0296 218.859 44.6668 218.859 45.5525C218.859 46.0854 219.29 46.5148 219.822 46.5148H230.479C231.01 46.5148 231.44 46.0854 231.44 45.5525C231.44 42.1577 230.041 39.3751 227.166 37.043ZM110.372 25.6854C110.372 25.1535 109.942 24.7241 109.41 24.7241H98.6628C98.4556 24.7241 98.2752 24.8026 98.1175 24.9149C99.2248 25.9836 100.203 27.1994 101.005 28.5663C103.273 32.4334 103.924 36.9496 102.838 41.2849C102.444 42.8586 101.827 44.3657 101.002 45.7664C100.103 47.2933 98.981 48.6334 97.7022 49.7756V70.3119C97.7022 70.8428 98.0799 71.2732 98.6122 71.2732H109.41C109.942 71.2732 110.372 70.8428 110.372 70.3119V68.0255C111.16 68.8059 112.096 69.5008 113.174 70.1062C115.239 71.2663 117.608 71.8538 120.209 71.8538C125.179 71.8538 129.293 70.0714 132.433 66.5562C135.544 63.0738 137.122 58.4999 137.122 52.9637C137.122 47.3848 135.582 42.8029 132.543 39.3424C129.471 35.8481 125.417 34.0747 120.492 34.0747C117.895 34.0747 115.487 34.6582 113.333 35.8124C112.184 36.4267 111.194 37.1435 110.372 37.9557V25.6854ZM65.8793 25.6295C65.8793 25.1006 65.4491 24.6692 64.9187 24.6692H54.1205C53.5881 24.6692 53.1579 25.1006 53.1579 25.6295V34.7624H48.7545C48.2222 34.7624 47.793 35.1948 47.793 35.7247V44.2651C47.793 44.7969 48.2222 45.2254 48.7545 45.2254H53.1579V57.8178C53.1579 60.0794 53.4484 62.0825 54.0194 63.7715C54.5993 65.4853 55.318 66.8324 56.1526 67.7718C56.9962 68.7212 58.0867 69.4817 59.3922 70.0304C60.6393 70.5543 61.7842 70.8983 62.7983 71.0484C63.7797 71.1965 64.9207 71.2721 66.1886 71.2721C68.9593 71.2721 71.4395 71.0752 73.5609 70.6905C74.0169 70.607 74.349 70.2084 74.349 69.7441V61.1321C74.349 60.8548 74.2291 60.5893 74.0179 60.4064C73.8068 60.2235 73.5282 60.139 73.2517 60.1798C72.3109 60.316 71.0985 60.3856 69.6473 60.3856C68.3606 60.3856 67.398 60.0853 66.7883 59.4938C66.374 59.0892 65.8793 58.0792 65.8793 55.5572V45.2254H71.4306C69.6978 42.0224 69.0436 38.3511 69.5551 34.7624H65.8793V25.6295ZM153.734 25.7562C153.734 25.3049 153.366 24.9361 152.916 24.9361H141.651C141.2 24.9361 140.832 25.3049 140.832 25.7562V70.4484C140.832 70.8998 141.2 71.2696 141.651 71.2696H152.916C153.366 71.2696 153.734 70.8998 153.734 70.4484V25.7562ZM80.171 52.8913C79.8637 52.7909 79.6129 52.9758 79.6129 53.2988V70.6819C79.6129 71.0049 79.8765 71.2694 80.1987 71.2694H91.9278C92.252 71.2694 92.5147 71.0049 92.5147 70.6819V53.5563C92.5147 53.2332 92.2609 53.0414 91.9516 53.1308C91.9516 53.1308 88.5435 54.117 86.3785 54.117C83.9726 54.117 80.171 52.8913 80.171 52.8913ZM111.885 47.1889C113.211 45.7375 114.918 45.0327 117.105 45.0327C119.193 45.0327 120.854 45.7395 122.182 47.1909C123.532 48.6672 124.189 50.556 124.189 52.9637C124.189 55.3754 123.531 57.2772 122.178 58.7783C120.85 60.2496 119.191 60.9653 117.105 60.9653C114.962 60.9653 113.265 60.2595 111.916 58.8031C110.545 57.3279 109.878 55.4162 109.878 52.9637C109.878 50.556 110.534 48.6672 111.885 47.1889ZM89.5533 24.3915C88.4846 24.1231 87.413 23.9949 86.3583 23.9949C80.463 23.9949 75.0842 27.9902 73.5893 33.9618C73.5219 34.2282 73.4674 34.4957 73.4178 34.7621C72.83 37.9233 73.4386 41.0657 74.9434 43.6922C76.6613 46.6924 79.547 49.0196 83.1603 49.9242C88.9476 51.3756 94.8171 48.7263 97.7018 43.8254C98.2465 42.8981 98.6865 41.8932 98.9978 40.8187L99.1233 40.3549C99.9937 36.8785 99.385 33.3743 97.7018 30.5033C95.9749 27.5607 93.117 25.2832 89.5533 24.3915ZM172.287 44.798C173.455 43.6737 175.026 43.1269 177.09 43.1269C179.12 43.1269 180.672 43.6488 181.704 44.6797C182.576 45.5525 183.092 46.7306 183.265 48.2615H170.577C170.775 46.8548 171.338 45.7156 172.287 44.798ZM94.2818 35.9252C94.7427 35.3575 95.6478 35.6369 95.7172 36.3646C95.9214 38.4781 95.398 40.6273 94.1876 42.4396C91.751 46.086 86.8163 47.6736 82.851 45.8196C79.9971 44.4855 78.5845 42.2785 77.9253 40.7347C77.6467 40.0855 78.2732 39.4195 78.9394 39.6571C80.7128 40.2913 83.884 41.027 87.7144 40.169C90.3542 39.5766 92.5936 38.0059 94.2818 35.9252ZM80.6811 32.92C83.535 32.077 84.7772 34.944 83.9673 35.1329C83.6941 35.2197 83.3353 35.189 82.9532 35.1564C82.4424 35.1128 81.89 35.0657 81.4454 35.2909C80.9556 35.3666 80.5351 35.7257 80.1459 36.0582C79.8545 36.3071 79.5806 36.5411 79.3081 36.63C78.5389 36.9461 77.8826 33.9002 80.6811 32.92ZM89.4442 30.8572C92.3914 30.4496 93.1933 33.4707 92.3626 33.5363C92.0802 33.5809 91.7308 33.4971 91.3587 33.4078C90.8597 33.288 90.3198 33.1585 89.8457 33.3156C89.3497 33.3179 88.8802 33.6102 88.4461 33.8805C88.121 34.0828 87.8158 34.2729 87.534 34.3197C86.7251 34.5175 86.5298 31.408 89.4442 30.8572ZM239.023 39.2048H240.053V38.3948H236.893V39.2048H237.923V41.6948H239.023V39.2048ZM244.793 41.6948V38.3948H243.203L242.773 39.7948L242.633 40.4348H242.603L242.453 39.7948L242.033 38.3948H240.403V41.6948H241.503V40.4948L241.453 39.4248H241.483L241.713 40.2648L242.153 41.6948H243.053L243.493 40.2748L243.723 39.4248H243.753L243.703 40.4948V41.6948H244.793Z" fill="black"/>
</g>
<defs>
<clipPath id="clip0_1129:11959">
<rect width="197" height="48" fill="white" transform="translate(47.793 23.9949)"/>
</clipPath>
</defs>
</svg>
