<svg width="293" height="96" viewBox="0 0 293 96" fill="none" xmlns="http://www.w3.org/2000/svg">
<g clip-path="url(#clip0_1655_16958)">
<path fill-rule="evenodd" clip-rule="evenodd" d="M190.657 38.774C187.194 35.6097 182.654 34.0042 177.162 34.0042C171.376 34.0042 166.664 35.723 163.154 39.108C159.635 42.5039 157.849 47.1662 157.849 52.9649C157.849 58.858 159.635 63.5561 163.157 66.9262C166.665 70.2892 171.495 71.9951 177.515 71.9951C182.201 71.9951 186.239 70.8837 189.519 68.6917C192.865 66.452 194.846 63.4895 195.406 59.8879C195.448 59.6095 195.368 59.3292 195.185 59.1144C195.002 58.9017 194.736 58.7784 194.455 58.7784H183.867C183.485 58.7784 183.141 59.0011 182.987 59.349C182.208 61.1027 180.419 61.9526 177.515 61.9526C175.362 61.9526 173.65 61.4158 172.427 60.3551C171.542 59.5896 170.836 57.8708 170.586 55.976H194.665C195.159 55.976 195.57 55.6062 195.622 55.1181L195.689 54.4998L195.69 54.4875C195.832 53.196 195.911 52.4787 195.911 51.2003C195.911 46.1423 194.143 41.9611 190.657 38.774ZM227.166 37.0432C224.751 35.0838 220.54 34.0042 215.303 34.0042C210.685 34.0042 206.927 35.0798 204.136 37.2013C201.259 39.3823 199.803 42.2633 199.803 45.7655C199.803 48.4347 200.616 50.7361 202.223 52.603C203.804 54.4421 206.108 55.7543 209.067 56.5079L217.417 58.6303C218.627 58.9077 219.141 59.4942 219.141 60.5857C219.141 61.2756 218.913 61.7747 218.421 62.1574C217.866 62.5849 217.105 62.8026 216.149 62.8026C214.719 62.8026 213.555 62.4835 212.693 61.8582C211.904 61.2836 211.536 60.6106 211.536 59.7397C211.536 59.2089 211.105 58.7784 210.575 58.7784H199.847C199.314 58.7784 198.885 59.2089 198.885 59.7397C198.885 63.3454 200.491 66.3366 203.656 68.635C206.729 70.8648 210.86 71.9951 215.94 71.9951C220.753 71.9951 224.626 70.8419 227.446 68.5714C230.331 66.2482 231.793 63.1346 231.793 59.3172C231.793 56.7236 230.934 54.4948 229.237 52.6935C227.589 50.9429 225.31 49.6774 222.474 48.9318L214.422 46.7427C212.489 46.2238 212.241 45.343 212.241 44.6352C212.241 44.0944 212.448 43.7018 212.907 43.3638C213.44 42.9731 214.201 42.7733 215.162 42.7733C216.39 42.7733 217.339 43.0357 217.982 43.5526C218.582 44.0298 218.859 44.667 218.859 45.5528C218.859 46.0856 219.29 46.5151 219.822 46.5151H230.479C231.01 46.5151 231.44 46.0856 231.44 45.5528C231.44 42.1579 230.041 39.3754 227.166 37.0432ZM110.372 25.6856C110.372 25.1538 109.942 24.7243 109.41 24.7243H98.6628C98.4556 24.7243 98.2752 24.8028 98.1175 24.9152C99.2248 25.9838 100.203 27.1996 101.005 28.5665C103.273 32.4336 103.924 36.9499 102.838 41.2852C102.444 42.8588 101.827 44.3659 101.002 45.7666C100.103 47.2936 98.981 48.6336 97.7022 49.7759V70.3122C97.7022 70.843 98.0799 71.2735 98.6122 71.2735H109.41C109.942 71.2735 110.372 70.843 110.372 70.3122V68.0257C111.16 68.8061 112.096 69.501 113.174 70.1064C115.239 71.2665 117.608 71.8541 120.209 71.8541C125.179 71.8541 129.293 70.0716 132.433 66.5564C135.544 63.0741 137.122 58.5002 137.122 52.964C137.122 47.385 135.582 42.8032 132.543 39.3427C129.471 35.8484 125.417 34.0749 120.492 34.0749C117.895 34.0749 115.487 34.6584 113.333 35.8126C112.184 36.427 111.194 37.1437 110.372 37.9559V25.6856ZM65.8793 25.6297C65.8793 25.1009 65.4491 24.6694 64.9187 24.6694H54.1205C53.5881 24.6694 53.1579 25.1009 53.1579 25.6297V34.7626H48.7545C48.2222 34.7626 47.793 35.1951 47.793 35.7249V44.2653C47.793 44.7972 48.2222 45.2256 48.7545 45.2256H53.1579V57.818C53.1579 60.0796 53.4484 62.0827 54.0194 63.7717C54.5993 65.4856 55.318 66.8326 56.1526 67.772C56.9962 68.7214 58.0867 69.4819 59.3922 70.0307C60.6393 70.5546 61.7842 70.8985 62.7983 71.0486C63.7797 71.1967 64.9207 71.2723 66.1886 71.2723C68.9593 71.2723 71.4395 71.0755 73.5609 70.6907C74.0169 70.6072 74.349 70.2086 74.349 69.7444V61.1324C74.349 60.855 74.2291 60.5896 74.0179 60.4067C73.8068 60.2238 73.5282 60.1393 73.2517 60.18C72.3109 60.3162 71.0985 60.3858 69.6473 60.3858C68.3606 60.3858 67.398 60.0856 66.7883 59.4941C66.374 59.0895 65.8793 58.0795 65.8793 55.5574V45.2256H71.4306C69.6978 42.0226 69.0436 38.3514 69.5551 34.7626H65.8793V25.6297ZM153.734 25.7565C153.734 25.3052 153.366 24.9363 152.916 24.9363H141.651C141.2 24.9363 140.832 25.3052 140.832 25.7565V70.4487C140.832 70.9 141.2 71.2698 141.651 71.2698H152.916C153.366 71.2698 153.734 70.9 153.734 70.4487V25.7565ZM80.171 52.8915C79.8637 52.7911 79.6129 52.976 79.6129 53.2991V70.6821C79.6129 71.0052 79.8765 71.2696 80.1987 71.2696H91.9278C92.252 71.2696 92.5147 71.0052 92.5147 70.6821V53.5566C92.5147 53.2335 92.2609 53.0416 91.9516 53.1311C91.9516 53.1311 88.5435 54.1172 86.3785 54.1172C83.9726 54.1172 80.171 52.8915 80.171 52.8915ZM111.885 47.1892C113.211 45.7378 114.918 45.033 117.105 45.033C119.193 45.033 120.854 45.7398 122.182 47.1912C123.532 48.6674 124.189 50.5562 124.189 52.964C124.189 55.3757 123.531 57.2774 122.178 58.7785C120.85 60.2498 119.191 60.9656 117.105 60.9656C114.962 60.9656 113.265 60.2598 111.916 58.8034C110.545 57.3281 109.878 55.4164 109.878 52.964C109.878 50.5562 110.534 48.6674 111.885 47.1892ZM89.5533 24.3918C88.4846 24.1234 87.413 23.9951 86.3583 23.9951C80.463 23.9951 75.0842 27.9904 73.5893 33.9621C73.5219 34.2285 73.4674 34.4959 73.4178 34.7623C72.83 37.9236 73.4386 41.066 74.9434 43.6924C76.6613 46.6926 79.547 49.0198 83.1603 49.9245C88.9476 51.3759 94.8171 48.7266 97.7018 43.8256C98.2465 42.8984 98.6865 41.8935 98.9978 40.8189L99.1233 40.3552C99.9937 36.8788 99.385 33.3745 97.7018 30.5036C95.9749 27.561 93.117 25.2835 89.5533 24.3918ZM172.287 44.7983C173.455 43.6739 175.026 43.1272 177.09 43.1272C179.12 43.1272 180.672 43.6491 181.704 44.68C182.576 45.5528 183.092 46.7308 183.265 48.2617H170.577C170.775 46.8551 171.338 45.7158 172.287 44.7983ZM94.2818 35.9254C94.7427 35.3578 95.6478 35.6371 95.7172 36.3648C95.9214 38.4783 95.398 40.6276 94.1876 42.4398C91.751 46.0862 86.8163 47.6738 82.851 45.8198C79.9971 44.4857 78.5845 42.2788 77.9253 40.7349C77.6467 40.0858 78.2732 39.4197 78.9394 39.6573C80.7128 40.2916 83.884 41.0272 87.7144 40.1693C90.3542 39.5768 92.5936 38.0061 94.2818 35.9254ZM80.6811 32.9202C83.535 32.0772 84.7772 34.9442 83.9673 35.1331C83.6941 35.2199 83.3353 35.1893 82.9532 35.1567C82.4424 35.1131 81.89 35.066 81.4454 35.2912C80.9556 35.3668 80.5351 35.7259 80.1459 36.0584C79.8545 36.3073 79.5806 36.5413 79.3081 36.6303C78.5389 36.9464 77.8826 33.9004 80.6811 32.9202ZM89.4442 30.8575C92.3914 30.4499 93.1933 33.471 92.3626 33.5366C92.0802 33.5812 91.7308 33.4973 91.3587 33.408C90.8597 33.2883 90.3198 33.1587 89.8457 33.3159C89.3497 33.3182 88.8802 33.6104 88.4461 33.8807C88.121 34.0831 87.8158 34.2731 87.534 34.3199C86.7251 34.5178 86.5298 31.4082 89.4442 30.8575ZM239.023 39.205H240.053V38.395H236.893V39.205H237.923V41.695H239.023V39.205ZM244.793 41.695V38.395H243.203L242.773 39.795L242.633 40.435H242.603L242.453 39.795L242.033 38.395H240.403V41.695H241.503V40.495L241.453 39.425H241.483L241.713 40.265L242.153 41.695H243.053L243.493 40.275L243.723 39.425H243.753L243.703 40.495V41.695H244.793Z" fill="black"/>
</g>
<defs>
<clipPath id="clip0_1655_16958">
<rect width="197" height="48" fill="white" transform="translate(47.793 23.9951)"/>
</clipPath>
</defs>
</svg>
